<?xml version="1.0" standalone="no"?>
<!DOCTYPE svg PUBLIC "-//W3C//DTD SVG 1.1//EN" "http://www.w3.org/Graphics/SVG/1.1/DTD/svg11.dtd" >
<svg>
<metadata>
Created by FontForge 20090914 at Sat Mar  3 17:09:05 2012
 By www-data
Typeface &#194;&#169; (your company). 2006. All Rights Reserved
</metadata>
<defs>
<font id="AmsterdamGraffiti" horiz-adv-x="1139" >
  <font-face 
    font-family="Amsterdam Graffiti"
    font-weight="400"
    font-stretch="normal"
    units-per-em="2048"
    panose-1="2 0 0 0 0 0 0 0 0 0"
    ascent="1638"
    descent="-410"
    x-height="747"
    cap-height="708"
    bbox="-179 -98 1280 1280"
    underline-thickness="150"
    underline-position="-142"
    unicode-range="U+0020-U+F005"
  />
<missing-glyph horiz-adv-x="1536" 
d="M256 0v1280h1024v-1280h-1024zM288 32h960v1216h-960v-1216z" />
    <glyph glyph-name=".notdef" horiz-adv-x="1536" 
d="M256 0v1280h1024v-1280h-1024zM288 32h960v1216h-960v-1216z" />
    <glyph glyph-name="space" unicode=" " horiz-adv-x="569" 
 />
    <glyph glyph-name="space" unicode="&#xa0;" horiz-adv-x="569" 
 />
    <glyph glyph-name="exclam" unicode="!" horiz-adv-x="202" 
d="M80 1000c54 0 83.333 -46.666 88 -139.999c13.333 -102 20 -219.333 20 -352v-116c0 -66.667 -26.667 -100 -80 -100v-4c-53.333 11.333 -80 38 -80 80l-4 24v148c0 107.333 -8 235.333 -24 384c0 39.333 26.667 64.666 80 75.999zM120 240.001
c48.667 0 76.668 -42.667 84.001 -128v-16c-7.33301 -64 -35.333 -96 -84 -96c-44.667 0 -71.334 32 -80.001 96v52c5.33301 61.333 32 92 80 92z" />
    <glyph glyph-name="quotedbl" unicode="&#x22;" horiz-adv-x="382" 
d="M69 1156c54 0 88.667 -61.334 104 -184.001v-60c0 -41.333 -26.667 -66.666 -80 -75.999c-56 0 -84 48 -84 144l-24 96c0 40 28 66.667 84 80zM313 1142c58.667 -12.667 88 -40.668 88 -84.001c-20 -133.333 -49.333 -200 -88 -200l-24 -4
c-53.333 6.66699 -80 33.334 -80 80.001v4c20 125.333 40 188 60 188c12 10.667 26.667 16 44 16z" />
    <glyph glyph-name="numbersign" unicode="#" horiz-adv-x="914" 
d="M884 944c39.333 0 64.666 -26.666 75.999 -79.999c-17.333 -50 -32 -107.333 -44 -172c16 -11.333 24 -32.666 24 -63.999c0 -29.333 -21.333 -54.666 -64 -75.999l-80 -224c21.333 -28.667 32 -51.334 32 -68.001c0 -44.667 -28 -71.334 -84 -80.001
c-15.333 -32 -27.333 -77.333 -36 -136c-22 -29.333 -46 -44 -72 -44c-40.667 0 -68.667 24 -84 72v4l16 96h-4c-136 -8.66699 -204 -19.334 -204 -32.001c0 -85.333 -28 -128 -84 -128h-4c-48 0 -74.667 30.667 -80 92v8h-4l-96 -16c-61.333 16.667 -92 47.334 -92 92.001
c10 50.667 35.333 76 76 76l44 -4c66.667 9.33301 100 22.666 100 39.999l36 212l-4 4l-100 -8h-4c-61.333 4.66699 -92 24.667 -92 60l-4 4l-4 12c0 61.333 69.333 92 208 92l36 8c26 141.333 66 212 120 212h4c42 0 66 -25.333 72 -76l-20 -116
c94.667 10.667 189.334 16 284.001 16c32 149.333 74.667 224 128 224h4zM388 316.001h4c96.667 13.333 172.667 20 228 20c53.333 126.667 80 198.667 80 216v4c-120 0 -212 -9.33301 -276 -28z" />
    <glyph glyph-name="dollar" unicode="$" horiz-adv-x="719" 
d="M436 1108c45.333 0 70.665 -33.335 75.998 -100.002v-4l-16 -88v-4c74.667 -65.333 112 -114.666 112 -147.999c0 -39.333 -26.667 -64.666 -80 -75.999c-16 0 -40 13.333 -72 40h-4l-8 -32v-4l124 -56c114.667 -64.667 172 -139.334 172 -224.001
c0 -97.333 -68 -168 -204 -212l-68 -8c-50 0 -104.667 10.667 -164 32c-10 0 -28.667 -60 -56 -180c-22 -29.333 -46 -44 -72 -44c-53.333 10.667 -80 37.334 -80 80.001c10.667 72 29.334 149.333 56.001 232c-49.333 50 -82.666 87.333 -99.999 112
c-21.333 42.667 -37.333 92 -48 148c0 42 29.333 67.333 88 76h8l4 -4h4l4 4v4c-50.667 32 -88 93.333 -112 184c14 72 31.333 108 52 108c36 37.333 84 56 144 56l4 4h4l136 -20c16 82.667 48 124 96 124zM175.999 835.998v-8c0 -30.667 36 -60 108 -88
c10.667 27.333 16 51.333 16 72v4c0 9.33301 -26.667 16 -80 20h-44zM147.999 615.998c26 -84 46 -126.667 60 -128h4l24 80v8c-42.667 26.667 -72 40 -88 40zM351.999 383.998c35.333 -18.667 70 -28.001 104 -28.001c80 8.66699 120 27.334 120 56.001
c0 36 -58.667 74.667 -176 116c-7.33301 0 -23.333 -48 -48 -144z" />
    <glyph glyph-name="percent" unicode="%" horiz-adv-x="869" 
d="M216 884l8.00098 0.000976562c82.667 0 146.667 -38.667 192 -116l16 -72c0 -72.667 -50.667 -139.334 -152 -200.001c-34.667 -13.333 -61.334 -20 -80.001 -20h-28c-44 5.33301 -82.667 25.333 -116 60c-37.333 43.333 -56 91.333 -56 144
c10.667 35.333 18.667 74 24 116c49.333 58.667 113.333 88 192 88zM632.001 816.001c53.333 -11.333 80.0029 -38.001 80.0029 -80.001c0 -19.333 -24 -59.333 -72 -120c-50.667 -72.667 -76 -114 -76 -124h4l112 20c86.667 -17.333 148 -46.666 184 -87.999
c24 -36.667 37.333 -72.667 40 -108c0 -118 -74.667 -202 -224 -252c-14 -5.33301 -42 -8 -84 -8c-52.667 0 -99.334 29.333 -140.001 88c-21.333 38 -32 86 -32 144l4 44h-4c-107.333 -106.667 -198 -206.667 -272 -300c-28.667 -21.333 -51.334 -32 -68.001 -32h-4
c-48 7.33301 -72 31.333 -72 72v4c0 40.667 113.333 178 340 412c64 76.667 129.333 166 196 268c35.333 40 64.666 60 87.999 60zM164.004 660c5.33301 -13.333 14.667 -20 28 -20h8c25.333 0 48 20 68 60c0 12 -17.333 20 -52 24c-34.667 0 -52 -13.333 -52 -40v-24z
M588.005 276v-20c0 -20.667 5.33301 -32.667 16 -36h28c38 0 74 24 108 72v24c-16.667 21.333 -40.667 32 -72 32c-45.333 0 -68 -14.667 -68 -44c-5.33301 -0.666992 -9.33301 -10 -12 -28z" />
    <glyph glyph-name="ampersand" unicode="&#x26;" horiz-adv-x="832" 
d="M135 1064c132.667 0 245.999 -61.334 339.999 -184.001c29.333 -64 44 -124 44 -180c0 -42 -17.333 -104.667 -52 -188c8 -12 64 -52 168 -120h8c6.66699 6 20 35.333 40 88c22 21.333 43.333 32 64 32c47.333 0 74 -29.333 80 -88l-44 -124c0 -4 13.333 -13.333 40 -28
c18.667 -19.333 28 -40.666 28 -63.999c0 -44.667 -28 -71.334 -84 -80.001l-76 28c-102 -101.333 -195.333 -152 -280 -152l-36 -4c-31.333 2 -72.666 16.667 -123.999 44c-42.667 50 -64 100.667 -64 152v12c0 51.333 24 131.333 72 240
c0 4.66699 -56 51.334 -168 140.001c-85.333 88.667 -128 188.667 -128 300c0 64.667 37.333 118 112 160zM126.999 879.999v-4c0 -92.667 65.333 -180.667 196 -264h4c10 0 18 26.667 24 80v28c0 89.333 -60 148 -180 176h-28zM350.999 195.999
c4 -18.667 9.33301 -28 16 -28h44c40 0 85.333 26.667 136 80c-14 18 -60.667 51.333 -140 100h-8c-12.667 0 -28.667 -48 -48 -144v-8z" />
    <glyph glyph-name="quotesingle" unicode="'" horiz-adv-x="249" 
d="M132 1081c47.333 0 74 -30.666 80 -91.999v-12c-8 -118 -36 -190 -84 -216l-32 -4c-47.333 0 -74 29.333 -80 88c24 57.333 36 118.666 36 183.999c22 34.667 48.667 52 80 52z" />
    <glyph glyph-name="parenleft" unicode="(" horiz-adv-x="390" 
d="M228 1128c40 0 64 -25.334 72 -76.001c0 -22.667 -26.667 -60 -80 -112c-37.333 -62.667 -56 -173.334 -56 -332.001c0 -179.333 74.667 -315.333 224 -408c10 -13.333 18 -32 24 -56c-13.333 -56 -41.333 -84 -84 -84c-64 18.667 -132 73.334 -204 164.001
c-82.667 108.667 -124 235.334 -124 380.001c-0 278 57.333 444.667 172 500c13.333 16 32 24 56 24z" />
    <glyph glyph-name="parenright" unicode=")" horiz-adv-x="375" 
d="M136 1153c36 0 94.667 -51.999 176 -155.999c45.333 -86 68 -182 68 -288c0 -190 -80 -400.667 -240 -632c-16 -10.667 -34.667 -18.667 -56 -24c-56 13.333 -84 41.333 -84 84c0 18 22.667 59.333 68 124c98.667 165.333 148 320 148 464
c0 125.333 -50.667 226.666 -152 303.999c-10.667 12 -16 30.667 -16 56c0 38 29.333 60.667 88 68z" />
    <glyph glyph-name="asterisk" unicode="*" horiz-adv-x="797" 
d="M411 1045c55.333 0 87.3301 -52.001 95.9971 -156.001v-12l-16 -96v-12l8 -8h4c98.667 0 209.334 6.66699 332.001 20c36 0 60 -26.667 72 -80v-8c0 -53.333 -49.333 -80 -148 -80c-62 -10.667 -135.333 -16 -220 -16h-16c0 -69.333 50.667 -198.666 152 -387.999v-16
c0 -47.333 -29.333 -74 -88 -80c-37.333 0 -74.666 44 -111.999 132c-60.667 111.333 -96.667 211.333 -108 300l-4 4v4h-4c-85.333 -92 -145.333 -166.667 -180 -224c-20.667 -10.667 -38 -16 -52 -16c-42.667 0 -68 26.667 -76 80c0 36 42.667 104 128 204v8h-8l-132 -4
c-39.333 0 -64.666 26.667 -75.999 80c0 58.667 69.333 88 208 88h124c9.33301 0 17.333 14.667 24 44l-4 148c0 42 32 70 96 84z" />
    <glyph glyph-name="plus" unicode="+" horiz-adv-x="630" 
d="M218 919c58.667 0 88.002 -52 88.002 -156c9.33301 -80 17.333 -120 24 -120c99.333 16 168.666 24 207.999 24c90.667 0 136 -32 136 -96c0 -34 -24 -59.333 -72 -76l-48 4h-40c-106.667 -6 -160 -15.333 -160 -28l32 -212c0 -39.333 -29.333 -63.333 -88 -72
c-42 0 -67.333 33.333 -76 100l-32 152l-108 -20h-16l-4 -4c-53.333 11.333 -80 38 -80 80h-4c0 56.667 57.333 90 172 100l12 12l-20 204v12c7.33301 64 32.666 96 75.999 96z" />
    <glyph glyph-name="comma" unicode="," horiz-adv-x="330" 
d="M256 344l3.99902 0.000976562c56 0 84 -40 84 -120c0 -38.667 -28 -88 -84 -148c-66 -50.667 -127.333 -76 -184 -76c-44 0 -69.333 28 -76 84v4c0 41.333 40 69.333 120 84c37.333 17.333 56 46.666 56 87.999c8.66699 56 35.334 84 80.001 84z" />
    <glyph glyph-name="hyphen" unicode="-" horiz-adv-x="457" 
d="M391 699c33.333 0 57.334 -26.667 72.001 -80c0 -50 -40 -79.333 -120 -88l-248 -52c-42.667 0 -69.334 28 -80.001 84c0 58 64 92.667 192 104c98 21.333 159.333 32 184 32z" />
    <glyph glyph-name="hyphen" unicode="&#xad;" horiz-adv-x="457" 
d="M391 699c33.333 0 57.334 -26.667 72.001 -80c0 -50 -40 -79.333 -120 -88l-248 -52c-42.667 0 -69.334 28 -80.001 84c0 58 64 92.667 192 104c98 21.333 159.333 32 184 32z" />
    <glyph glyph-name="period" unicode="." horiz-adv-x="202" 
d="M80 176h4c50.667 -8 76 -33.333 76 -76c0 -66.667 -26.667 -100 -80 -100h-4c-50.667 8 -76 33.333 -76 76c0 66.667 26.667 100 80 100z" />
    <glyph glyph-name="slash" unicode="/" horiz-adv-x="569" 
d="M575 952c37.333 0 61.332 -25.333 71.999 -76v-8c-10 -65.333 -143.333 -233.333 -400 -504l-108 -168c-19.333 -16 -38 -24 -56 -24c-39.333 0 -64.666 26.667 -75.999 80c0 74.667 122.667 238.667 368 492c61.333 74.667 108 138.667 140 192
c19.333 10.667 39.333 16 60 16z" />
    <glyph glyph-name="zero" unicode="0" horiz-adv-x="772" 
d="M444 1132c145.333 0 257.333 -85.333 336 -256c29.333 -84.667 44 -176.667 44 -276v-24c0 -172.667 -70.667 -332.667 -212 -480c-84.667 -64 -160.667 -96 -228 -96c-145.333 -0 -257.333 85.333 -336 256c-29.333 84.667 -44 176.667 -44 276v24l-4 16
c0 113.333 50.667 245.333 152 396c98.667 109.333 196 164 292 164zM180 604l-0.00195312 -32c0 -214 50.667 -342 152 -384l56 -8c66.667 0 133.334 58.667 200.001 176c37.333 59.333 56 138 56 236c0 183.333 -45.333 299.333 -136 348l-68 12
c-53.333 0 -110.666 -42.667 -171.999 -128c-50 -80.667 -79.333 -154 -88 -220z" />
    <glyph glyph-name="one" unicode="1" horiz-adv-x="816" 
d="M520 1052c48 0 76.001 -30.6641 84.001 -91.9971v-20c0 -26.667 -14.667 -69.334 -44 -128.001c-24 -291.333 -36 -470 -36 -536h4c163.333 32 275.333 48 336 48c56 -8.66699 84 -35.334 84 -80.001h4c-13.333 -56 -41.333 -84 -84 -84c-104 0 -345.333 -48 -724 -144
l-100 -16h-24c-44.667 0 -71.334 28 -80.001 84c0 45.333 38.667 70.666 116 75.999c202.667 45.333 304 73.333 304 84v4c0 106.667 6.66699 228 20 364h-8c-88 -78.667 -146.667 -120 -176 -124c-50.667 10.667 -76 36 -76 76h-4c0 35.333 61.333 102 184 200
c72 66 108 116.667 108 152c0 90.667 37.333 136 112 136z" />
    <glyph glyph-name="two" unicode="2" horiz-adv-x="846" 
d="M478 992c69.333 0 118.667 -30.668 148 -92.001l16 -60c0 -114 -82.667 -274 -248 -480l-108 -140v-12c0 5.33301 152 9.33301 456 12l4 4l-64 240c13.333 56 41.333 84 84 84c52.667 0 87.334 -54.667 104.001 -164c21.333 -58 37.333 -126 48 -204
c-10 -80 -46 -120 -108 -120l-36 -4c-442.667 -3.33301 -664 -16.666 -664 -39.999c-18 -10.667 -36.667 -16 -56 -16c-53.333 6.66699 -80 33.334 -80 80.001h-4c0 28.667 32 68.667 96 120c272 338.667 408 542.667 408 612v12h-12
c-83.333 -12.667 -186 -71.334 -308 -176.001c-20 -42.667 -46.667 -64 -80 -64v-4c-50.667 10.667 -76 36 -76 76h-4c5.33301 48.667 30.666 92.667 75.999 132c156.667 128.667 292.667 196.667 408 204z" />
    <glyph glyph-name="three" unicode="3" horiz-adv-x="802" 
d="M718 1032c44.667 0 71.334 -28 80.001 -84c0 -40.667 -74.667 -124.667 -224 -252c-26.667 -21.333 -40 -34.666 -40 -39.999h8l192 36c66.667 -14.667 100 -45.334 100 -92.001c-4 -58 -40 -168.667 -108 -332c-110 -178.667 -246 -268 -408 -268
c-148 -0 -241.333 77.333 -280 232c12.667 53.333 39.334 80 80.001 80h4c43.333 0 76.666 -37.333 99.999 -112c20 -24 50.667 -36 92 -36h4c123.333 0 220.666 81.333 291.999 244l28 92v4h-8v4c-211.333 -45.333 -392.666 -92 -543.999 -140h-4
c-44.667 0 -71.334 28 -80.001 84c0 44 57.333 93.333 172 148c100 68 186.667 132 260 192v8h-4c-102 -16 -171.333 -24 -208 -24c-141.333 0 -221.333 26.667 -240 80l-4 32c8 61.333 34.667 92 80 92h4c14.667 0 38.667 -10.667 72 -32l100 -8
c65.333 0 225.333 30.667 480 92h4z" />
    <glyph glyph-name="four" unicode="4" horiz-adv-x="877" 
d="M705 1148c47.333 0 74.001 -30.667 80.001 -92v-8l-52 -300l-36 -344h12l172 28c46 0 72.667 -28 80 -84c0 -52.667 -50.667 -83.334 -152 -92.001l-140 -28l-36 -192c-18 -24 -40.667 -36 -68 -36c-53.333 0 -80 38.667 -80 116l12 96
c-218.667 0 -377.334 -14.667 -476.001 -44h-12c-39.333 0 -64.666 26.667 -75.999 80v4c0 42 73.333 122 220 240c157.333 168.667 262.666 300.667 315.999 396c86 130.667 148.667 213.334 188 248.001zM265.001 376l4 -4h44c144 0 216 6.66699 216 20l40 340h-4
l-192 -244z" />
    <glyph glyph-name="five" unicode="5" horiz-adv-x="727" 
d="M671 1060c56 -12.667 84.0029 -40.666 84.0029 -83.999c0 -56 -72 -96 -216 -120c-76 -20.667 -200 -40.667 -372 -60l-36 -272v-4h4c277.333 66.667 437.333 100 480 100c77.333 -8.66699 116 -32.667 116 -72c5.33301 0 8 -20 8 -60
c-28.667 -140.667 -79.334 -250 -152.001 -328c-109.333 -106.667 -216 -160 -320 -160c-114.667 0 -192 46.667 -232 140l-16 64c0 45.333 28 72 84 80c36.667 0 64.667 -30.667 84 -92c16 -18.667 34.667 -28 56 -28c107.333 0 196.666 56 267.999 168
c29.333 51.333 44 87.333 44 108v4c-147.333 -26.667 -306 -62.667 -476 -108l-44 -4c-45.333 0 -72 33.333 -80 100c0 37.333 14.667 146.666 44 327.999c-29.333 21.333 -44 45.333 -44 72v4c0 26.667 24 64 72 112c17.333 24 38.666 36 63.999 36l52 -20
c110.667 0 266.667 25.333 468 76c27.333 13.333 47.333 20 60 20z" />
    <glyph glyph-name="six" unicode="6" horiz-adv-x="615" 
d="M375 1040c36.667 0 59.332 -24 67.999 -72v-4c0 -27.333 -22.667 -59.333 -68 -96c-109.333 -162 -164 -254 -164 -276v-4l124 16h36c94.667 0 189.334 -34.667 284.001 -104c29.333 -31.333 44 -63.333 44 -96v-12c0 -56 -76 -149.333 -228 -280
c-102.667 -74.667 -184 -112 -244 -112c-109.333 -0 -189.333 61.333 -240 184c-11.333 22.667 -19.333 62.667 -24 120v28c0 168 102.667 388 308 660c28 32 62.667 48 104 48zM126.998 368l0.000976562 -27.999c0 -114.667 30.667 -172 92 -172h12
c74 9.33301 170 82.666 288 219.999v8c-52 29.333 -100 44 -144 44h-12c-92.667 0 -171.334 -24 -236.001 -72z" />
    <glyph glyph-name="seven" unicode="7" horiz-adv-x="876" 
d="M786 1002l7.99805 -0.000976562c66.667 -7.33301 100 -35.333 100 -84c0 -42 -40 -82 -120 -120c-59.333 -83.333 -114 -192.666 -164 -327.999l4 -4h12l152 4c40 0 64 -29.333 72 -88c0 -50.667 -52 -76 -156 -76l-156 -4c-31.333 -58 -84.666 -178 -159.999 -360
c-21.333 -21.333 -42.666 -32 -63.999 -32c-56 13.333 -84 41.333 -84 84c13.333 48.667 53.333 148.667 120 300v8h-100c-46.667 0 -78.667 20 -96 60l-4 20c0 48.667 33.333 76.667 100 84h172l144 312l-4 4h-36c-47.333 0 -170 12 -368 36l-4 -4l24 -148
c0 -40 -28 -66.667 -84 -80c-54.667 0 -86.667 56 -96 168c0 22 -12 74 -36 156c0 46 32 74 96 84l460 -48h88c70 0 114 12 132 36c11.333 13.333 27.333 20 48 20z" />
    <glyph glyph-name="eight" unicode="8" horiz-adv-x="734" 
d="M134 748c0 -52.667 86.667 -127.333 260 -224h4v76c0 149.333 -32 224 -96 224c-74.667 0 -130.667 -25.333 -168 -76zM214 404.001v-8c0 -114.667 46.667 -172 140 -172c34.667 0 93.334 13.333 176.001 40v12c-60.667 12.667 -107.334 34 -140.001 64l-160 88h-4
c-8 -2.66699 -12 -10.667 -12 -24zM286 988.001c136.667 0 223.333 -77.3311 260 -231.998c10.667 -64 16 -110.667 16 -140l-4 -176c138.667 -52.667 208 -99.334 208 -140.001c6 0 10 -12 12 -36v-4c0 -76.667 -126.667 -142 -380 -196l-48 -4
c-124.667 0 -214 57.333 -268 172c-16 40 -26.667 86.667 -32 140c0 55.333 13.333 110 40 164c-80 71.333 -120 138 -120 200c0 115.333 85.333 196.666 256 243.999z" />
    <glyph glyph-name="nine" unicode="9" horiz-adv-x="644" 
d="M526 928c42 0 82.001 -23.998 120.001 -71.998c26.667 -38.667 40 -77.334 40 -116.001v-12c0 -149.333 -97.333 -364 -292 -644c-14.667 -50.667 -36 -76 -64 -76l-4 -4l-12 -4c-50.667 10.667 -76 36 -76 76h-4c0 47.333 30.667 112.666 92 195.999l16 36h-148
c-114 0 -186 44 -216 132l-8 40c0 177.333 112 313.333 336 408c97.333 26.667 170.666 40 219.999 40zM134.001 488.002c0 -10.667 23.999 -16 71.999 -16h12c160 0 240 8 240 24c42.667 89.333 64 168 64 236v4c0 14 -4 22 -12 24h-12
c-135.333 0 -248.666 -58.667 -339.999 -176c-16 -35.333 -24 -67.333 -24 -96z" />
    <glyph glyph-name="colon" unicode=":" horiz-adv-x="210" 
d="M80 803c56 0 84 -50.667 84 -152l4 -4c-11.333 -53.333 -38 -80 -80 -80h-4c-53.333 0 -80 38.667 -80 116l-4 4c5.33301 77.333 32 116 80 116zM118 359c52 0 81.334 -46.668 88.001 -140.001l8 -60c0 -39.333 -26.667 -64.666 -80 -75.999
c-54.667 0 -85.334 53.333 -92.001 160l-4 44c0 38.667 26.667 62.667 80 72z" />
    <glyph glyph-name="semicolon" unicode=";" horiz-adv-x="172" 
d="M96 874h4c44 0 69.333 -28 76 -84c0 -93.333 -14.667 -140 -44 -140c-12 -10.667 -26.667 -16 -44 -16c-40 0 -65.333 26.667 -76 80h-4l4 4v8c0 98.667 28 148 84 148zM78 484c52.667 0 91.333 -49.332 116 -147.999v-20c0 -92.667 -36 -159.334 -108 -200.001l-32 -4
c-42.667 0 -66.667 29.333 -72 88c0 13.333 14.667 37.333 44 72l4 16v36l-28 60l-4 24c0 42.667 26.667 68 80 76z" />
    <glyph glyph-name="semicolon" unicode="&#x37e;" horiz-adv-x="172" 
d="M96 874h4c44 0 69.333 -28 76 -84c0 -93.333 -14.667 -140 -44 -140c-12 -10.667 -26.667 -16 -44 -16c-40 0 -65.333 26.667 -76 80h-4l4 4v8c0 98.667 28 148 84 148zM78 484c52.667 0 91.333 -49.332 116 -147.999v-20c0 -92.667 -36 -159.334 -108 -200.001l-32 -4
c-42.667 0 -66.667 29.333 -72 88c0 13.333 14.667 37.333 44 72l4 16v36l-28 60l-4 24c0 42.667 26.667 68 80 76z" />
    <glyph glyph-name="less" unicode="&#x3c;" horiz-adv-x="622" 
d="M487 965l3.99902 -0.000976562c50.667 -9.33301 76 -34.666 76 -75.999v-4c0 -50.667 -113.333 -172 -340 -364c127.333 -76.667 254 -159.334 380 -248.001c30.667 0 50.667 -26.667 60 -80v-4c0 -39.333 -26.667 -64.666 -80 -75.999c-30.667 0 -132 61.333 -304 184
c-114.667 72 -210.667 117.333 -288 136c-21.333 22 -32 43.333 -32 64v8c0 42 44 82 132 120c79.333 52.667 191.333 158 336 316c20.667 16 39.334 24 56.001 24z" />
    <glyph glyph-name="equal" unicode="=" horiz-adv-x="674" 
d="M427 707l24 -0.000976562c128 0 202.667 -14.667 224 -44l20 -52c0 -31.333 -25.333 -56.666 -76 -75.999l-176 8c-113.333 0 -245.333 -4 -396 -12h-4c-41.333 0 -69.333 17.333 -84 52l-4 28c0 56 52 84 156 84c34.667 8 140 12 316 12zM426 404.999h3.99902
c95.333 0 154 -9.33301 176 -28c29.333 -31.333 44 -55.333 44 -72c0 -32 -30.667 -56 -92 -72l-128 8h-36l-264 -16c-43.333 0 -70 28 -80 84c0 47.333 30.667 74 92 80c102.667 10.667 197.334 16 284.001 16z" />
    <glyph glyph-name="greater" unicode="&#x3e;" horiz-adv-x="674" 
d="M110 966c26.667 0 65.332 -33.332 115.999 -99.999c136.667 -132.667 255.334 -212.667 356.001 -240c16 -7.33301 48 -12.666 96 -15.999c32 -24 48 -49.333 48 -76c-10 -58.667 -39.333 -88 -88 -88v-4l-20 4h-20c-46.667 0 -180 -92 -400 -276
c-79.333 -53.333 -128.666 -80 -147.999 -80c-53.333 8 -80 33.333 -80 76v8c0 37.333 42.667 78.666 128 123.999l292 232c-82.667 55.333 -153.334 107.333 -212.001 156c-98.667 92.667 -148 160.667 -148 204c0 41.333 26.667 66.666 80 75.999z" />
    <glyph glyph-name="question" unicode="?" horiz-adv-x="555" 
d="M443 1144c70 0 118.001 -30.667 144.001 -92l4 -24c0 -42.667 -64 -125.334 -192 -248.001c-76 -103.333 -118.667 -175.333 -128 -216v-4l20 -4h20l84 4c45.333 -16 68 -42.667 68 -80c0 -47.333 -32 -74 -96 -80l-64 -4h-32c-80 0 -134.667 34.667 -164 104l-8 56
c8.66699 66.667 58 164 148 292c61.333 63.333 92 100.666 92 111.999c-54.667 -13.333 -141.334 -54.666 -260.001 -123.999l-32 -4c-56 8.66699 -84 35.334 -84 80.001c0 37.333 46.667 77.333 140 120c138 74.667 251.333 112 340 112zM335.001 328h4
c56 0 84 -44 84 -132c13.333 -24 20 -48 20 -72c0 -34 -26.667 -58 -80 -72c-45.333 0 -76 38.667 -92 116c-8 36 -12 66.667 -12 92c0 35.333 25.333 58 76 68z" />
    <glyph glyph-name="at" unicode="@" horiz-adv-x="929" 
d="M284 586v-12c12 -21.333 37.333 -32 76 -32c46 0 95.333 22.667 148 68l28 124v4h-4l-24 -4l-44 4c-67.333 0 -126 -44 -176 -132zM520 1114l4 -3.99707h16c157.333 0 278.666 -58.667 363.999 -176c32 -63.333 48 -131.333 48 -204c0 -109.333 -50.667 -212 -152 -308
c-23.333 -18.667 -60.666 -33.334 -111.999 -44.001l-4 4h-28c-40 0 -80 14.667 -120 44h-4c-76.667 -32 -134 -48 -172 -48h-12c-84 0 -152 37.333 -204 112c-16 32.667 -24 63.334 -24 92.001v4c0 109.333 77.333 206.666 232 291.999c51.333 16 91.333 24 120 24
c42 -10.667 70 -22.667 84 -36h8c26 32 50 48 72 48c53.333 -12 80 -37.333 80 -76l-52 -284v-8h20c19.333 0 43.333 24 72 72c21.333 43.333 32 83.333 32 120c0 95.333 -38.667 156.666 -116 183.999c-44 16 -84 24 -120 24h-36c-107.333 0 -218 -46.667 -332 -140
c-50.667 -69.333 -76 -153.333 -76 -252v-16c0 -132 68 -224 204 -276l68 -8h8c154.667 0 300 57.333 436 172l40 12c56 -10 84 -38 84 -84c0 -58 -106.667 -134 -320 -228c-84 -24 -158.667 -36 -224 -36h-8c-183.333 0 -319.333 85.333 -408 256
c-32 83.333 -48 144.666 -48 183.999l4 24v12l-4 4c15.333 119.333 38 206 68 260c52.667 104 159.334 185.333 320.001 244c81.333 24 138.666 36 171.999 36h16z" />
    <glyph glyph-name="A" unicode="A" horiz-adv-x="749" 
d="M344 1060c55.333 0 135.333 -121.33 240 -363.997l152 -276c93.333 0 140 -32 140 -96c0 -22 -18.667 -46 -56 -72l48 -172c0 -42.667 -28 -69.334 -84 -80.001c-52 0 -88 57.333 -108 172c-17.333 40 -29.333 60 -36 60c-156 0 -325.333 -21.333 -508 -64
c-12 -12.667 -21.333 -39.334 -28 -80.001c-10.667 -22.667 -33.334 -38.667 -68.001 -48c-45.333 0 -74.666 32 -87.999 96v8c34 112 91.333 260 172 444c37.333 145.333 84 286.666 140 423.999c24 32 52 48 84 48zM348 788.003l-80 -272l-64 -160h4l348 40v4l-200 388h-8
z" />
    <glyph glyph-name="B" unicode="B" horiz-adv-x="780" 
d="M373 1036c52.667 0 82 -32.001 88 -96.001v-4c0 -34 -29.333 -90 -88 -168v-8h4c127.333 48 222 72 284 72h32c101.333 -5.33301 152 -34.666 152 -87.999c4 0 8 -13.333 12 -40c0 -9.33301 -18.667 -48 -56 -116c-51.333 -118 -150 -272.667 -296 -464
c-63.333 -82.667 -111.333 -124 -144 -124c-20.667 0 -40.667 8 -60 24l-48 -4c-40 0 -80 60 -120 180l-144 368l-116 280c-34.667 27.333 -52 55.333 -52 84c0 47.333 32 75.333 96 84l80 -20h52c179.333 26.667 287.333 40 324 40zM65 815.999l48 -128h8
c30.667 35.333 66.667 90 108 164v4c-109.333 -16.667 -164 -30 -164 -40zM201 479.999c55.333 -165.333 96.667 -269.334 124 -312.001c6.66699 0 44 45.333 112 136c144 206.667 216 325.334 216 356.001v4h-8c-88 0 -234.667 -58.667 -440 -176l-4 -4v-4z" />
    <glyph glyph-name="C" unicode="C" horiz-adv-x="742" 
d="M376 840c139.333 0 225.998 -32.001 259.998 -96.001l4 -24c0 -40 -25.333 -64 -76 -72c-59.333 18.667 -120.666 28 -183.999 28c-134.667 0 -217.334 -37.333 -248.001 -112c-13.333 -33.333 -20 -77.333 -20 -132c0 -124.667 44 -208.667 132 -252
c24.667 -10.667 48.667 -16 72 -16c96.667 0 219.334 62.667 368.001 188c36.667 66.667 66 100 88 100l20 8c53.333 -13.333 80 -40 80 -80v-4c0 -26.667 -26.667 -74.667 -80 -144c-132 -114.667 -254.667 -186.667 -368 -216l-100 -16
c-157.333 0 -274.666 86.667 -351.999 260c-16 52 -24 112 -24 180c0 178.667 69.333 297.334 208 356.001c62 29.333 135.333 44 220 44z" />
    <glyph glyph-name="D" unicode="D" horiz-adv-x="809" 
d="M55 792c248 -26 412.001 -52.666 492.001 -79.999c157.333 -56.667 258.666 -110 303.999 -160c6.66699 0 13.334 -16 20.001 -48c-18.667 -70 -81.334 -151.333 -188.001 -244c-126 -100.667 -267.333 -186 -424 -256l-24 -4c-56 11.333 -84 36.666 -84 75.999l4 52
c-112 280 -178.667 468 -200 564c0 44 33.333 77.333 100 100zM147.001 620.001v-7.99902c78 -222.667 130 -357.334 156 -404.001c78.667 33.333 186.667 104 324 212c26.667 33.333 40 54.666 40 63.999c-50.667 34.667 -146.667 69.334 -288 104.001z" />
    <glyph glyph-name="E" unicode="E" horiz-adv-x="727" 
d="M613 1031l38.9971 -0.000976562c44.667 0 74 -21.667 88 -65v-16c0 -45.333 -29.333 -70.666 -88 -75.999c-143.333 0 -329.333 -20.667 -558 -62c18.667 -136 30.334 -204 35.001 -204c96 26 229.333 55.667 400 89c58.667 -14 88 -39.667 88 -77
c-20 -56.667 -53.333 -85 -100 -85c-220.667 -43.333 -348.667 -74 -384 -92c10.667 -187.333 28.334 -281 53.001 -281l31 -8h43c24 0 138 43.667 342 131l161 58c54 -14.667 81 -41.667 81 -81c0 -49.333 -62.667 -90.333 -188 -123c-164 -72 -282 -118 -354 -138l-46 -8
c-133.333 0 -216.666 56.333 -249.999 169c-15.333 88 -32 266.333 -50 535l-31 153c27.333 87.333 67 131 119 131l50 -7c244.667 38 417.667 57 519 57z" />
    <glyph glyph-name="F" unicode="F" horiz-adv-x="787" 
d="M91 800l328.001 -15.999l300 8c77.333 -8.66699 116 -38 116 -88c-13.333 -53.333 -37.333 -80 -72 -80l-40 4l-256 -8h-100l-208 12v-4l44 -204h12c42 0 139.333 17.333 292 52c45.333 0 72 -29.333 80 -88c0 -52.667 -53.333 -83.334 -160 -92.001
c0 -6 -65.333 -19.333 -196 -40v-4l28 -176c-8 -50.667 -33.333 -76 -76 -76h-4c-52 -0 -84 49.333 -96 148c-42.667 284.667 -81.334 466 -116.001 544l-4 12c0 52.667 42.667 84.667 128 96z" />
    <glyph glyph-name="G" unicode="G" horiz-adv-x="817" 
d="M468 1000l27.998 -0.00195312c115.333 0 210 -45.333 284 -136l8 -32c0 -39.333 -26.667 -64.666 -80 -75.999c-19.333 0 -64.666 22.667 -135.999 68c-15.333 8 -50 12 -104 12c-169.333 0 -272 -52 -308 -156c-25.333 -40 -40 -77.333 -44 -112v-48
c0 -74.667 37.333 -128 112 -160l36 -4h8c130 0 254 42.667 372 128v12l-8 8l-120 -8c-72 14.667 -108 45.334 -108 92.001c14.667 50.667 38.667 76 72 76l56 -4l188 16c69.333 -18.667 104 -53.334 104 -104.001l-20 -68c10.667 -22.667 16 -41.334 16 -56.001
c0 -13.333 -8 -36 -24 -68c-32 -169.333 -48 -278.666 -48 -327.999c-22 -34.667 -48.667 -52 -80 -52c-53.333 10.667 -80 37.334 -80 80.001v4c0 48.667 6.66699 108.667 20 180v8c-118 -53.333 -232.667 -80 -344 -80h-8c-125.333 0 -220 70.667 -284 212
c-18.667 57.333 -28 104 -28 140c0 97.333 50.667 208 152 332c76.667 82.667 199.334 124 368.001 124z" />
    <glyph glyph-name="H" unicode="H" horiz-adv-x="817" 
d="M708 992c56 0 83.998 -60 83.998 -180c7.33301 -208 15.333 -312 24 -312l-4 -52c5.33301 -178.667 13.333 -301.334 24 -368.001c0 -40 -28 -66.667 -84 -80c-51.333 0 -80.666 41.333 -87.999 124l-12 228h-4c-242.667 -20 -376 -48 -400 -84l32 -148
c0 -40 -28 -66.667 -84 -80c-51.333 0 -84.666 54.667 -99.999 164c-4 14 -20 28.667 -48 44c-16 18.667 -24 37.334 -24 56.001v8c0 10 8 32.667 24 68v4c-66.667 209.333 -100 321.333 -100 336c0 38 26.667 64.667 80 80c53.333 0 90.666 -57.333 111.999 -172
c40 -122 62.667 -184.667 68 -188h4c184.667 51.333 327.334 78 428.001 80l-16 356c0 77.333 28 116 84 116z" />
    <glyph glyph-name="I" unicode="I" horiz-adv-x="502" 
d="M517 708c35.333 0 59.334 -26.668 72.001 -80.001c0 -56 -53.333 -88 -160 -96l-116 -32l32 -220l132 8c59.333 0 96.666 -22.667 111.999 -68v-20c-10.667 -53.333 -37.334 -80 -80.001 -80l-48 4c-219.333 -13.333 -372.666 -32 -459.999 -56h-4
c-56 8.66699 -84 35.334 -84 80.001c0 52 65.333 88 196 108l72 12c-11.333 125.333 -23.333 188 -36 188l-192 -44c-50.667 10.667 -76 36 -76 76h-4c0 46.667 37.333 80 112 100c260 64 432 104 516 120h16z" />
    <glyph glyph-name="J" unicode="J" horiz-adv-x="621" 
d="M571 892h3.99902c66.667 0 100 -26.667 100 -80h4c-4.66699 -22 -16.667 -47.333 -36 -76c-18.667 -70.667 -40 -184 -64 -340c-26 -116 -55.333 -201.333 -88 -256c-54 -93.333 -126 -140 -216 -140c-55.333 10.667 -102 32 -140 64c-74.667 86 -112 148.667 -112 188v4
c10 61.333 31.333 92 64 92h4c42.667 0 82.667 -41.333 120 -124c26.667 -37.333 52 -56 76 -56h16c15.333 0 38 33.333 68 100c38.667 101.333 69.334 244 92.001 428h-4c-36 0 -158.667 -36 -368 -108h-8c-44 0 -69.333 28 -76 84v4c0 46 68 87.333 204 124
c220 61.333 340 92 360 92z" />
    <glyph glyph-name="K" unicode="K" horiz-adv-x="682" 
d="M381 932l4.00098 -0.00390625c40.667 0 66 -26.667 76 -80c-22 -106 -48.667 -190 -80 -252v-8c152 112 237.333 168 256 168h8c42 0 68.667 -28 80 -84c0 -8.66699 -9.33301 -32.667 -28 -72c-13.333 -73.333 -20 -146.666 -20 -219.999v-56
c0 -73.333 16 -154.666 48 -243.999v-4c0 -43.333 -28 -70 -84 -80c-72.667 0 -116.667 114.667 -132 344l4 124h4l-8 12c-76 -57.333 -154.667 -110.666 -236 -159.999v-8c61.333 -72 92 -120 92 -144v-4c-10.667 -53.333 -37.334 -80 -80.001 -80h-4
c-40.667 0 -88.667 48 -144 144c-127.333 170 -198 328.667 -212 476c12.667 58.667 40.667 88 84 88h4c58.667 0 88 -46.667 88 -140c24 -90.667 41.333 -136 52 -136c88 160.667 132 263.334 132 308.001c20 72 52 108 96 108z" />
    <glyph glyph-name="L" unicode="L" horiz-adv-x="584" 
d="M191 968c48 0 76 -40 84 -120v-56c0 -143.333 -33.333 -330 -100 -560c90.667 30 206.667 59.333 348 88l-32 124c0 47.333 29.333 74 88 80c57.333 0 97.333 -84 120 -252c0 -26 -26.667 -58 -80 -96c-192.667 -40.667 -326 -76.667 -400 -108
c-11.333 0 -52.666 -21.333 -123.999 -64l-40 -4c-46.667 0 -77.334 22.667 -92.001 68v16l112 408c24 127.333 36 235.333 36 324v60c5.33301 61.333 32 92 80 92z" />
    <glyph glyph-name="M" unicode="M" horiz-adv-x="937" 
d="M846 836c56 -14 83.998 -41.9971 83.998 -83.9971c16 -92 24 -213.333 24 -364v-60c0 -74.667 9.33301 -157.334 28 -248.001c0 -44.667 -29.333 -71.334 -88 -80.001c-36.667 0 -63.334 24 -80.001 72c-18.667 91.333 -28 246 -28 464h-4
c-82 -95.333 -158 -208.666 -228 -339.999c-21.333 -61.333 -54.666 -92 -99.999 -92c-57.333 0 -138.666 96 -243.999 288c-20.667 34 -34 51.333 -40 52c-8 -44 -16 -142.667 -24 -296c-21.333 -37.333 -52 -56 -92 -56c-37.333 0 -62.666 26.667 -75.999 80l28 328
l-12 176c0 45.333 33.333 74.666 100 87.999c60.667 0 164.667 -128 312 -384l32 -44h4c8 5.33301 33.333 46.666 76 123.999l260 356c11.333 8 34 14.667 68 20z" />
    <glyph glyph-name="N" unicode="N" horiz-adv-x="607" 
d="M590 916c58.667 0 87.9971 -57.333 87.9971 -172c0 -106.667 16 -248 48 -424v-24c0 -34 -25.333 -66 -76 -96c-16 -2 -24 -4.66699 -24 -8c-18.667 0 -82.667 37.333 -192 112l-296 164v-16c90.667 -199.333 136 -306 136 -320c-13.333 -53.333 -42.666 -80 -87.999 -80
h-4c-39.333 0 -76.666 52 -111.999 156c-101.333 237.333 -169.333 373.333 -204 408l-8 36c14.667 64 44 96 88 96c16 0 48 -16 96 -48c94.667 -43.333 257.334 -131.333 488.001 -264h8v4c-18.667 152 -28 286.667 -28 404c0 36 26.667 60 80 72z" />
    <glyph glyph-name="O" unicode="O" horiz-adv-x="734" 
d="M482 980c90.667 0 172.001 -52 244.001 -156c22.667 -42.667 38.667 -106.667 48 -192c0 -106 -38.667 -232.667 -116 -380c-56 -104 -158.667 -181.333 -308 -232c-40.667 -13.333 -72.667 -20 -96 -20h-8c-121.333 0 -201.333 64 -240 192c-24 96 -36 173.333 -36 232
v12c0 184 101.333 346.667 304 488c77.333 37.333 146.666 56 207.999 56zM134.001 424c0 -88 18.666 -169.332 55.999 -243.999c10.667 -10.667 25.334 -16 44.001 -16c89.333 0 177.333 45.333 264 136c72 126 108 228.667 108 308v24c0 92 -32 152 -96 180l-36 4
c-102.667 0 -202.667 -72 -300 -216c-26.667 -56.667 -40 -115.334 -40 -176.001z" />
    <glyph glyph-name="P" unicode="P" horiz-adv-x="652" 
d="M595 888c42.667 0 86.668 -22.667 132.001 -68l12 -44v-28c0 -82.667 -97.333 -204 -292 -364l-180 -96v-4c42.667 -122 64 -191.333 64 -208c0 -40.667 -28 -66 -84 -76c-50.667 0 -89.334 60 -116.001 180c-114 325.333 -172.667 517.333 -176 576
c0 44 28 69.333 84 76h4c13.333 0 33.333 -12 60 -36c203.333 61.333 367.333 92 492 92zM151.001 640c37.333 -130.667 60 -196 68 -196c116.667 42 226 131.333 328 268v8c-93.333 0 -225.333 -26.667 -396 -80z" />
    <glyph glyph-name="Q" unicode="Q" horiz-adv-x="772" 
d="M455 968l16.001 -4l24 4c62 -12 108.667 -32 140 -60c88 -86.667 132 -202.667 132 -348c0 -66 -34.667 -148.667 -104 -248c-4.66699 0 -7.33398 -6.66699 -8.00098 -20c52.667 -71.333 100.667 -131.333 144 -180c0 -18.667 2.66699 -28 8 -28
c-13.333 -56 -41.333 -84 -84 -84c-34.667 -0 -96 57.333 -184 172h-8c-97.333 -77.333 -186.666 -116 -267.999 -116c-169.333 0 -269.333 137.333 -300 412v8c0 36 12 96 36 180c0 42 46.667 106 140 192c61.333 55.333 166.666 95.333 315.999 120zM127.001 476
c20 -168 58.667 -251.997 116 -251.997h40c46.667 5.33301 94.667 30.666 144 75.999l4 12c-96 99.333 -144 162 -144 188l-4 12c12 53.333 37.333 80 76 80c31.333 0 78 -38.667 140 -116l44 -44c40 41.333 60 93.333 60 156c-9.33301 118 -44 188.667 -104 212h-40
c-86 0 -170 -34.667 -252 -104c-32 -30.667 -48 -61.334 -48 -92.001c-21.333 -50.667 -32 -93.334 -32 -128.001z" />
    <glyph glyph-name="R" unicode="R" horiz-adv-x="667" 
d="M71 574l100 -139.999h12c78 101.333 126 194.666 144 279.999v4h-4c-79.333 -30 -163.333 -76.667 -252 -140v-4zM371 902.001c69.333 0 110.668 -20 124.001 -60l16 -68l-32 -128l4 -4h4c73.333 45.333 120 68 140 68c51.333 0 84.666 -34.667 99.999 -104
c2 -155.333 22 -331.333 60 -528l28 -84c-10.667 -56 -37.334 -84 -80.001 -84h-8c-61.333 0 -102.666 90.667 -123.999 272c-10.667 40.667 -22.667 144.667 -36 312h-12c-143.333 -97.333 -239.333 -172 -288 -224c42.667 -85.333 64 -136 64 -152v-8
c0 -44.667 -28 -71.334 -84 -80.001c-42.667 0 -77.334 41.333 -104.001 124c-71.333 132.667 -148.666 252.667 -231.999 360l-16 92c0 64.667 129.333 155.334 388 272.001c20.667 10.667 50 18.667 88 24z" />
    <glyph glyph-name="S" unicode="S" horiz-adv-x="630" 
d="M478 1094c56.667 0 94.002 -64 112.002 -192c30 -120 62 -200 96 -240c8 0 13.333 -14.667 16 -44c0 -47.333 -30.667 -74 -92 -80c-22 0 -52.667 25.333 -92 76c-158.667 138.667 -250.667 208 -276 208l-40 4h-36c-40.667 0 -67.334 -8 -80.001 -24v-8
c32.667 -50.667 88.667 -86.667 168 -108c192 -74.667 325.333 -148 400 -220c40 -56.667 60 -114 60 -172c-8 -52.667 -25.333 -96.667 -52 -132c-114.667 -93.333 -221.334 -140 -320.001 -140c-113.333 0 -216 69.333 -308 208c-53.333 106 -80 198 -80 276
c0 34 26.667 58 80 72c50.667 0 80 -42.667 88 -128c26.667 -106 68 -180.667 124 -224c36 -24 64 -36 84 -36h36c120 32 180 66.667 180 104v20c0 62.667 -146.667 146.667 -440 252c-125.333 72 -188 158.667 -188 260c12 50 41.333 91.333 88 124
c59.333 27.333 118 42 176 44c78 0 156.667 -26.667 236 -80v4l-24 84c10 58.667 38 88 84 88v4z" />
    <glyph glyph-name="T" unicode="T" horiz-adv-x="674" 
d="M665 884c53.333 -10.667 80.001 -37.3311 80.001 -79.998v-4c0 -50.667 -54.667 -86.667 -164 -108c-120 -45.333 -180 -76 -180 -92c56 -114 100 -238 132 -372l28 -148c0 -43.333 -28 -70 -84 -80c-56.667 0 -90 61.333 -100 184
c-34.667 139.333 -73.334 247.333 -116.001 324l-12 8h-4c-114 -58.667 -190 -88 -228 -88c-47.333 5.33301 -78 36 -92 92c0 41.333 34.667 74.666 104 99.999l48 -4l328 180c38 21.333 124.667 50.666 260 87.999z" />
    <glyph glyph-name="U" unicode="U" horiz-adv-x="779" 
d="M176 1024c45.333 0 71.999 -30.666 79.999 -91.999v-4c0 -122.667 -42.667 -372 -128 -748v-4c201.333 19.333 372 42 512 68c-53.333 126 -93.333 302 -120 528c-8 35.333 -14.667 88.666 -20 159.999c0 36.667 26.667 62 80 76c45.333 0 73.333 -30.667 84 -92
c32 -256 66.667 -441.333 104 -556c45.333 -85.333 68 -142.666 68 -171.999c0 -68 -117.333 -113.333 -352 -136l-436 -52c-72 19.333 -108 52.666 -108 99.999c104 440.667 156 724.667 156 852c22.667 48 49.334 72 80.001 72z" />
    <glyph glyph-name="V" unicode="V" horiz-adv-x="712" 
d="M641 980c38.667 0 62.666 -25.334 71.999 -76.001h4l-108 -668v-20l40 -136c0 -40 -28 -66.667 -84 -80c-54 0 -96.667 60 -128 180c-72 122.667 -214.667 313.334 -428 572.001c0 5.33301 -21.333 24 -64 56l-12 48c12.667 58.667 40.667 88 84 88s122 -80 236 -240
l216 -268h4l88 500c18.667 29.333 45.334 44 80.001 44z" />
    <glyph glyph-name="W" unicode="W" horiz-adv-x="907" 
d="M353 695c42.667 0 74.667 -50.6709 96 -152.004c83.333 -194.667 158 -333.334 224 -416.001l4 -4h4c47.333 64.667 91.333 171.334 132 320.001c13.333 50 26.666 116.667 39.999 200c20.667 29.333 46 44 76 44c36.667 0 63.334 -24 80.001 -72v-4
c0 -82 -40 -234 -120 -456c-70.667 -138.667 -132 -208 -184 -208c-95.333 0 -175.333 66.667 -240 200c-33.333 52 -60 101.333 -80 148h-12c-17.333 -93.333 -49.333 -162.666 -96 -207.999c-15.333 -13.333 -34 -22.666 -56 -27.999c-62 16.667 -102 39.334 -120 68.001
c-102.667 162 -161.334 287.333 -176.001 376c6.66699 56 32 84 76 84v4c48 0 84 -46.667 108 -140c48.667 -104.667 78 -160.667 88 -168c18 22.667 35.333 109.334 52 260.001c6.66699 101.333 37.334 152 92.001 152h12z" />
    <glyph glyph-name="X" unicode="X" horiz-adv-x="667" 
d="M677 772c56 -10 83.999 -36.667 83.999 -80c0 -34.667 -44 -84 -132 -148l-212 -176c4 -11.333 52 -50 144 -116c26.667 -42 40 -70 40 -84c0 -33.333 -22.667 -54.666 -68 -63.999c-42.667 0 -124 50.667 -244 152h-12c-106.667 -88 -176 -165.333 -208 -232
c-19.333 -16 -39.333 -24 -60 -24c-44 0 -69.333 28 -76 84v4c0 46.667 76 142.667 228 288c-67.333 79.333 -124.666 159.333 -171.999 240c-24 17.333 -36 38.666 -36 63.999c0 42 30.667 68.667 92 80c44 0 86.667 -45.333 128 -136c46 -66 86 -114 120 -144
c86 62.667 204.667 158.667 356 288z" />
    <glyph glyph-name="Y" unicode="Y" horiz-adv-x="704" 
d="M678 988h3.99902c56 0 84 -49.333 84 -148c34.667 -153.333 52 -274.666 52 -363.999h4l-4 -4v-20c0 -94.667 -41.333 -198.667 -124 -312c-80 -93.333 -168 -140 -264 -140c-148 0 -294.667 84 -440 252l-20 56c10.667 45.333 25.334 68 44.001 68l36 4
c30 -6.66699 82 -45.334 156 -116.001c68.667 -58 136.667 -90 204 -96h40c67.333 0 130 68 188 204l16 92h-8c-73.333 -88 -161.333 -132 -264 -132c-83.333 0 -162 41.333 -236 124c-44.667 68 -94 182.667 -148 344c13.333 56 41.333 84 84 84h8
c50 0 86 -54.667 108 -164c50 -146.667 107.333 -220 172 -220h44c78 0 139.333 86.667 184 260l4 48l-12 84c14 64 43.333 96 88 96z" />
    <glyph glyph-name="Z" unicode="Z" horiz-adv-x="929" 
d="M741 912c38 0 64.667 -26.666 80 -79.999c0 -32.667 -30.667 -80.667 -92 -144c-27.333 -16.667 -79.333 -83.334 -156 -200.001c-34 -58 -86 -130 -156 -216v-4h4l168 4l164 -8h44v4l-44 168c14 56 42 84 84 84c53.333 0 88 -54.667 104 -164c13.333 -28 24 -68 32 -120
c-18 -80 -48.667 -120 -92 -120c0 -7.33301 -18.667 -12.666 -56 -15.999h-88l-140 8c-254 0 -396.667 -24 -428 -72c-21.333 -19.333 -45.333 -31.333 -72 -36c-53.333 13.333 -80 40 -80 80v8c0 37.333 37.333 78.666 112 123.999c158 156 254 266.667 288 332v8
c-184.667 -40 -296.667 -60 -336 -60c-64 6 -96 31.333 -96 76c0 50.667 37.333 78.667 112 84c336 65.333 504 117.333 504 156c55.333 69.333 102 104 140 104z" />
    <glyph glyph-name="bracketleft" unicode="[" horiz-adv-x="360" 
d="M184 1149c98.667 -9.33301 148 -26.668 148 -52.001c6 0 10 -12 12 -36v-4c0 -48 -36 -76 -108 -84v-36c0 -164 -22.667 -382.667 -68 -656h4c14 0 51.333 9.33301 112 28c56 -13.333 84 -41.333 84 -84c0 -52.667 -49.333 -86 -148 -100l-92 -28
c-77.333 4.66699 -116 22 -116 52c-8 14 -12 32.667 -12 56c-0 56.667 17.333 195.334 52 416.001c13.333 114.667 20 228 20 340l-4 56c0 60 21.333 98.667 64 116z" />
    <glyph glyph-name="backslash" unicode="\" horiz-adv-x="569" 
d="M50 1095c48.667 0 139.333 -110.665 272 -331.998c144 -236.667 248 -434 312 -592v-12c-8 -56 -36 -84 -84 -84c-44 0 -77.333 40 -100 120c-138.667 283.333 -294.667 544.666 -468 783.999c-5.33301 0 -9.33301 13.333 -12 40c0 41.333 26.667 66.666 80 75.999z" />
    <glyph glyph-name="bracketright" unicode="]" horiz-adv-x="292" 
d="M181 1129c44.667 0 73.999 -33.333 87.999 -100l-4 -364v-216c0 -97.333 8 -182.666 24 -255.999c0 -50 -37.333 -82 -112 -96c-67.333 9.33301 -128.666 44 -183.999 104l-8 32c0 48 29.333 76 88 84l32 -8l4 4l-8 160v276l4 188
c-77.333 5.33301 -116 30.666 -116 75.999v8c8.66699 53.333 42 80 100 80z" />
    <glyph glyph-name="asciicircum" unicode="^" horiz-adv-x="704" 
d="M302 1138c101.333 0 186.666 -80.001 255.999 -240.001c20.667 -34 70 -136.667 148 -308c34.667 -61.333 52 -101.333 52 -120c0 -43.333 -28 -70 -84 -80c-46 0 -90 57.333 -132 172c-91.333 194 -158 323.333 -200 388l-4 4h-4
c-113.333 -136.667 -178.666 -240.667 -195.999 -312c-33.333 -32 -62.666 -48 -87.999 -48c-53.333 10.667 -80 37.334 -80 80.001v4c0 38 73.333 158 220 360c47.333 66.667 84.666 100 111.999 100z" />
    <glyph glyph-name="underscore" unicode="_" horiz-adv-x="854" 
d="M813 266c40 0 66.668 -28 80.001 -84c0 -50.667 -34.667 -78.667 -104 -84c-396 -74.667 -621.333 -112 -676 -112h-36c-46.667 0 -77.334 22.667 -92.001 68v16c0 53.333 40 80 120 80c46 0 282 38.667 708 116z" />
    <glyph glyph-name="grave" unicode="`" horiz-adv-x="210" 
d="M66 1089c36.667 0 70 -49.333 100 -148c40 -56 60 -93.333 60 -112c-11.333 -53.333 -38 -80 -80 -80c-45.333 0 -92 54.667 -140 164c-18.667 52.667 -28 86 -28 100c0 44 28 69.333 84 76h4z" />
    <glyph glyph-name="a" unicode="a" horiz-adv-x="652" 
d="M243 984l28 -0.00195312c95.333 0 190 -92 284 -276l72 -224c43.333 0 75.333 -24 96 -72c0 -28 -21.333 -57.333 -64 -88v-4c16 -129.333 24 -210.666 24 -243.999c0 -43.333 -29.333 -68.666 -88 -75.999c-44.667 0 -70 32 -76 96l-24 196h-4
c-53.333 0 -173.333 -37.333 -360 -112v-8l20 -60c-10.667 -50.667 -36 -76 -76 -76v-4c-61.333 0 -100 62.667 -116 188l-4 48c0 260 52 472 156 636c50.667 53.333 94.667 80 132 80zM119 355.998h4c86 30 199.333 63.333 340 100c-35.333 138.667 -70 230.667 -104 276
c-42 58.667 -74 88 -96 88c-41.333 0 -84 -108 -128 -324c-8 -37.333 -13.333 -84 -16 -140z" />
    <glyph glyph-name="b" unicode="b" horiz-adv-x="764" 
d="M219 1000c189.333 -6.66699 306.667 -55.998 352 -147.998c5.33301 -10.667 8 -25.334 8 -44.001v-28c0 -24.667 -21.333 -63.334 -64 -116.001v-8h72c138 0 228.667 -58.667 272 -176v-44c0 -84.667 -72 -182 -216 -292c-160 -96 -324 -144 -492 -144h-20
c-77.333 -0 -133.333 25.333 -168 76l-4 24c0 30.667 21.333 58.667 64 84v8c0 42 -36 226 -108 552l-12 96c0 46 58.667 92.667 176 140c60 13.333 106.667 20 140 20zM71.001 792.002c0 -37.333 17.333 -117.333 52 -240h4c132 99.333 224 175.333 276 228l4 20
c-38 24 -99.333 36 -184 36h-12c-93.333 -5.33301 -140 -20 -140 -44zM159.001 364.002l36.001 -196.001c158 0 307.333 61.333 448 184c34.667 46.667 52 77.334 52 92.001c0 32 -40 48 -120 48h-24c-170.667 0 -301.334 -42.667 -392.001 -128z" />
    <glyph glyph-name="c" unicode="c" horiz-adv-x="637" 
d="M282 784c39.333 0 91.3301 -13.333 155.997 -40c29.333 24 53.333 36 72 36c40.667 0 80.667 -49.333 120 -148c53.333 -79.333 80 -127.333 80 -144c-13.333 -56 -41.333 -84 -84 -84c-31.333 0 -71.333 33.333 -120 100c-96 74.667 -162.667 112 -200 112h-52
c-79.333 0 -150 -48 -212 -144c-16 -38.667 -24 -64 -24 -76v-48c0 -62.667 57.333 -121.334 172 -176.001l72 -8h8c109.333 0 212 33.333 308 100l28 4c43.333 0 70 -28 80 -84c0 -50.667 -76 -102.667 -228 -156c-71.333 -18.667 -136.666 -28 -195.999 -28
c-143.333 0 -264.666 69.333 -363.999 208c-24 38 -40 87.333 -48 148c0 148.667 73.333 271.334 220 368.001c74.667 40 145.334 60 212.001 60z" />
    <glyph glyph-name="d" unicode="d" horiz-adv-x="757" 
d="M35 940l16 -0.000976562c26 0 76.667 -32 152 -96c215.333 -154 387.333 -248.667 516 -284c112 -26.667 168 -54.667 168 -84l16 -44c0 -40 -29.333 -70.667 -88 -92c-79.333 -99.333 -159.333 -168.666 -240 -207.999c-144.667 -88 -283.334 -132 -416.001 -132
c-116 -0 -196 45.333 -240 136l-16 72c0 36 26.667 60 80 72h4c27.333 0 50 -13.333 68 -40h4v12c-21.333 132.667 -62.666 332.667 -123.999 600c0 58.667 33.333 88 100 88zM143 683.999l-0.000976562 -8h-4l104 -496l12 -4c176.667 45.333 311.334 121.333 404.001 228
c-157.333 59.333 -300 134 -428 224l-80 56h-8z" />
    <glyph glyph-name="e" unicode="e" horiz-adv-x="652" 
d="M301 868c84.667 0 171.334 -50.6699 260.001 -152.003c42.667 -61.333 64 -114.666 64 -159.999c-4.66699 -45.333 -23.334 -90.666 -56.001 -135.999c-53.333 -50.667 -154.666 -76 -303.999 -76c-48.667 0 -106 10.667 -172 32v-12c0 -88.667 40 -152.667 120 -192
l56 -8h20c106 7.33301 231.333 74 376 200l36 4c40 0 64 -26.667 72 -80c0 -56 -88 -130.667 -264 -224c-80.667 -42.667 -159.334 -64 -236.001 -64c-167.333 0 -279.333 96 -336 288c-8 41.333 -12 80 -12 116c0 168.667 72 307.334 216 416.001c50 32 103.333 48 160 48z
M125 551.997c28 -29.333 77.333 -44.001 148 -44.001c122.667 0 184 13.333 184 40v12c0 46.667 -44 93.334 -132 140.001l-32 4c-66.667 0 -122.667 -50.667 -168 -152z" />
    <glyph glyph-name="f" unicode="f" horiz-adv-x="517" 
d="M238 960c74 -8 159.337 -45.335 256.004 -112.002c58.667 -44 88 -84 88 -120v-4c0 -34 -26.667 -58 -80 -72c-22.667 0 -65.334 28 -128.001 84c-67.333 40 -119.333 60 -156 60h-12c-56 0 -88 -44 -96 -132c9.33301 -97.333 21.333 -150.666 36 -159.999l220 72h8
c53.333 -10 80 -36.667 80 -80c0 -48.667 -50.667 -84.667 -152 -108c-8.66699 -7.33301 -39.334 -19.333 -92.001 -36l-8 -12l124 -244v-16c-10.667 -53.333 -37.334 -80 -80.001 -80h-4c-47.333 0 -99.333 69.333 -156 208c-24.667 55.333 -39.334 83.333 -44.001 84
l-68 -4c-42.667 13.333 -64 37.333 -64 72v4c0 32.667 22.667 59.334 68 80.001l4 4v12c-24 88.667 -36 162 -36 220c0 80.667 37.333 156.667 112 228c47.333 34.667 107.333 52 180 52z" />
    <glyph glyph-name="g" unicode="g" horiz-adv-x="772" 
d="M450 856c98 0 160.667 -33.334 188 -100.001v-16c0 -41.333 -26.667 -66.666 -80 -75.999c-10 0 -31.333 8 -64 24l-40 4c-140 0 -254.667 -65.333 -344 -196c-18.667 -44.667 -28 -80.667 -28 -108c0 -64 40 -96 120 -96h36c56 0 166.667 34.667 332 104v8l-72 -4
c-38.667 0 -62.667 25.333 -72 76v4c0 61.333 70.667 92 212 92l112 4v4l4 -4h36c56 -13.333 84 -40 84 -80l-60 -356c0 -93.333 -29.333 -140 -88 -140c-53.333 10 -80 36.667 -80 80h-4l4 4v24l20 152h-8c-198 -90.667 -346 -136 -444 -136
c-151.333 9.33301 -246 72 -284 188l-12 72v12c0 120.667 65.333 234 196 340c110.667 80 222.667 120 336 120z" />
    <glyph glyph-name="h" unicode="h" horiz-adv-x="697" 
d="M548 940c50.667 0 79.999 -40.001 87.999 -120.001l80 -404c25.333 -174 49.333 -284.667 72 -332v-4c0 -38 -25.333 -64.667 -76 -80h-4c-64 0 -109.333 94.667 -136 284h-8c-184 -48 -280 -76 -288 -84v-4l20 -96c0 -37.333 -28 -61.333 -84 -72
c-50 0 -83.333 45.333 -100 136h-8l-144 -36c-53.333 10 -80 36.667 -80 80c0 53.333 60 92 180 116v12c-64 182 -96 290 -96 324l-4 4v4c16 53.333 42.667 80 80 80c50.667 0 81.334 -41.333 92.001 -124c32 -80 62.667 -166.667 92 -260h4c15.333 0 118 28 308 84l-72 412
c0 44.667 28 71.334 84 80.001z" />
    <glyph glyph-name="i" unicode="i" horiz-adv-x="255" 
d="M195 924c53.333 -13.333 80 -40 80 -80c-11.333 -117.333 -30 -176 -56 -176c0 -4 -13.333 -9.33301 -40 -16c-53.333 11.333 -80 38 -80 80h-4c11.333 95.333 27.333 150 48 164c0 8 17.333 17.333 52 28zM147 620c38 0 64.666 -25.334 79.999 -76.001
c-10.667 -55.333 -16 -106 -16 -152v-40c0 -64 9.33301 -154.667 28 -272c0 -43.333 -26.667 -68.666 -80 -75.999v-4c-56.667 -0 -88.667 53.333 -96 160l-20 168c-53.333 10 -80 35.333 -80 76v4c0 28.667 25.333 60.667 76 96c30.667 74 57.334 111.333 80.001 112z" />
    <glyph glyph-name="j" unicode="j" horiz-adv-x="525" 
d="M416 1112c46 0 74 -38.667 84 -116c0 -42.667 -26.667 -68 -80 -76c-46.667 0 -76 38.667 -88 116c14 50.667 39.333 76 76 76h8zM452 884c53.333 -11.333 79.998 -38 79.998 -80h4l-8 -44c24 -105.333 36 -192 36 -260v-48c0 -204 -61.333 -348 -184 -432l-64 -20
c-131.333 0 -248.666 94.667 -351.999 284l-16 72c10.667 53.333 37.334 80 80.001 80c45.333 0 76 -36 92 -108c74 -106.667 131.333 -160 172 -160h16c61.333 56 92 152 92 288c0 84 -12 189.333 -36 316c12 72 41.333 108 88 108v4z" />
    <glyph glyph-name="k" unicode="k" horiz-adv-x="899" 
d="M527 1004c58.667 -10.667 88 -38.667 88 -84c-21.333 -48 -50.666 -138.667 -87.999 -272l-84 -192v-4c282.667 6 424 14 424 24c56 -12.667 84 -40.667 84 -84c0 -61.333 -56 -92 -168 -92c-290.667 -8.66699 -436 -20.667 -436 -36s38.667 -66 116 -152l4 -32
c0 -42.667 -28 -69.334 -84 -80.001c-36 0 -90.667 50.667 -164 152h-8l-36 -8c-66.667 12.667 -100 43.334 -100 92.001c0 12 14.667 40 44 84v4c-40.667 74 -92.667 198 -156 372c14 56 42 84 84 84c52.667 0 100.667 -77.333 144 -232
c29.333 -66.667 46.666 -100 51.999 -100h4c90.667 158 136 256.667 136 296c47.333 160 78 240 92 240c10 13.333 27.333 20 52 20z" />
    <glyph glyph-name="l" unicode="l" horiz-adv-x="524" 
d="M119 880c40 0 67.999 -29.3311 83.999 -87.998c0 -159.333 -14.667 -319.333 -44 -480v-4c56 16 149.333 33.333 280 52c8 56 33.333 84 76 84h4c42.667 0 80 -45.333 112 -136c0 -74.667 -116 -120 -348 -136c-111.333 -26.667 -183.333 -61.334 -216 -104.001
c-17.333 -40 -49.333 -60 -96 -60c-39.333 0 -64.666 26.667 -75.999 80v4c0 20.667 18.667 52.667 56 96c58.667 151.333 88 360.666 88 627.999c17.333 42.667 44 64 80 64z" />
    <glyph glyph-name="m" unicode="m" horiz-adv-x="906" 
d="M549 916c54 0 124.668 -85.333 212.001 -256c42.667 -72 120 -228 232 -468v-16c0 -48 -29.333 -74.667 -88 -80c-40 0 -81.333 56 -124 168c-94.667 194 -150.667 300.667 -168 320h-4l-80 -532c-28 -34.667 -58.667 -52 -92 -52
c-50.667 -0 -133.334 93.333 -248.001 280l-52 60h-4v-144c-8.66699 -82.667 -36.667 -124 -84 -124c-48 0 -74.667 32 -80 96v384c0 47.333 25.333 78 76 92h4c48.667 0 148.667 -104 300 -312l40 -52h8c37.333 190.667 56 366.667 56 528c14.667 72 46.667 108 96 108z
" />
    <glyph glyph-name="n" unicode="n" horiz-adv-x="682" 
d="M631 832c46.667 0 73.3301 -30.667 79.9971 -92v-248l8 -420c0 -36 -26.667 -60 -80 -72h-4c-30.667 0 -66.667 28 -108 84l-320 272h-8c10.667 -54.667 18.667 -118.667 24 -192c-17.333 -64 -46.666 -96 -87.999 -96h-4c-43.333 0 -68.666 29.333 -75.999 88l4 20
c0 62.667 -30.667 196 -92 400l-4 40c14.667 50.667 42.667 76 84 76c32.667 0 115.334 -65.333 248.001 -196l244 -204h8v448c6 61.333 34 92 84 92z" />
    <glyph glyph-name="o" unicode="o" horiz-adv-x="614" 
d="M108 387c12 -90.667 38.668 -135.999 80.001 -135.999h48c65.333 0 136 37.333 212 112c37.333 46.667 56 96 56 148c0 80 -36 134.667 -108 164c-10.667 5.33301 -25.334 8 -44.001 8h-52c-80 -16 -120 -37.333 -120 -64c-38 -76.667 -62 -139.334 -72 -188.001v-44z
M324.001 847.001h44c94 0 179.333 -54.667 256 -164c29.333 -46 44 -108.667 44 -188c0 -102.667 -53.333 -202.667 -160 -300c-105.333 -74.667 -205.333 -112 -300 -112c-140 0 -228 92 -264 276v40l-4 4l4 4v24l12 64l-4 56c71.333 197.333 195.333 296 372 296z" />
    <glyph glyph-name="p" unicode="p" horiz-adv-x="750" 
d="M64 1016c24.667 0 50 -17.333 76 -52l28 4h28c296.667 0 476.667 -20 540 -60c29.333 -27.333 44 -64.666 44 -111.999c0 -52.667 -70.667 -140.667 -212 -264c-67.333 -52 -152.666 -102.667 -255.999 -152v-4c40 -123.333 74.667 -206 104 -248l8 -40
c-12.667 -58.667 -40.667 -88 -84 -88c-51.333 0 -98 69.333 -140 208c-27.333 75.333 -43.333 114 -48 116h-4l-16 -4c-53.333 13.333 -80 40 -80 80v4c0 27.333 17.333 52.666 52 75.999v4c-52.667 205.333 -87.334 308 -104.001 308c-34.667 16 -52 40 -52 72v8
c0 16 20 56 60 120c16 16 34.667 24 56 24zM188 804l-4.00098 -4c44.667 -162 71.334 -247.333 80.001 -256c72 16.667 170.667 83.334 296 200.001c18.667 19.333 28 32.666 28 39.999h-4c-124.667 13.333 -256.667 20 -396 20z" />
    <glyph glyph-name="q" unicode="q" horiz-adv-x="644" 
d="M154 646c0.666992 -26.667 3.33496 -40 8.00195 -40c0 -9.33301 -20 -56 -60 -140c-16 -31.333 -24 -67.333 -24 -108v-28c3.33301 -89.333 19.333 -140 48 -152h8c70 0 148.667 40 236 120l4 4v4c-34 50.667 -62 76 -84 76c-24 22.667 -36 46.667 -36 72
c0 34.667 28 64 84 88h16c29.333 0 70.666 -34.667 123.999 -104h4c17.333 0 36 54.667 56 164c0 74 -32 131.333 -96 172l-40 8c-88.667 0 -171.334 -45.333 -248.001 -136zM386.001 946h23.999c99.333 0 182 -57.333 248 -172c29.333 -70.667 44 -128 44 -172
c0 -84.667 -36 -186 -108 -304v-8c110 -178 167.333 -278 172 -300v-8c0 -45.333 -28 -72 -84 -80c-39.333 0 -80.666 45.333 -123.999 136c-40 70.667 -68 114.667 -84 132c-127.333 -104 -235.333 -156 -324 -156h-20c-73.333 0 -128 34.667 -164 104
c-37.333 60.667 -56 139.334 -56 236.001c2.66699 62.667 22.667 134.667 60 216l-4 56c13.333 63.333 61.333 132.666 144 207.999c104 74.667 196 112 276 112z" />
    <glyph glyph-name="r" unicode="r" horiz-adv-x="779" 
d="M452 928c168.667 0 267.334 -54.667 296.001 -164c5.33301 -10.667 8 -25.334 8 -44.001v-12c0 -92 -78.667 -212 -236 -360v-4l16 -4l168 8c42 0 67.333 -29.333 76 -88c0 -53.333 -46.667 -80 -140 -80l-144 -4h-76c-18.667 -0.666992 -28 -3.33398 -28 -8.00098
c34.667 -39.333 52 -68.666 52 -87.999c-11.333 -53.333 -38 -80 -80 -80h-8c-36.667 0 -87.334 48 -152.001 144c-21.333 10.667 -37.333 41.334 -48 92.001c-54 98.667 -120.667 254.667 -200 468c-8 0 -13.333 14.667 -16 44c0 30.667 24 66.667 72 108
c208 48 354.667 72 440 72zM128 708c80.667 -208.667 131.333 -324.667 152 -348h4c192.667 156 294 270.667 304 344v16c0 29.333 -46.667 44 -140 44c-213.333 -21.333 -320 -40 -320 -56z" />
    <glyph glyph-name="s" unicode="s" horiz-adv-x="861" 
d="M225 1036c174 0 323.333 -70.667 448 -212c109.333 -147.333 164 -254 164 -320h4c-13.333 -56 -41.333 -84 -84 -84c-46.667 0 -76 37.333 -88 112c-114.667 224 -250.667 336 -408 336h-68l-8 -8v-8c4.66699 -78 58 -176.667 160 -296
c120.667 -112.667 243.334 -191.334 368.001 -236.001c43.333 -19.333 94 -35.333 152 -48c24 -23.333 36 -46 36 -68v-4c-10.667 -53.333 -37.334 -80 -80.001 -80h-156c-235.333 0 -411.333 -36 -528 -108l-44 -12c-53.333 12.667 -80 39.334 -80 80.001l8 116
c0 33.333 -12 120 -36 260c0 77.333 28 116 84 116s84 -54.667 84 -164c15.333 -62.667 27.333 -126.667 36 -192h4c62 24 142 42.667 240 56v4c-76 54 -133.333 99.333 -172 136c-112.667 120 -180.667 217.333 -204 292c-24 64.667 -36 110 -36 136v28l-4 4
c11.333 57.333 30 96 56 116c45.333 32 96 48 152 48z" />
    <glyph glyph-name="t" unicode="t" horiz-adv-x="839" 
d="M777 852c69.333 0 104 -30.668 104 -92.001c-13.333 -48 -40 -72 -80 -72c-106 0 -219.333 -17.333 -340 -52c0 -28.667 45.333 -214 136 -556v-4c0 -44 -28 -69.333 -84 -76c-51.333 0 -88.666 65.333 -111.999 196c-66.667 236.667 -100 375.334 -100 416.001l-288 -40
c-42.667 0 -69.334 28 -80.001 84c0 61.333 56 92 168 92l624 104h52z" />
    <glyph glyph-name="u" unicode="u" horiz-adv-x="659" 
d="M179 747c39.333 0 64.667 -26.6699 76 -80.0029c-26 -176 -68.667 -322.667 -128 -440v-12c32 -33.333 124 -62.666 276 -87.999l64 -4h32c16 0 24 40 24 120v36c0 79.333 -17.333 195.333 -52 348c0 40.667 28 67.334 84 80.001c51.333 0 83.333 -58.667 96 -176
c24 -96 36 -189.333 36 -280c0 -139.333 -33.333 -228.666 -100 -267.999c-22 -13.333 -54 -22.666 -96 -27.999c-352 31.333 -528 116.666 -528 255.999v12c0 26 29.333 107.333 88 244c30.667 178.667 60 268 88 268z" />
    <glyph glyph-name="v" unicode="v" horiz-adv-x="607" 
d="M-24 782c42.667 0 90.666 -64 143.999 -192l168 -288h8c64.667 122.667 160.667 254.667 288 396c30 56 62 84 96 84h8c42.667 0 68 -26.667 76 -80c0 -27.333 -58.667 -108.666 -176 -243.999c-144 -200.667 -216 -340.667 -216 -420
c-16.667 -45.333 -44.667 -68 -84 -68c-47.333 0 -74 30.667 -80 92c0 43.333 -84 208.666 -252 495.999c-40 76.667 -60 124.667 -60 144c10.667 53.333 37.334 80 80.001 80z" />
    <glyph glyph-name="w" unicode="w" horiz-adv-x="907" 
d="M733 1004c69.333 0 128.001 -102.665 176.001 -307.998c13.333 -76 20 -153.333 20 -232v-52c0 -152 -25.333 -265.333 -76 -340c-18.667 -20.667 -54.667 -36.667 -108 -48c-63.333 6.66699 -135.333 44 -216 112l-68 68
c-6.66699 -8.66699 -17.334 -43.334 -32.001 -104.001c-30 -66.667 -75.333 -100 -136 -100c-32 0 -85.333 36 -160 108c-133.333 177.333 -200 284 -200 320c0 43.333 28 74 84 92h4c41.333 0 72 -34.667 92 -104c47.333 -79.333 102 -152.666 164 -219.999h12l8 92
c0 45.333 -8 118.666 -24 219.999c0 47.333 30.667 74 92 80c34 0 76.667 -52 128 -156c87.333 -127.333 166 -206 236 -236h8c18.667 71.333 28 151.333 28 240c0 213.333 -36 366.666 -108 459.999l-4 28c10 53.333 36.667 80 80 80z" />
    <glyph glyph-name="x" unicode="x" horiz-adv-x="786" 
d="M24 868c36.667 0 100.67 -61.334 192.003 -184.001l160 -176c116 106.667 198.667 197.334 248 272.001c30 53.333 62 80 96 80c42 0 68.667 -28 80 -84c0 -48 -102.667 -177.333 -308 -388v-8c168 -175.333 252 -266 252 -272l4 -28
c-6.66699 -53.333 -33.334 -80 -80.001 -80h-8c-27.333 -0 -87.333 53.333 -180 160l-112 112c-52.667 -44 -119.334 -121.333 -200.001 -232c-10.667 -8.66699 -28 -16.667 -52 -24c-53.333 11.333 -80 38 -80 80h-4c3.33301 37.333 76.666 137.333 219.999 300
c-153.333 182.667 -233.333 274.667 -240 276c-26 0 -50 37.333 -72 112c10 56 38 84 84 84z" />
    <glyph glyph-name="y" unicode="y" horiz-adv-x="810" 
d="M677 1100c52.667 0 83.332 -41.3311 91.999 -123.998c8 -82.667 38.667 -230.667 92 -444l20 -144c0 -216 -93.333 -342.667 -280 -380l-76 -8h-28c-121.333 0 -237.333 41.333 -348 124c-104 105.333 -156 182.666 -156 231.999c0 36 26.667 60 80 72
c36 0 74.667 -38.667 116 -116c81.333 -98.667 189.333 -148 324 -148c86.667 0 144 24 172 72c21.333 45.333 32 90.666 32 135.999c-11.333 119.333 -24.666 183.333 -39.999 192c-73.333 -120 -172 -180 -296 -180c-85.333 0 -169.333 36 -252 108
c-82.667 102 -124 199.333 -124 292c0 61.333 25.333 92 76 92v4c48.667 0 76.667 -37.333 84 -112c7.33301 -62 42 -123.333 104 -184c40 -21.333 69.333 -32 88 -32h64c64 0 125.333 80 184 240l8 68l-20 140v12c4.66699 58.667 32.667 88 84 88z" />
    <glyph glyph-name="z" unicode="z" horiz-adv-x="802" 
d="M607 876c56 -15.333 84.002 -43.333 84.002 -84c0 -21.333 -34.667 -72 -104 -152c-52.667 -102 -163.334 -247.333 -332.001 -436v-4l4 -4v-4l48 4h240l176 -8v4c-42.667 124 -64 193.333 -64 208v8c0 42.667 26.667 68 80 76c48 0 82.667 -52 104 -156
c66.667 -146.667 100 -224 100 -232c0 -44 -33.333 -73.333 -100 -88c-102 16 -228.667 24 -380 24c-216 0 -356 -10.667 -420 -32c-44 -0 -70.667 29.333 -80 88c0 24.667 26.667 62 80 112l304 368l36 52v4h-4c-24 0 -105.333 -40 -244 -120l-48 -16
c-56 13.333 -84 41.333 -84 84c0 41.333 37.333 76 112 104c69.333 48 182.666 100 339.999 156z" />
    <glyph glyph-name="braceleft" unicode="{" horiz-adv-x="457" 
d="M329 1179c39.333 0 64.6641 -26.667 75.9971 -80c0 -32 -25.333 -60 -76 -84c-18 -56 -32.667 -145.333 -44 -268c-13.333 -58 -30.666 -103.333 -51.999 -136v-16c26.667 -30 72 -130 136 -300c50.667 0 85.334 -17.333 104.001 -52l8 -32
c0 -48.667 -33.333 -76.667 -100 -84h-8c-96 0 -166.667 88 -212 264c-30 82.667 -58 124 -84 124c-49.333 0 -82.666 34.667 -99.999 104c0 36.667 29.333 72.667 88 108l20 4l24 -4c15.333 28 30 116 44 264c30 125.333 88.667 188 176 188z" />
    <glyph glyph-name="bar" unicode="|" horiz-adv-x="172" 
d="M100 1058c47.333 0 74 -32 80 -96v-216l-16 -508c0 -45.333 -28 -72 -84 -80c-53.333 10 -80 36.667 -80 80l16 488v188c6.66699 90.667 28 136 64 136z" />
    <glyph glyph-name="braceright" unicode="}" horiz-adv-x="390" 
d="M97 1095l20.001 0.000976562c58.667 0 112 -33.333 160 -100c21.333 -33.333 32 -73.333 32 -120l-36 -152c5.33301 -8 38.666 -18.667 99.999 -32c34.667 -25.333 52 -53.333 52 -84c0 -50.667 -42.667 -81.334 -128 -92.001l-8 -12c42.667 -80 64 -142.667 64 -188v-12
c0 -102.667 -56 -173.334 -168 -212.001c-13.333 -7.33301 -45.333 -12.666 -96 -15.999c-74.667 23.333 -112 56.666 -112 99.999c0 45.333 28 72 84 80l48 -12h12c45.333 0 68 22.667 68 68c0 21.333 -18.667 69.333 -56 144c-5.33301 10.667 -8 25.334 -8 44.001v20
c0 20 9.33301 48 28 84l-40 64l-4 24v36c0 15.333 12 66 36 152v4c0 32.667 -28 56.667 -84 72c-24 22 -36 43.333 -36 64v4c7.33301 48 31.333 72 72 72z" />
    <glyph glyph-name="asciitilde" unicode="~" horiz-adv-x="846" 
d="M296 945l8.00098 0.000976562c67.333 0 107.333 -45.333 120 -136l32 -208h4c70 58.667 139.333 88 208 88c130.667 -18.667 196 -49.334 196 -92.001l4 -16v-8c0 -38 -25.333 -64.667 -76 -80h-4c-62 21.333 -106 32 -132 32c-34.667 0 -82.667 -34.667 -144 -104
c-34.667 -21.333 -66.667 -32 -96 -32c-24 0 -56 26.667 -96 80c-18.667 64.667 -33.334 148.667 -44.001 252h-4c-6 0 -59.333 -69.333 -160 -208c-32 -34.667 -60 -52 -84 -52c-43.333 0 -70 28 -80 84c0 40 28 81.333 84 124c56 92 125.333 178.667 208 260
c12 10.667 30.667 16 56 16z" />
    <glyph glyph-name="exclamdown" unicode="&#xa1;" horiz-adv-x="682" 
 />
    <glyph glyph-name="cent" unicode="&#xa2;" 
 />
    <glyph glyph-name="sterling" unicode="&#xa3;" 
 />
    <glyph glyph-name="currency" unicode="&#xa4;" 
 />
    <glyph glyph-name="yen" unicode="&#xa5;" 
 />
    <glyph glyph-name="brokenbar" unicode="&#xa6;" horiz-adv-x="532" 
 />
    <glyph glyph-name="section" unicode="&#xa7;" 
 />
    <glyph glyph-name="dieresis" unicode="&#xa8;" horiz-adv-x="682" 
 />
    <glyph glyph-name="copyright" unicode="&#xa9;" horiz-adv-x="1509" 
 />
    <glyph glyph-name="ordfeminine" unicode="&#xaa;" horiz-adv-x="758" 
 />
    <glyph glyph-name="guillemotleft" unicode="&#xab;" 
 />
    <glyph glyph-name="logicalnot" unicode="&#xac;" horiz-adv-x="1196" 
 />
    <glyph glyph-name="registered" unicode="&#xae;" horiz-adv-x="1509" 
 />
    <glyph glyph-name="macron" unicode="&#xaf;" horiz-adv-x="1131" 
 />
    <glyph glyph-name="degree" unicode="&#xb0;" horiz-adv-x="819" 
 />
    <glyph glyph-name="plusminus" unicode="&#xb1;" horiz-adv-x="1124" 
 />
    <glyph glyph-name="uni00B2" unicode="&#xb2;" horiz-adv-x="682" 
 />
    <glyph glyph-name="uni00B3" unicode="&#xb3;" horiz-adv-x="682" 
 />
    <glyph glyph-name="acute" unicode="&#xb4;" horiz-adv-x="682" 
 />
    <glyph glyph-name="mu" unicode="&#xb5;" horiz-adv-x="1180" 
 />
    <glyph glyph-name="paragraph" unicode="&#xb6;" horiz-adv-x="1100" 
 />
    <glyph glyph-name="periodcentered" unicode="&#xb7;" horiz-adv-x="569" 
 />
    <glyph glyph-name="periodcentered" unicode="&#x2219;" horiz-adv-x="569" 
 />
    <glyph glyph-name="cedilla" unicode="&#xb8;" horiz-adv-x="682" 
 />
    <glyph glyph-name="uni00B9" unicode="&#xb9;" horiz-adv-x="682" 
 />
    <glyph glyph-name="ordmasculine" unicode="&#xba;" horiz-adv-x="748" 
 />
    <glyph glyph-name="guillemotright" unicode="&#xbb;" 
 />
    <glyph glyph-name="onequarter" unicode="&#xbc;" horiz-adv-x="1708" 
 />
    <glyph glyph-name="onehalf" unicode="&#xbd;" horiz-adv-x="1708" 
 />
    <glyph glyph-name="threequarters" unicode="&#xbe;" horiz-adv-x="1708" 
 />
    <glyph glyph-name="questiondown" unicode="&#xbf;" horiz-adv-x="1251" 
 />
    <glyph glyph-name="Agrave" unicode="&#xc0;" horiz-adv-x="1366" 
 />
    <glyph glyph-name="Aacute" unicode="&#xc1;" horiz-adv-x="1366" 
 />
    <glyph glyph-name="Acircumflex" unicode="&#xc2;" horiz-adv-x="1366" 
 />
    <glyph glyph-name="Atilde" unicode="&#xc3;" horiz-adv-x="1366" 
 />
    <glyph glyph-name="Adieresis" unicode="&#xc4;" horiz-adv-x="1366" 
 />
    <glyph glyph-name="Aring" unicode="&#xc5;" horiz-adv-x="1366" 
 />
    <glyph glyph-name="AE" unicode="&#xc6;" horiz-adv-x="2048" 
 />
    <glyph glyph-name="Ccedilla" unicode="&#xc7;" horiz-adv-x="1479" 
 />
    <glyph glyph-name="Egrave" unicode="&#xc8;" horiz-adv-x="1366" 
 />
    <glyph glyph-name="Eacute" unicode="&#xc9;" horiz-adv-x="1366" 
 />
    <glyph glyph-name="Ecircumflex" unicode="&#xca;" horiz-adv-x="1366" 
 />
    <glyph glyph-name="Edieresis" unicode="&#xcb;" horiz-adv-x="1366" 
 />
    <glyph glyph-name="Igrave" unicode="&#xcc;" horiz-adv-x="569" 
 />
    <glyph glyph-name="Iacute" unicode="&#xcd;" horiz-adv-x="569" 
 />
    <glyph glyph-name="Icircumflex" unicode="&#xce;" horiz-adv-x="569" 
 />
    <glyph glyph-name="Idieresis" unicode="&#xcf;" horiz-adv-x="569" 
 />
    <glyph glyph-name="Eth" unicode="&#xd0;" horiz-adv-x="1479" 
 />
    <glyph glyph-name="Ntilde" unicode="&#xd1;" horiz-adv-x="1479" 
 />
    <glyph glyph-name="Ograve" unicode="&#xd2;" horiz-adv-x="1593" 
 />
    <glyph glyph-name="Oacute" unicode="&#xd3;" horiz-adv-x="1593" 
 />
    <glyph glyph-name="Ocircumflex" unicode="&#xd4;" horiz-adv-x="1593" 
 />
    <glyph glyph-name="Otilde" unicode="&#xd5;" horiz-adv-x="1593" 
 />
    <glyph glyph-name="Odieresis" unicode="&#xd6;" horiz-adv-x="1593" 
 />
    <glyph glyph-name="multiply" unicode="&#xd7;" horiz-adv-x="1196" 
 />
    <glyph glyph-name="Oslash" unicode="&#xd8;" horiz-adv-x="1593" 
 />
    <glyph glyph-name="Ugrave" unicode="&#xd9;" horiz-adv-x="1479" 
 />
    <glyph glyph-name="Uacute" unicode="&#xda;" horiz-adv-x="1479" 
 />
    <glyph glyph-name="Ucircumflex" unicode="&#xdb;" horiz-adv-x="1479" 
 />
    <glyph glyph-name="Udieresis" unicode="&#xdc;" horiz-adv-x="1479" 
 />
    <glyph glyph-name="Yacute" unicode="&#xdd;" horiz-adv-x="1366" 
 />
    <glyph glyph-name="Thorn" unicode="&#xde;" horiz-adv-x="1366" 
 />
    <glyph glyph-name="germandbls" unicode="&#xdf;" horiz-adv-x="1251" 
 />
    <glyph glyph-name="agrave" unicode="&#xe0;" 
 />
    <glyph glyph-name="aacute" unicode="&#xe1;" 
 />
    <glyph glyph-name="acircumflex" unicode="&#xe2;" 
 />
    <glyph glyph-name="atilde" unicode="&#xe3;" 
 />
    <glyph glyph-name="adieresis" unicode="&#xe4;" 
 />
    <glyph glyph-name="aring" unicode="&#xe5;" 
 />
    <glyph glyph-name="ae" unicode="&#xe6;" horiz-adv-x="1821" 
 />
    <glyph glyph-name="ccedilla" unicode="&#xe7;" horiz-adv-x="1024" 
 />
    <glyph glyph-name="egrave" unicode="&#xe8;" 
 />
    <glyph glyph-name="eacute" unicode="&#xe9;" 
 />
    <glyph glyph-name="ecircumflex" unicode="&#xea;" 
 />
    <glyph glyph-name="edieresis" unicode="&#xeb;" 
 />
    <glyph glyph-name="igrave" unicode="&#xec;" horiz-adv-x="569" 
 />
    <glyph glyph-name="iacute" unicode="&#xed;" horiz-adv-x="569" 
 />
    <glyph glyph-name="icircumflex" unicode="&#xee;" horiz-adv-x="569" 
 />
    <glyph glyph-name="idieresis" unicode="&#xef;" horiz-adv-x="569" 
 />
    <glyph glyph-name="eth" unicode="&#xf0;" 
 />
    <glyph glyph-name="ntilde" unicode="&#xf1;" 
 />
    <glyph glyph-name="ograve" unicode="&#xf2;" 
 />
    <glyph glyph-name="oacute" unicode="&#xf3;" 
 />
    <glyph glyph-name="ocircumflex" unicode="&#xf4;" 
 />
    <glyph glyph-name="otilde" unicode="&#xf5;" 
 />
    <glyph glyph-name="odieresis" unicode="&#xf6;" 
 />
    <glyph glyph-name="divide" unicode="&#xf7;" horiz-adv-x="1124" 
 />
    <glyph glyph-name="oslash" unicode="&#xf8;" horiz-adv-x="1251" 
 />
    <glyph glyph-name="ugrave" unicode="&#xf9;" 
 />
    <glyph glyph-name="uacute" unicode="&#xfa;" 
 />
    <glyph glyph-name="ucircumflex" unicode="&#xfb;" 
 />
    <glyph glyph-name="udieresis" unicode="&#xfc;" 
 />
    <glyph glyph-name="yacute" unicode="&#xfd;" horiz-adv-x="1024" 
 />
    <glyph glyph-name="thorn" unicode="&#xfe;" 
 />
    <glyph glyph-name="ydieresis" unicode="&#xff;" horiz-adv-x="1024" 
 />
    <glyph glyph-name="Amacron" unicode="&#x100;" horiz-adv-x="1366" 
 />
    <glyph glyph-name="amacron" unicode="&#x101;" 
 />
    <glyph glyph-name="Abreve" unicode="&#x102;" horiz-adv-x="1366" 
 />
    <glyph glyph-name="abreve" unicode="&#x103;" 
 />
    <glyph glyph-name="Aogonek" unicode="&#x104;" horiz-adv-x="1366" 
 />
    <glyph glyph-name="aogonek" unicode="&#x105;" 
 />
    <glyph glyph-name="Cacute" unicode="&#x106;" horiz-adv-x="1479" 
 />
    <glyph glyph-name="cacute" unicode="&#x107;" horiz-adv-x="1024" 
 />
    <glyph glyph-name="Ccircumflex" unicode="&#x108;" horiz-adv-x="1479" 
 />
    <glyph glyph-name="ccircumflex" unicode="&#x109;" horiz-adv-x="1024" 
 />
    <glyph glyph-name="Cdotaccent" unicode="&#x10a;" horiz-adv-x="1479" 
 />
    <glyph glyph-name="cdotaccent" unicode="&#x10b;" horiz-adv-x="1024" 
 />
    <glyph glyph-name="Ccaron" unicode="&#x10c;" horiz-adv-x="1479" 
 />
    <glyph glyph-name="ccaron" unicode="&#x10d;" horiz-adv-x="1024" 
 />
    <glyph glyph-name="Dcaron" unicode="&#x10e;" horiz-adv-x="1479" 
 />
    <glyph glyph-name="dcaron" unicode="&#x10f;" horiz-adv-x="1259" 
 />
    <glyph glyph-name="Dcroat" unicode="&#x110;" horiz-adv-x="1479" 
 />
    <glyph glyph-name="dcroat" unicode="&#x111;" 
 />
    <glyph glyph-name="Emacron" unicode="&#x112;" horiz-adv-x="1366" 
 />
    <glyph glyph-name="emacron" unicode="&#x113;" 
 />
    <glyph glyph-name="Ebreve" unicode="&#x114;" horiz-adv-x="1366" 
 />
    <glyph glyph-name="ebreve" unicode="&#x115;" 
 />
    <glyph glyph-name="Edotaccent" unicode="&#x116;" horiz-adv-x="1366" 
 />
    <glyph glyph-name="edotaccent" unicode="&#x117;" 
 />
    <glyph glyph-name="Eogonek" unicode="&#x118;" horiz-adv-x="1366" 
 />
    <glyph glyph-name="eogonek" unicode="&#x119;" 
 />
    <glyph glyph-name="Ecaron" unicode="&#x11a;" horiz-adv-x="1366" 
 />
    <glyph glyph-name="ecaron" unicode="&#x11b;" 
 />
    <glyph glyph-name="Gcircumflex" unicode="&#x11c;" horiz-adv-x="1593" 
 />
    <glyph glyph-name="gcircumflex" unicode="&#x11d;" 
 />
    <glyph glyph-name="Gbreve" unicode="&#x11e;" horiz-adv-x="1593" 
 />
    <glyph glyph-name="gbreve" unicode="&#x11f;" 
 />
    <glyph glyph-name="Gdotaccent" unicode="&#x120;" horiz-adv-x="1593" 
 />
    <glyph glyph-name="gdotaccent" unicode="&#x121;" 
 />
    <glyph glyph-name="Gcommaaccent" unicode="&#x122;" horiz-adv-x="1593" 
 />
    <glyph glyph-name="gcommaaccent" unicode="&#x123;" 
 />
    <glyph glyph-name="Hcircumflex" unicode="&#x124;" horiz-adv-x="1479" 
 />
    <glyph glyph-name="hcircumflex" unicode="&#x125;" 
 />
    <glyph glyph-name="Hbar" unicode="&#x126;" horiz-adv-x="1479" 
 />
    <glyph glyph-name="hbar" unicode="&#x127;" 
 />
    <glyph glyph-name="Itilde" unicode="&#x128;" horiz-adv-x="569" 
 />
    <glyph glyph-name="itilde" unicode="&#x129;" horiz-adv-x="569" 
 />
    <glyph glyph-name="Imacron" unicode="&#x12a;" horiz-adv-x="569" 
 />
    <glyph glyph-name="imacron" unicode="&#x12b;" horiz-adv-x="569" 
 />
    <glyph glyph-name="Ibreve" unicode="&#x12c;" horiz-adv-x="569" 
 />
    <glyph glyph-name="ibreve" unicode="&#x12d;" horiz-adv-x="569" 
 />
    <glyph glyph-name="Iogonek" unicode="&#x12e;" horiz-adv-x="569" 
 />
    <glyph glyph-name="iogonek" unicode="&#x12f;" horiz-adv-x="455" 
 />
    <glyph glyph-name="Idotaccent" unicode="&#x130;" horiz-adv-x="569" 
 />
    <glyph glyph-name="dotlessi" unicode="&#x131;" horiz-adv-x="569" 
 />
    <glyph glyph-name="IJ" unicode="&#x132;" horiz-adv-x="1505" 
 />
    <glyph glyph-name="ij" unicode="&#x133;" horiz-adv-x="909" 
 />
    <glyph glyph-name="Jcircumflex" unicode="&#x134;" horiz-adv-x="1024" 
 />
    <glyph glyph-name="jcircumflex" unicode="&#x135;" horiz-adv-x="455" 
 />
    <glyph glyph-name="Kcommaaccent" unicode="&#x136;" horiz-adv-x="1366" 
 />
    <glyph glyph-name="kcommaaccent" unicode="&#x137;" horiz-adv-x="1024" 
 />
    <glyph glyph-name="kgreenlandic" unicode="&#x138;" horiz-adv-x="1024" 
 />
    <glyph glyph-name="Lacute" unicode="&#x139;" 
 />
    <glyph glyph-name="lacute" unicode="&#x13a;" horiz-adv-x="455" 
 />
    <glyph glyph-name="Lcommaaccent" unicode="&#x13b;" 
 />
    <glyph glyph-name="lcommaaccent" unicode="&#x13c;" horiz-adv-x="455" 
 />
    <glyph glyph-name="Lcaron" unicode="&#x13d;" 
 />
    <glyph glyph-name="lcaron" unicode="&#x13e;" horiz-adv-x="597" 
 />
    <glyph glyph-name="Ldot" unicode="&#x13f;" 
 />
    <glyph glyph-name="ldot" unicode="&#x140;" horiz-adv-x="684" 
 />
    <glyph glyph-name="Lslash" unicode="&#x141;" 
 />
    <glyph glyph-name="lslash" unicode="&#x142;" horiz-adv-x="455" 
 />
    <glyph glyph-name="Nacute" unicode="&#x143;" horiz-adv-x="1479" 
 />
    <glyph glyph-name="nacute" unicode="&#x144;" 
 />
    <glyph glyph-name="Ncommaaccent" unicode="&#x145;" horiz-adv-x="1479" 
 />
    <glyph glyph-name="ncommaaccent" unicode="&#x146;" 
 />
    <glyph glyph-name="Ncaron" unicode="&#x147;" horiz-adv-x="1479" 
 />
    <glyph glyph-name="ncaron" unicode="&#x148;" 
 />
    <glyph glyph-name="napostrophe" unicode="&#x149;" horiz-adv-x="1237" 
 />
    <glyph glyph-name="Eng" unicode="&#x14a;" horiz-adv-x="1481" 
 />
    <glyph glyph-name="eng" unicode="&#x14b;" 
 />
    <glyph glyph-name="Omacron" unicode="&#x14c;" horiz-adv-x="1593" 
 />
    <glyph glyph-name="omacron" unicode="&#x14d;" 
 />
    <glyph glyph-name="Obreve" unicode="&#x14e;" horiz-adv-x="1593" 
 />
    <glyph glyph-name="obreve" unicode="&#x14f;" 
 />
    <glyph glyph-name="Ohungarumlaut" unicode="&#x150;" horiz-adv-x="1593" 
 />
    <glyph glyph-name="ohungarumlaut" unicode="&#x151;" 
 />
    <glyph glyph-name="OE" unicode="&#x152;" horiz-adv-x="2048" 
 />
    <glyph glyph-name="oe" unicode="&#x153;" horiz-adv-x="1933" 
 />
    <glyph glyph-name="Racute" unicode="&#x154;" horiz-adv-x="1479" 
 />
    <glyph glyph-name="racute" unicode="&#x155;" horiz-adv-x="682" 
 />
    <glyph glyph-name="Rcommaaccent" unicode="&#x156;" horiz-adv-x="1479" 
 />
    <glyph glyph-name="rcommaaccent" unicode="&#x157;" horiz-adv-x="682" 
 />
    <glyph glyph-name="Rcaron" unicode="&#x158;" horiz-adv-x="1479" 
 />
    <glyph glyph-name="rcaron" unicode="&#x159;" horiz-adv-x="682" 
 />
    <glyph glyph-name="Sacute" unicode="&#x15a;" horiz-adv-x="1366" 
 />
    <glyph glyph-name="sacute" unicode="&#x15b;" horiz-adv-x="1024" 
 />
    <glyph glyph-name="Scircumflex" unicode="&#x15c;" horiz-adv-x="1366" 
 />
    <glyph glyph-name="scircumflex" unicode="&#x15d;" horiz-adv-x="1024" 
 />
    <glyph glyph-name="Scedilla" unicode="&#x15e;" horiz-adv-x="1366" 
 />
    <glyph glyph-name="scedilla" unicode="&#x15f;" horiz-adv-x="1024" 
 />
    <glyph glyph-name="Scaron" unicode="&#x160;" horiz-adv-x="1366" 
 />
    <glyph glyph-name="scaron" unicode="&#x161;" horiz-adv-x="1024" 
 />
    <glyph glyph-name="Tcommaaccent" unicode="&#x162;" horiz-adv-x="1251" 
 />
    <glyph glyph-name="tcommaaccent" unicode="&#x163;" horiz-adv-x="569" 
 />
    <glyph glyph-name="Tcaron" unicode="&#x164;" horiz-adv-x="1251" 
 />
    <glyph glyph-name="tcaron" unicode="&#x165;" horiz-adv-x="768" 
 />
    <glyph glyph-name="Tbar" unicode="&#x166;" horiz-adv-x="1251" 
 />
    <glyph glyph-name="tbar" unicode="&#x167;" horiz-adv-x="569" 
 />
    <glyph glyph-name="Utilde" unicode="&#x168;" horiz-adv-x="1479" 
 />
    <glyph glyph-name="utilde" unicode="&#x169;" 
 />
    <glyph glyph-name="Umacron" unicode="&#x16a;" horiz-adv-x="1479" 
 />
    <glyph glyph-name="umacron" unicode="&#x16b;" 
 />
    <glyph glyph-name="Ubreve" unicode="&#x16c;" horiz-adv-x="1479" 
 />
    <glyph glyph-name="ubreve" unicode="&#x16d;" 
 />
    <glyph glyph-name="Uring" unicode="&#x16e;" horiz-adv-x="1479" 
 />
    <glyph glyph-name="uring" unicode="&#x16f;" 
 />
    <glyph glyph-name="Uhungarumlaut" unicode="&#x170;" horiz-adv-x="1479" 
 />
    <glyph glyph-name="uhungarumlaut" unicode="&#x171;" 
 />
    <glyph glyph-name="Uogonek" unicode="&#x172;" horiz-adv-x="1479" 
 />
    <glyph glyph-name="uogonek" unicode="&#x173;" 
 />
    <glyph glyph-name="Wcircumflex" unicode="&#x174;" horiz-adv-x="1933" 
 />
    <glyph glyph-name="wcircumflex" unicode="&#x175;" horiz-adv-x="1479" 
 />
    <glyph glyph-name="Ycircumflex" unicode="&#x176;" horiz-adv-x="1366" 
 />
    <glyph glyph-name="ycircumflex" unicode="&#x177;" horiz-adv-x="1024" 
 />
    <glyph glyph-name="Ydieresis" unicode="&#x178;" horiz-adv-x="1366" 
 />
    <glyph glyph-name="Zacute" unicode="&#x179;" horiz-adv-x="1251" 
 />
    <glyph glyph-name="zacute" unicode="&#x17a;" horiz-adv-x="1024" 
 />
    <glyph glyph-name="Zdotaccent" unicode="&#x17b;" horiz-adv-x="1251" 
 />
    <glyph glyph-name="zdotaccent" unicode="&#x17c;" horiz-adv-x="1024" 
 />
    <glyph glyph-name="Zcaron" unicode="&#x17d;" horiz-adv-x="1251" 
 />
    <glyph glyph-name="zcaron" unicode="&#x17e;" horiz-adv-x="1024" 
 />
    <glyph glyph-name="longs" unicode="&#x17f;" horiz-adv-x="455" 
 />
    <glyph glyph-name="florin" unicode="&#x192;" 
 />
    <glyph glyph-name="Aringacute" unicode="&#x1fa;" horiz-adv-x="1366" 
 />
    <glyph glyph-name="aringacute" unicode="&#x1fb;" 
 />
    <glyph glyph-name="AEacute" unicode="&#x1fc;" horiz-adv-x="2048" 
 />
    <glyph glyph-name="aeacute" unicode="&#x1fd;" horiz-adv-x="1821" 
 />
    <glyph glyph-name="Oslashacute" unicode="&#x1fe;" horiz-adv-x="1593" 
 />
    <glyph glyph-name="oslashacute" unicode="&#x1ff;" horiz-adv-x="1251" 
 />
    <glyph glyph-name="circumflex" unicode="&#x2c6;" horiz-adv-x="682" 
 />
    <glyph glyph-name="caron" unicode="&#x2c7;" horiz-adv-x="682" 
 />
    <glyph glyph-name="uni02C9" unicode="&#x2c9;" horiz-adv-x="682" 
 />
    <glyph glyph-name="breve" unicode="&#x2d8;" horiz-adv-x="682" 
 />
    <glyph glyph-name="dotaccent" unicode="&#x2d9;" horiz-adv-x="682" 
 />
    <glyph glyph-name="ring" unicode="&#x2da;" horiz-adv-x="682" 
 />
    <glyph glyph-name="ogonek" unicode="&#x2db;" horiz-adv-x="682" 
 />
    <glyph glyph-name="tilde" unicode="&#x2dc;" horiz-adv-x="682" 
 />
    <glyph glyph-name="hungarumlaut" unicode="&#x2dd;" horiz-adv-x="682" 
 />
    <glyph glyph-name="tonos" unicode="&#x384;" horiz-adv-x="682" 
 />
    <glyph glyph-name="dieresistonos" unicode="&#x385;" horiz-adv-x="682" 
 />
    <glyph glyph-name="Alphatonos" unicode="&#x386;" horiz-adv-x="1367" 
 />
    <glyph glyph-name="anoteleia" unicode="&#x387;" horiz-adv-x="569" 
 />
    <glyph glyph-name="Epsilontonos" unicode="&#x388;" horiz-adv-x="1606" 
 />
    <glyph glyph-name="Etatonos" unicode="&#x389;" horiz-adv-x="1716" 
 />
    <glyph glyph-name="Iotatonos" unicode="&#x38a;" horiz-adv-x="786" 
 />
    <glyph glyph-name="Omicrontonos" unicode="&#x38c;" horiz-adv-x="1586" 
 />
    <glyph glyph-name="Upsilontonos" unicode="&#x38e;" horiz-adv-x="1752" 
 />
    <glyph glyph-name="Omegatonos" unicode="&#x38f;" horiz-adv-x="1541" 
 />
    <glyph glyph-name="iotadieresistonos" unicode="&#x390;" horiz-adv-x="455" 
 />
    <glyph glyph-name="Alpha" unicode="&#x391;" horiz-adv-x="1366" 
 />
    <glyph glyph-name="Beta" unicode="&#x392;" horiz-adv-x="1366" 
 />
    <glyph glyph-name="Gamma" unicode="&#x393;" horiz-adv-x="1128" 
 />
    <glyph glyph-name="uni0394" unicode="&#x394;" horiz-adv-x="1368" 
 />
    <glyph glyph-name="Epsilon" unicode="&#x395;" horiz-adv-x="1366" 
 />
    <glyph glyph-name="Zeta" unicode="&#x396;" horiz-adv-x="1251" 
 />
    <glyph glyph-name="Eta" unicode="&#x397;" horiz-adv-x="1479" 
 />
    <glyph glyph-name="Theta" unicode="&#x398;" horiz-adv-x="1593" 
 />
    <glyph glyph-name="Iota" unicode="&#x399;" horiz-adv-x="569" 
 />
    <glyph glyph-name="Kappa" unicode="&#x39a;" horiz-adv-x="1366" 
 />
    <glyph glyph-name="Lambda" unicode="&#x39b;" horiz-adv-x="1368" 
 />
    <glyph glyph-name="Mu" unicode="&#x39c;" horiz-adv-x="1706" 
 />
    <glyph glyph-name="Nu" unicode="&#x39d;" horiz-adv-x="1479" 
 />
    <glyph glyph-name="Xi" unicode="&#x39e;" horiz-adv-x="1331" 
 />
    <glyph glyph-name="Omicron" unicode="&#x39f;" horiz-adv-x="1593" 
 />
    <glyph glyph-name="Pi" unicode="&#x3a0;" horiz-adv-x="1479" 
 />
    <glyph glyph-name="Rho" unicode="&#x3a1;" horiz-adv-x="1366" 
 />
    <glyph glyph-name="Sigma" unicode="&#x3a3;" horiz-adv-x="1266" 
 />
    <glyph glyph-name="Tau" unicode="&#x3a4;" horiz-adv-x="1251" 
 />
    <glyph glyph-name="Upsilon" unicode="&#x3a5;" horiz-adv-x="1366" 
 />
    <glyph glyph-name="Phi" unicode="&#x3a6;" horiz-adv-x="1634" 
 />
    <glyph glyph-name="Chi" unicode="&#x3a7;" horiz-adv-x="1366" 
 />
    <glyph glyph-name="Psi" unicode="&#x3a8;" horiz-adv-x="1711" 
 />
    <glyph glyph-name="uni03A9" unicode="&#x3a9;" horiz-adv-x="1531" 
 />
    <glyph glyph-name="Iotadieresis" unicode="&#x3aa;" horiz-adv-x="569" 
 />
    <glyph glyph-name="Upsilondieresis" unicode="&#x3ab;" horiz-adv-x="1366" 
 />
    <glyph glyph-name="alphatonos" unicode="&#x3ac;" horiz-adv-x="1184" 
 />
    <glyph glyph-name="epsilontonos" unicode="&#x3ad;" horiz-adv-x="913" 
 />
    <glyph glyph-name="etatonos" unicode="&#x3ae;" 
 />
    <glyph glyph-name="iotatonos" unicode="&#x3af;" horiz-adv-x="455" 
 />
    <glyph glyph-name="upsilondieresistonos" unicode="&#x3b0;" horiz-adv-x="1120" 
 />
    <glyph glyph-name="alpha" unicode="&#x3b1;" horiz-adv-x="1184" 
 />
    <glyph glyph-name="beta" unicode="&#x3b2;" horiz-adv-x="1178" 
 />
    <glyph glyph-name="gamma" unicode="&#x3b3;" horiz-adv-x="1024" 
 />
    <glyph glyph-name="delta" unicode="&#x3b4;" horiz-adv-x="1140" 
 />
    <glyph glyph-name="epsilon" unicode="&#x3b5;" horiz-adv-x="913" 
 />
    <glyph glyph-name="zeta" unicode="&#x3b6;" horiz-adv-x="903" 
 />
    <glyph glyph-name="eta" unicode="&#x3b7;" 
 />
    <glyph glyph-name="theta" unicode="&#x3b8;" 
 />
    <glyph glyph-name="iota" unicode="&#x3b9;" horiz-adv-x="455" 
 />
    <glyph glyph-name="kappa" unicode="&#x3ba;" horiz-adv-x="1024" 
 />
    <glyph glyph-name="lambda" unicode="&#x3bb;" horiz-adv-x="1024" 
 />
    <glyph glyph-name="uni03BC" unicode="&#x3bc;" horiz-adv-x="1180" 
 />
    <glyph glyph-name="nu" unicode="&#x3bd;" horiz-adv-x="1024" 
 />
    <glyph glyph-name="xi" unicode="&#x3be;" horiz-adv-x="917" 
 />
    <glyph glyph-name="omicron" unicode="&#x3bf;" 
 />
    <glyph glyph-name="pi" unicode="&#x3c0;" horiz-adv-x="1413" 
 />
    <glyph glyph-name="rho" unicode="&#x3c1;" horiz-adv-x="1165" 
 />
    <glyph glyph-name="sigma1" unicode="&#x3c2;" horiz-adv-x="987" 
 />
    <glyph glyph-name="sigma" unicode="&#x3c3;" horiz-adv-x="1264" 
 />
    <glyph glyph-name="tau" unicode="&#x3c4;" horiz-adv-x="809" 
 />
    <glyph glyph-name="upsilon" unicode="&#x3c5;" horiz-adv-x="1120" 
 />
    <glyph glyph-name="phi" unicode="&#x3c6;" horiz-adv-x="1328" 
 />
    <glyph glyph-name="chi" unicode="&#x3c7;" horiz-adv-x="1075" 
 />
    <glyph glyph-name="psi" unicode="&#x3c8;" horiz-adv-x="1460" 
 />
    <glyph glyph-name="omega" unicode="&#x3c9;" horiz-adv-x="1599" 
 />
    <glyph glyph-name="iotadieresis" unicode="&#x3ca;" horiz-adv-x="455" 
 />
    <glyph glyph-name="upsilondieresis" unicode="&#x3cb;" horiz-adv-x="1120" 
 />
    <glyph glyph-name="omicrontonos" unicode="&#x3cc;" 
 />
    <glyph glyph-name="upsilontonos" unicode="&#x3cd;" horiz-adv-x="1120" 
 />
    <glyph glyph-name="omegatonos" unicode="&#x3ce;" horiz-adv-x="1599" 
 />
    <glyph glyph-name="afii10023" unicode="&#x401;" horiz-adv-x="1367" 
 />
    <glyph glyph-name="afii10051" unicode="&#x402;" horiz-adv-x="1771" 
 />
    <glyph glyph-name="afii10052" unicode="&#x403;" horiz-adv-x="1109" 
 />
    <glyph glyph-name="afii10053" unicode="&#x404;" horiz-adv-x="1472" 
 />
    <glyph glyph-name="afii10054" unicode="&#x405;" horiz-adv-x="1366" 
 />
    <glyph glyph-name="afii10055" unicode="&#x406;" horiz-adv-x="569" 
 />
    <glyph glyph-name="afii10056" unicode="&#x407;" horiz-adv-x="569" 
 />
    <glyph glyph-name="afii10057" unicode="&#x408;" horiz-adv-x="1024" 
 />
    <glyph glyph-name="afii10058" unicode="&#x409;" horiz-adv-x="2165" 
 />
    <glyph glyph-name="afii10059" unicode="&#x40a;" horiz-adv-x="2069" 
 />
    <glyph glyph-name="afii10060" unicode="&#x40b;" horiz-adv-x="1749" 
 />
    <glyph glyph-name="afii10061" unicode="&#x40c;" horiz-adv-x="1193" 
 />
    <glyph glyph-name="afii10062" unicode="&#x40e;" horiz-adv-x="1301" 
 />
    <glyph glyph-name="afii10145" unicode="&#x40f;" horiz-adv-x="1472" 
 />
    <glyph glyph-name="afii10017" unicode="&#x410;" horiz-adv-x="1366" 
 />
    <glyph glyph-name="afii10018" unicode="&#x411;" horiz-adv-x="1344" 
 />
    <glyph glyph-name="afii10019" unicode="&#x412;" horiz-adv-x="1366" 
 />
    <glyph glyph-name="afii10020" unicode="&#x413;" horiz-adv-x="1109" 
 />
    <glyph glyph-name="afii10021" unicode="&#x414;" horiz-adv-x="1387" 
 />
    <glyph glyph-name="afii10022" unicode="&#x415;" horiz-adv-x="1366" 
 />
    <glyph glyph-name="afii10024" unicode="&#x416;" horiz-adv-x="1891" 
 />
    <glyph glyph-name="afii10025" unicode="&#x417;" horiz-adv-x="1237" 
 />
    <glyph glyph-name="afii10026" unicode="&#x418;" horiz-adv-x="1472" 
 />
    <glyph glyph-name="afii10027" unicode="&#x419;" horiz-adv-x="1472" 
 />
    <glyph glyph-name="afii10028" unicode="&#x41a;" horiz-adv-x="1193" 
 />
    <glyph glyph-name="afii10029" unicode="&#x41b;" horiz-adv-x="1344" 
 />
    <glyph glyph-name="afii10030" unicode="&#x41c;" horiz-adv-x="1706" 
 />
    <glyph glyph-name="afii10031" unicode="&#x41d;" horiz-adv-x="1479" 
 />
    <glyph glyph-name="afii10032" unicode="&#x41e;" horiz-adv-x="1593" 
 />
    <glyph glyph-name="afii10033" unicode="&#x41f;" horiz-adv-x="1472" 
 />
    <glyph glyph-name="afii10034" unicode="&#x420;" horiz-adv-x="1366" 
 />
    <glyph glyph-name="afii10035" unicode="&#x421;" horiz-adv-x="1479" 
 />
    <glyph glyph-name="afii10036" unicode="&#x422;" horiz-adv-x="1251" 
 />
    <glyph glyph-name="afii10037" unicode="&#x423;" horiz-adv-x="1301" 
 />
    <glyph glyph-name="afii10038" unicode="&#x424;" horiz-adv-x="1557" 
 />
    <glyph glyph-name="afii10039" unicode="&#x425;" horiz-adv-x="1366" 
 />
    <glyph glyph-name="afii10040" unicode="&#x426;" horiz-adv-x="1515" 
 />
    <glyph glyph-name="afii10041" unicode="&#x427;" horiz-adv-x="1365" 
 />
    <glyph glyph-name="afii10042" unicode="&#x428;" horiz-adv-x="1877" 
 />
    <glyph glyph-name="afii10043" unicode="&#x429;" horiz-adv-x="1920" 
 />
    <glyph glyph-name="afii10044" unicode="&#x42a;" horiz-adv-x="1621" 
 />
    <glyph glyph-name="afii10045" unicode="&#x42b;" horiz-adv-x="1813" 
 />
    <glyph glyph-name="afii10046" unicode="&#x42c;" horiz-adv-x="1344" 
 />
    <glyph glyph-name="afii10047" unicode="&#x42d;" horiz-adv-x="1472" 
 />
    <glyph glyph-name="afii10048" unicode="&#x42e;" horiz-adv-x="2069" 
 />
    <glyph glyph-name="afii10049" unicode="&#x42f;" horiz-adv-x="1479" 
 />
    <glyph glyph-name="afii10065" unicode="&#x430;" 
 />
    <glyph glyph-name="afii10066" unicode="&#x431;" horiz-adv-x="1173" 
 />
    <glyph glyph-name="afii10067" unicode="&#x432;" horiz-adv-x="1088" 
 />
    <glyph glyph-name="afii10068" unicode="&#x433;" horiz-adv-x="747" 
 />
    <glyph glyph-name="afii10069" unicode="&#x434;" horiz-adv-x="1195" 
 />
    <glyph glyph-name="afii10070" unicode="&#x435;" 
 />
    <glyph glyph-name="afii10072" unicode="&#x436;" horiz-adv-x="1370" 
 />
    <glyph glyph-name="afii10073" unicode="&#x437;" horiz-adv-x="939" 
 />
    <glyph glyph-name="afii10074" unicode="&#x438;" horiz-adv-x="1144" 
 />
    <glyph glyph-name="afii10075" unicode="&#x439;" horiz-adv-x="1144" 
 />
    <glyph glyph-name="afii10076" unicode="&#x43a;" horiz-adv-x="896" 
 />
    <glyph glyph-name="afii10077" unicode="&#x43b;" horiz-adv-x="1195" 
 />
    <glyph glyph-name="afii10078" unicode="&#x43c;" horiz-adv-x="1408" 
 />
    <glyph glyph-name="afii10079" unicode="&#x43d;" horiz-adv-x="1131" 
 />
    <glyph glyph-name="afii10080" unicode="&#x43e;" 
 />
    <glyph glyph-name="afii10081" unicode="&#x43f;" horiz-adv-x="1109" 
 />
    <glyph glyph-name="afii10082" unicode="&#x440;" 
 />
    <glyph glyph-name="afii10083" unicode="&#x441;" horiz-adv-x="1024" 
 />
    <glyph glyph-name="afii10084" unicode="&#x442;" horiz-adv-x="938" 
 />
    <glyph glyph-name="afii10085" unicode="&#x443;" horiz-adv-x="1024" 
 />
    <glyph glyph-name="afii10086" unicode="&#x444;" horiz-adv-x="1685" 
 />
    <glyph glyph-name="afii10087" unicode="&#x445;" horiz-adv-x="1024" 
 />
    <glyph glyph-name="afii10088" unicode="&#x446;" horiz-adv-x="1173" 
 />
    <glyph glyph-name="afii10089" unicode="&#x447;" horiz-adv-x="1067" 
 />
    <glyph glyph-name="afii10090" unicode="&#x448;" horiz-adv-x="1643" 
 />
    <glyph glyph-name="afii10091" unicode="&#x449;" horiz-adv-x="1685" 
 />
    <glyph glyph-name="afii10092" unicode="&#x44a;" horiz-adv-x="1280" 
 />
    <glyph glyph-name="afii10093" unicode="&#x44b;" horiz-adv-x="1472" 
 />
    <glyph glyph-name="afii10094" unicode="&#x44c;" horiz-adv-x="1067" 
 />
    <glyph glyph-name="afii10095" unicode="&#x44d;" horiz-adv-x="1045" 
 />
    <glyph glyph-name="afii10096" unicode="&#x44e;" horiz-adv-x="1536" 
 />
    <glyph glyph-name="afii10097" unicode="&#x44f;" horiz-adv-x="1109" 
 />
    <glyph glyph-name="afii10071" unicode="&#x451;" 
 />
    <glyph glyph-name="afii10099" unicode="&#x452;" 
 />
    <glyph glyph-name="afii10100" unicode="&#x453;" horiz-adv-x="747" 
 />
    <glyph glyph-name="afii10101" unicode="&#x454;" horiz-adv-x="1045" 
 />
    <glyph glyph-name="afii10102" unicode="&#x455;" horiz-adv-x="1024" 
 />
    <glyph glyph-name="afii10103" unicode="&#x456;" horiz-adv-x="455" 
 />
    <glyph glyph-name="afii10104" unicode="&#x457;" horiz-adv-x="569" 
 />
    <glyph glyph-name="afii10105" unicode="&#x458;" horiz-adv-x="455" 
 />
    <glyph glyph-name="afii10106" unicode="&#x459;" horiz-adv-x="1856" 
 />
    <glyph glyph-name="afii10107" unicode="&#x45a;" horiz-adv-x="1664" 
 />
    <glyph glyph-name="afii10108" unicode="&#x45b;" 
 />
    <glyph glyph-name="afii10109" unicode="&#x45c;" horiz-adv-x="896" 
 />
    <glyph glyph-name="afii10110" unicode="&#x45e;" horiz-adv-x="1024" 
 />
    <glyph glyph-name="afii10193" unicode="&#x45f;" horiz-adv-x="1131" 
 />
    <glyph glyph-name="afii10050" unicode="&#x490;" horiz-adv-x="1001" 
 />
    <glyph glyph-name="afii10098" unicode="&#x491;" horiz-adv-x="842" 
 />
    <glyph glyph-name="Wgrave" unicode="&#x1e80;" horiz-adv-x="1933" 
 />
    <glyph glyph-name="wgrave" unicode="&#x1e81;" horiz-adv-x="1479" 
 />
    <glyph glyph-name="Wacute" unicode="&#x1e82;" horiz-adv-x="1933" 
 />
    <glyph glyph-name="wacute" unicode="&#x1e83;" horiz-adv-x="1479" 
 />
    <glyph glyph-name="Wdieresis" unicode="&#x1e84;" horiz-adv-x="1933" 
 />
    <glyph glyph-name="wdieresis" unicode="&#x1e85;" horiz-adv-x="1479" 
 />
    <glyph glyph-name="Ygrave" unicode="&#x1ef2;" horiz-adv-x="1366" 
 />
    <glyph glyph-name="ygrave" unicode="&#x1ef3;" horiz-adv-x="1024" 
 />
    <glyph glyph-name="endash" unicode="&#x2013;" 
 />
    <glyph glyph-name="emdash" unicode="&#x2014;" horiz-adv-x="2048" 
 />
    <glyph glyph-name="afii00208" unicode="&#x2015;" horiz-adv-x="2048" 
 />
    <glyph glyph-name="underscoredbl" unicode="&#x2017;" horiz-adv-x="1131" 
 />
    <glyph glyph-name="quoteleft" unicode="&#x2018;" horiz-adv-x="455" 
 />
    <glyph glyph-name="quoteright" unicode="&#x2019;" horiz-adv-x="455" 
 />
    <glyph glyph-name="quotesinglbase" unicode="&#x201a;" horiz-adv-x="455" 
 />
    <glyph glyph-name="quotereversed" unicode="&#x201b;" horiz-adv-x="455" 
 />
    <glyph glyph-name="quotedblleft" unicode="&#x201c;" horiz-adv-x="682" 
 />
    <glyph glyph-name="quotedblright" unicode="&#x201d;" horiz-adv-x="682" 
 />
    <glyph glyph-name="quotedblbase" unicode="&#x201e;" horiz-adv-x="682" 
 />
    <glyph glyph-name="dagger" unicode="&#x2020;" 
 />
    <glyph glyph-name="daggerdbl" unicode="&#x2021;" 
 />
    <glyph glyph-name="bullet" unicode="&#x2022;" horiz-adv-x="717" 
 />
    <glyph glyph-name="ellipsis" unicode="&#x2026;" horiz-adv-x="2048" 
 />
    <glyph glyph-name="perthousand" unicode="&#x2030;" horiz-adv-x="2048" 
 />
    <glyph glyph-name="minute" unicode="&#x2032;" horiz-adv-x="384" 
 />
    <glyph glyph-name="second" unicode="&#x2033;" horiz-adv-x="725" 
 />
    <glyph glyph-name="guilsinglleft" unicode="&#x2039;" horiz-adv-x="682" 
 />
    <glyph glyph-name="guilsinglright" unicode="&#x203a;" horiz-adv-x="682" 
 />
    <glyph glyph-name="exclamdbl" unicode="&#x203c;" horiz-adv-x="1024" 
 />
    <glyph glyph-name="uni203E" unicode="&#x203e;" horiz-adv-x="682" 
 />
    <glyph glyph-name="fraction" unicode="&#x2044;" horiz-adv-x="342" 
 />
    <glyph glyph-name="fraction" unicode="&#x2215;" horiz-adv-x="342" 
 />
    <glyph glyph-name="uni207F" unicode="&#x207f;" horiz-adv-x="747" 
 />
    <glyph glyph-name="franc" unicode="&#x20a3;" 
 />
    <glyph glyph-name="lira" unicode="&#x20a4;" 
 />
    <glyph glyph-name="peseta" unicode="&#x20a7;" horiz-adv-x="2240" 
 />
    <glyph glyph-name="Euro" unicode="&#x20ac;" 
 />
    <glyph glyph-name="afii61248" unicode="&#x2105;" horiz-adv-x="1813" 
 />
    <glyph glyph-name="afii61289" unicode="&#x2113;" horiz-adv-x="662" 
 />
    <glyph glyph-name="afii61352" unicode="&#x2116;" horiz-adv-x="2197" 
 />
    <glyph glyph-name="trademark" unicode="&#x2122;" horiz-adv-x="2048" 
 />
    <glyph glyph-name="Omega" unicode="&#x2126;" horiz-adv-x="1573" 
 />
    <glyph glyph-name="estimated" unicode="&#x212e;" horiz-adv-x="1229" 
 />
    <glyph glyph-name="oneeighth" unicode="&#x215b;" horiz-adv-x="1708" 
 />
    <glyph glyph-name="threeeighths" unicode="&#x215c;" horiz-adv-x="1708" 
 />
    <glyph glyph-name="fiveeighths" unicode="&#x215d;" horiz-adv-x="1708" 
 />
    <glyph glyph-name="seveneighths" unicode="&#x215e;" horiz-adv-x="1708" 
 />
    <glyph glyph-name="arrowleft" unicode="&#x2190;" horiz-adv-x="2048" 
 />
    <glyph glyph-name="arrowup" unicode="&#x2191;" horiz-adv-x="1024" 
 />
    <glyph glyph-name="arrowright" unicode="&#x2192;" horiz-adv-x="2048" 
 />
    <glyph glyph-name="arrowdown" unicode="&#x2193;" horiz-adv-x="1024" 
 />
    <glyph glyph-name="arrowboth" unicode="&#x2194;" horiz-adv-x="2048" 
 />
    <glyph glyph-name="arrowupdn" unicode="&#x2195;" horiz-adv-x="1024" 
 />
    <glyph glyph-name="arrowupdnbse" unicode="&#x21a8;" horiz-adv-x="1024" 
 />
    <glyph glyph-name="partialdiff" unicode="&#x2202;" horiz-adv-x="1012" 
 />
    <glyph glyph-name="Delta" unicode="&#x2206;" horiz-adv-x="1253" 
 />
    <glyph glyph-name="product" unicode="&#x220f;" horiz-adv-x="1686" 
 />
    <glyph glyph-name="summation" unicode="&#x2211;" horiz-adv-x="1460" 
 />
    <glyph glyph-name="minus" unicode="&#x2212;" horiz-adv-x="1196" 
 />
    <glyph glyph-name="radical" unicode="&#x221a;" horiz-adv-x="1124" 
 />
    <glyph glyph-name="infinity" unicode="&#x221e;" horiz-adv-x="1460" 
 />
    <glyph glyph-name="orthogonal" unicode="&#x221f;" horiz-adv-x="2005" 
 />
    <glyph glyph-name="intersection" unicode="&#x2229;" horiz-adv-x="1472" 
 />
    <glyph glyph-name="integral" unicode="&#x222b;" horiz-adv-x="561" 
 />
    <glyph glyph-name="approxequal" unicode="&#x2248;" horiz-adv-x="1124" 
 />
    <glyph glyph-name="notequal" unicode="&#x2260;" horiz-adv-x="1124" 
 />
    <glyph glyph-name="equivalence" unicode="&#x2261;" horiz-adv-x="1195" 
 />
    <glyph glyph-name="lessequal" unicode="&#x2264;" horiz-adv-x="1124" 
 />
    <glyph glyph-name="greaterequal" unicode="&#x2265;" horiz-adv-x="1124" 
 />
    <glyph glyph-name="house" unicode="&#x2302;" horiz-adv-x="1237" 
 />
    <glyph glyph-name="revlogicalnot" unicode="&#x2310;" horiz-adv-x="1196" 
 />
    <glyph glyph-name="integraltp" unicode="&#x2320;" horiz-adv-x="1237" 
 />
    <glyph glyph-name="integralbt" unicode="&#x2321;" horiz-adv-x="1237" 
 />
    <glyph glyph-name="SF100000" unicode="&#x2500;" horiz-adv-x="1451" 
 />
    <glyph glyph-name="SF110000" unicode="&#x2502;" horiz-adv-x="1280" 
 />
    <glyph glyph-name="SF010000" unicode="&#x250c;" horiz-adv-x="1451" 
 />
    <glyph glyph-name="SF030000" unicode="&#x2510;" horiz-adv-x="1451" 
 />
    <glyph glyph-name="SF020000" unicode="&#x2514;" horiz-adv-x="1451" 
 />
    <glyph glyph-name="SF040000" unicode="&#x2518;" horiz-adv-x="1451" 
 />
    <glyph glyph-name="SF080000" unicode="&#x251c;" horiz-adv-x="1451" 
 />
    <glyph glyph-name="SF090000" unicode="&#x2524;" horiz-adv-x="1451" 
 />
    <glyph glyph-name="SF060000" unicode="&#x252c;" horiz-adv-x="1451" 
 />
    <glyph glyph-name="SF070000" unicode="&#x2534;" horiz-adv-x="1451" 
 />
    <glyph glyph-name="SF050000" unicode="&#x253c;" horiz-adv-x="1451" 
 />
    <glyph glyph-name="SF430000" unicode="&#x2550;" horiz-adv-x="1451" 
 />
    <glyph glyph-name="SF240000" unicode="&#x2551;" horiz-adv-x="1451" 
 />
    <glyph glyph-name="SF510000" unicode="&#x2552;" horiz-adv-x="1451" 
 />
    <glyph glyph-name="SF520000" unicode="&#x2553;" horiz-adv-x="1451" 
 />
    <glyph glyph-name="SF390000" unicode="&#x2554;" horiz-adv-x="1451" 
 />
    <glyph glyph-name="SF220000" unicode="&#x2555;" horiz-adv-x="1451" 
 />
    <glyph glyph-name="SF210000" unicode="&#x2556;" horiz-adv-x="1451" 
 />
    <glyph glyph-name="SF250000" unicode="&#x2557;" horiz-adv-x="1451" 
 />
    <glyph glyph-name="SF500000" unicode="&#x2558;" horiz-adv-x="1451" 
 />
    <glyph glyph-name="SF490000" unicode="&#x2559;" horiz-adv-x="1451" 
 />
    <glyph glyph-name="SF380000" unicode="&#x255a;" horiz-adv-x="1451" 
 />
    <glyph glyph-name="SF280000" unicode="&#x255b;" horiz-adv-x="1451" 
 />
    <glyph glyph-name="SF270000" unicode="&#x255c;" horiz-adv-x="1451" 
 />
    <glyph glyph-name="SF260000" unicode="&#x255d;" horiz-adv-x="1451" 
 />
    <glyph glyph-name="SF360000" unicode="&#x255e;" horiz-adv-x="1451" 
 />
    <glyph glyph-name="SF370000" unicode="&#x255f;" horiz-adv-x="1451" 
 />
    <glyph glyph-name="SF420000" unicode="&#x2560;" horiz-adv-x="1451" 
 />
    <glyph glyph-name="SF190000" unicode="&#x2561;" horiz-adv-x="1451" 
 />
    <glyph glyph-name="SF200000" unicode="&#x2562;" horiz-adv-x="1451" 
 />
    <glyph glyph-name="SF230000" unicode="&#x2563;" horiz-adv-x="1451" 
 />
    <glyph glyph-name="SF470000" unicode="&#x2564;" horiz-adv-x="1451" 
 />
    <glyph glyph-name="SF480000" unicode="&#x2565;" horiz-adv-x="1451" 
 />
    <glyph glyph-name="SF410000" unicode="&#x2566;" horiz-adv-x="1451" 
 />
    <glyph glyph-name="SF450000" unicode="&#x2567;" horiz-adv-x="1451" 
 />
    <glyph glyph-name="SF460000" unicode="&#x2568;" horiz-adv-x="1451" 
 />
    <glyph glyph-name="SF400000" unicode="&#x2569;" horiz-adv-x="1451" 
 />
    <glyph glyph-name="SF540000" unicode="&#x256a;" horiz-adv-x="1451" 
 />
    <glyph glyph-name="SF530000" unicode="&#x256b;" horiz-adv-x="1451" 
 />
    <glyph glyph-name="SF440000" unicode="&#x256c;" horiz-adv-x="1451" 
 />
    <glyph glyph-name="upblock" unicode="&#x2580;" horiz-adv-x="1451" 
 />
    <glyph glyph-name="dnblock" unicode="&#x2584;" horiz-adv-x="1451" 
 />
    <glyph glyph-name="block" unicode="&#x2588;" horiz-adv-x="1451" 
 />
    <glyph glyph-name="lfblock" unicode="&#x258c;" horiz-adv-x="1451" 
 />
    <glyph glyph-name="rtblock" unicode="&#x2590;" horiz-adv-x="1451" 
 />
    <glyph glyph-name="ltshade" unicode="&#x2591;" horiz-adv-x="1451" 
 />
    <glyph glyph-name="shade" unicode="&#x2592;" horiz-adv-x="1451" 
 />
    <glyph glyph-name="dkshade" unicode="&#x2593;" horiz-adv-x="1493" 
 />
    <glyph glyph-name="filledbox" unicode="&#x25a0;" horiz-adv-x="1237" 
 />
    <glyph glyph-name="H22073" unicode="&#x25a1;" horiz-adv-x="1237" 
 />
    <glyph glyph-name="H18543" unicode="&#x25aa;" horiz-adv-x="726" 
 />
    <glyph glyph-name="H18551" unicode="&#x25ab;" horiz-adv-x="726" 
 />
    <glyph glyph-name="filledrect" unicode="&#x25ac;" horiz-adv-x="2048" 
 />
    <glyph glyph-name="triagup" unicode="&#x25b2;" horiz-adv-x="2027" 
 />
    <glyph glyph-name="triagrt" unicode="&#x25ba;" horiz-adv-x="2027" 
 />
    <glyph glyph-name="triagdn" unicode="&#x25bc;" horiz-adv-x="2027" 
 />
    <glyph glyph-name="triaglf" unicode="&#x25c4;" horiz-adv-x="2027" 
 />
    <glyph glyph-name="lozenge" unicode="&#x25ca;" horiz-adv-x="1012" 
 />
    <glyph glyph-name="circle" unicode="&#x25cb;" horiz-adv-x="1237" 
 />
    <glyph glyph-name="H18533" unicode="&#x25cf;" horiz-adv-x="1237" 
 />
    <glyph glyph-name="invbullet" unicode="&#x25d8;" horiz-adv-x="1237" 
 />
    <glyph glyph-name="invcircle" unicode="&#x25d9;" horiz-adv-x="1237" 
 />
    <glyph glyph-name="openbullet" unicode="&#x25e6;" horiz-adv-x="726" 
 />
    <glyph glyph-name="smileface" unicode="&#x263a;" horiz-adv-x="2091" 
 />
    <glyph glyph-name="invsmileface" unicode="&#x263b;" horiz-adv-x="2155" 
 />
    <glyph glyph-name="sun" unicode="&#x263c;" horiz-adv-x="1877" 
 />
    <glyph glyph-name="female" unicode="&#x2640;" horiz-adv-x="1536" 
 />
    <glyph glyph-name="male" unicode="&#x2642;" horiz-adv-x="1536" 
 />
    <glyph glyph-name="spade" unicode="&#x2660;" horiz-adv-x="1088" 
 />
    <glyph glyph-name="club" unicode="&#x2663;" horiz-adv-x="1344" 
 />
    <glyph glyph-name="heart" unicode="&#x2665;" horiz-adv-x="1216" 
 />
    <glyph glyph-name="diamond" unicode="&#x2666;" horiz-adv-x="1045" 
 />
    <glyph glyph-name="musicalnote" unicode="&#x266a;" horiz-adv-x="1024" 
 />
    <glyph glyph-name="musicalnotedbl" unicode="&#x266b;" horiz-adv-x="1536" 
 />
    <glyph glyph-name="uniF001" unicode="&#xf001;" horiz-adv-x="1024" 
 />
    <glyph glyph-name="uniF001" unicode="&#xfb01;" horiz-adv-x="1024" 
 />
    <glyph glyph-name="uniF002" unicode="&#xf002;" horiz-adv-x="1024" 
 />
    <glyph glyph-name="uniF002" unicode="&#xfb02;" horiz-adv-x="1024" 
 />
    <glyph glyph-name="uniF004" unicode="&#xf004;" horiz-adv-x="682" 
 />
    <glyph glyph-name="uniF005" unicode="&#xf005;" horiz-adv-x="682" 
 />
    <glyph glyph-name=".null" horiz-adv-x="0" 
 />
    <glyph glyph-name="nonmarkingreturn" horiz-adv-x="569" 
 />
    <glyph glyph-name="glyph155" horiz-adv-x="1124" 
 />
  </font>
</defs>
</svg>
