<?xml version="1.0" standalone="no"?>
<!DOCTYPE svg PUBLIC "-//W3C//DTD SVG 1.1//EN" "http://www.w3.org/Graphics/SVG/1.1/DTD/svg11.dtd" >
<svg>
<metadata>
Created by FontForge 20090914 at Tue Mar 20 08:53:34 2012
 By www-data
2000 Iconian Fonts - www.iconian.com
</metadata>
<defs>
<font id="Michaelmas" horiz-adv-x="430" >
  <font-face 
    font-family="Michaelmas"
    font-weight="400"
    font-stretch="normal"
    units-per-em="1000"
    panose-1="0 0 0 0 0 0 0 0 0 0"
    ascent="800"
    descent="-200"
    x-height="394.997"
    cap-height="520"
    bbox="-262 -280.997 871.004 640.997"
    underline-thickness="50"
    underline-position="-75"
    unicode-range="U+0020-U+E00B"
  />
<missing-glyph horiz-adv-x="500" 
 />
    <glyph glyph-name=".notdef" horiz-adv-x="500" 
 />
    <glyph glyph-name="space" unicode=" " horiz-adv-x="324" 
 />
    <glyph glyph-name="exclam" unicode="!" horiz-adv-x="178" 
d="M56 150l67.998 0.00292969c6 8 10.667 26.667 14 56s7 58.5 11 87.5s7.66699 58.167 11 87.5s5 58.666 5 87.999v18c0 7.33301 -0.833008 14.166 -2.5 20.499s-4.66699 12.166 -9 17.499s-10.833 8 -19.5 8c-1.33301 0 -3.16602 -0.333008 -5.49902 -1
s-3.83301 -1 -4.5 -1c-2.66699 -1.33301 -7 -3.16602 -13 -5.49902l-18.5 -7.5c-6.33301 -2.66699 -12.166 -5.33398 -17.499 -8.00098s-9 -4.66699 -11 -6c-12 -13.333 -14.5 -23 -7.5 -29s15.167 -9 24.5 -9c0 -32.667 -1.5 -65.5 -4.5 -98.5s-6.16699 -65.833 -9.5 -98.5
s-6 -56 -8 -70s-3 -30.333 -3 -49zM20.998 44.0029c0 -13.333 6 -24.334 18 -33.001s24 -13 36 -13c13.333 0 24 2.66699 32 8s15.667 15 23 29c-4 12.667 -11.333 23.334 -22 32.001s-23 13 -37 13c-4.66699 0 -10 -1 -16 -3s-11.667 -4.33301 -17 -7
s-9.5 -6.16699 -12.5 -10.5s-4.5 -9.5 -4.5 -15.5z" />
    <glyph glyph-name="quotedbl" unicode="&#x22;" horiz-adv-x="300" 
d="M210 448c-6 -15.333 -10.833 -26.998 -14.5 -34.998l-10 -22c-3 -6.66699 -4.83301 -11 -5.5 -13c-0.666992 -0.666992 -1.16699 -2.66699 -1.5 -6s-0.5 -5.33301 -0.5 -6c15.333 0 29.833 4.5 43.5 13.5s25.667 20.5 36 34.5s18.5 29 24.5 45s9 31 9 45
c0 12.667 -4.66699 21.667 -14 27s-20 8 -32 8c-5.33301 0 -12.833 -1 -22.5 -3s-19.167 -5 -28.5 -9s-17.5 -8.83301 -24.5 -14.5s-10.5 -12.167 -10.5 -19.5c0 -0.666992 0.166992 -1.5 0.5 -2.5s0.5 -1.83301 0.5 -2.5c6.66699 -5.33301 12 -10.333 16 -15
s8.66699 -8.33398 14 -11.001s12 -7.33398 20 -14.001zM40 440.002c0 -1.33301 -1.33398 -4.50195 -4.00098 -9.50195s-4.66699 -8.5 -6 -10.5l-10 -10c-0.666992 -1.33301 -1.16699 -3.66602 -1.5 -6.99902s-0.5 -5.66602 -0.5 -6.99902c10.667 0 21.5 2.66699 32.5 8
s21 12.166 30 20.499s16.5 17.833 22.5 28.5s9 21.334 9 32.001c0 12 -3 24.333 -9 37s-16.667 19 -32 19c-6 0 -12.5 -1 -19.5 -3s-13.667 -4.66699 -20 -8s-11.666 -7.5 -15.999 -12.5s-6.5 -10.833 -6.5 -17.5s1.66699 -12 5 -16l10.5 -12
c3.66699 -4 7.16699 -8.33301 10.5 -13s5 -11 5 -19z" />
    <glyph glyph-name="dollar" unicode="$" horiz-adv-x="320" 
d="M80 105l-0.00585938 -128.996c18.667 0 32.5 4.5 41.5 13.5s15.667 20.167 20 33.5s7.5 27.5 9.5 42.5s5 28.167 9 39.5c5.33301 15.333 15.666 28.166 30.999 38.499l47.5 31c16.333 10.333 30.833 21.666 43.5 33.999s19 28.166 19 47.499c0 11.333 -4 20.833 -12 28.5
s-18 14 -30 19s-25 9.16699 -39 12.5s-27 6.83301 -39 10.5s-22 8 -30 13s-12 11.5 -12 19.5c0 1.33301 0.166992 2.66602 0.5 3.99902l0.5 2c0.666992 1.33301 2.33398 3.33301 5.00098 6s4.33398 4 5.00098 4h110l9.5 6c6.33301 4 13 8.83301 20 14.5s13 11.5 18 17.5
s5.83301 10.667 2.5 14l-10 10l-95 21v59l-15.5 3.5c-10.333 2.33301 -18.666 -4.5 -24.999 -20.5s-13.833 -34 -22.5 -54c-48 -19.333 -79.333 -37.333 -94 -54s-23.334 -30.5 -26.001 -41.5s1.33301 -26.5 12 -46.5c8 -10.667 14.833 -18.5 20.5 -23.5
s10.834 -8.16699 15.501 -9.5l120 -31c0.666992 0 2.33398 -1.33301 5.00098 -4l9 -9c3.33301 -3.33301 6.5 -6.66602 9.5 -9.99902s5.16699 -6 6.5 -8l0.5 -2c0.333008 -1.33301 0.5 -2.33301 0.5 -3s-0.166992 -1.66699 -0.5 -3l-0.5 -2
c-4 -4.66699 -9.16699 -7.83398 -15.5 -9.50098s-12.666 -2.66699 -18.999 -3s-12.666 -0.333008 -18.999 0s-11.833 0.5 -16.5 0.5h-13c-5.33301 0 -10.666 0.166992 -15.999 0.5s-10 0.5 -14 0.5h-7c-0.666992 0 -2.5 0.5 -5.5 1.5s-6.16699 2.16699 -9.5 3.5
s-6.5 2.66602 -9.5 3.99902s-4.83301 2 -5.5 2c-1.33301 0 -4.5 -1.5 -9.5 -4.5s-8.5 -5.16699 -10.5 -6.5s-4.83301 -4 -8.5 -8l-12 -12.5l-12 -12.5c-3.66699 -4 -6.16699 -6.66699 -7.5 -8l-0.5 -2c-0.333008 -1.33301 -0.5 -2.33301 -0.5 -3
c0 -1.33301 0.166992 -2.66602 0.5 -3.99902l0.5 -2c0.666992 -1.33301 2.16699 -3.16602 4.5 -5.49902s4.16602 -3.83301 5.49902 -4.5c2 -1.33301 5.83301 -3 11.5 -5l18.5 -6.5c6.66699 -2.33301 12.834 -4.33301 18.501 -6s9.5 -2.83398 11.5 -3.50098z" />
    <glyph glyph-name="percent" unicode="%" horiz-adv-x="474" 
d="M209 75c0 -10 1.49805 -19.667 4.49805 -29s7.5 -17.666 13.5 -24.999s13.5 -13 22.5 -17s19.167 -5.33301 30.5 -4c14.667 1.33301 30.834 6 48.501 14s34.167 18 49.5 30s28 25.5 38 40.5s15 30.5 15 46.5c0 12 -1.16699 23.333 -3.5 34s-6.33301 20.167 -12 28.5
s-13 15 -22 20s-20.167 7.5 -33.5 7.5c-17.333 0 -35 -4.33301 -53 -13s-34.167 -19.834 -48.5 -33.501s-26.166 -29.167 -35.499 -46.5s-14 -35 -14 -53zM29.998 -6l-0.000976562 -12.002c14.667 0 26.834 3.5 36.501 10.5s18.334 15.333 26.001 25s15 19.667 22 30
s15.5 19.166 25.5 26.499l270 360l52 68l-12 20c-13.333 0 -26.666 -3.33301 -39.999 -10s-22.166 -12.667 -26.499 -18s-12.333 -12.666 -24 -21.999s-28.167 -15.333 -49.5 -18c-13.333 -2.66699 -28 -4.66699 -44 -6s-27.333 4.5 -34 17.5s-15.834 21.333 -27.501 25
s-24.5 5.5 -38.5 5.5c-18.667 0 -37.334 -3 -56.001 -9s-35.5 -14.667 -50.5 -26s-27.167 -25.166 -36.5 -41.499s-14 -34.833 -14 -55.5c0 -10 1.16699 -19.833 3.5 -29.5s6.16602 -18.334 11.499 -26.001s12.166 -13.834 20.499 -18.501s18.166 -7 29.499 -7
c26 0 48.333 5.66699 67 17s36.334 24.333 53.001 39s34 28.334 52 41.001s39.333 20.667 64 24c0 -0.666992 0.166992 -2.16699 0.5 -4.5s0.5 -4.16602 0.5 -5.49902c0 -7.33301 -0.666992 -12.166 -2 -14.499l-9 -15.5c-18 -32 -37.167 -62.667 -57.5 -92l-62.5 -88
c-5.33301 -7.33301 -15.166 -20 -29.499 -38l-45.5 -57.5l-45 -57.5c-14 -18 -24 -30.333 -30 -37zM288.997 129.998c0 9.33301 1.00098 16.832 3.00098 22.499s8 8.5 18 8.5c17.333 0 30.166 -6.66699 38.499 -20s12.5 -27.666 12.5 -42.999
c0 -9.33301 -1.5 -16.333 -4.5 -21s-10.167 -7 -21.5 -7c-8 0 -14.833 2 -20.5 6s-10.5 9 -14.5 15s-6.83301 12.5 -8.5 19.5s-2.5 13.5 -2.5 19.5zM78.998 437.997c18 0 34.834 -4.33301 50.501 -13s23.5 -23 23.5 -43c0 -9.33301 -0.833008 -17.166 -2.5 -23.499
s-7.83398 -9.5 -18.501 -9.5c-12 0 -21.5 3 -28.5 9s-12.333 13.333 -16 22s-6 18.167 -7 28.5s-1.5 20.166 -1.5 29.499z" />
    <glyph glyph-name="ampersand" unicode="&#x26;" horiz-adv-x="690" 
d="M9 119c0 -24.667 7.00391 -44.832 21.0039 -60.499s31.333 -27.834 52 -36.501s42.667 -14.5 66 -17.5s44 -4.5 62 -4.5c24.667 -0 53.167 5.83301 85.5 17.5s64.166 26.334 95.499 44.001s60.5 36.834 87.5 57.501s47.5 40.334 61.5 59.001
c0.666992 1.33301 2.16699 4.83301 4.5 10.5s4.16602 8.83398 5.49902 9.50098c7.33301 6.66699 18.5 11.334 33.5 14.001s29.833 6.16699 44.5 10.5s27.5 10 38.5 17s16.5 17.833 16.5 32.5c-25.333 0 -49.833 -0.833008 -73.5 -2.5s-47.167 -3.16699 -70.5 -4.5l-72 -4
c-24.667 -1.33301 -50.334 -1.33301 -77.001 0l-12 -5c-4.66699 -2 -9.16699 -4.83301 -13.5 -8.5s-8 -7.33398 -11 -11.001s-4.5 -7.83398 -4.5 -12.501c0 -0.666992 0.166992 -1.5 0.5 -2.5s0.5 -1.83301 0.5 -2.5c3.33301 -0.666992 9.33301 -2 18 -4
s17.834 -4 27.501 -6s18.667 -4.16699 27 -6.5s14.166 -3.83301 17.499 -4.5c3.33301 -1.33301 8.83301 -3.16602 16.5 -5.49902s12.167 -3.83301 13.5 -4.5l0.5 -1.5c0.333008 -1 0.5 -1.83301 0.5 -2.5c0 -16.667 -8.66699 -31.834 -26 -45.501
s-37.666 -25.334 -60.999 -35.001s-46.666 -17.334 -69.999 -23.001s-41.333 -8.5 -54 -8.5c-18.667 0 -38.167 1.83301 -58.5 5.5s-38.833 10 -55.5 19s-30.334 21.167 -41.001 36.5s-16 34.666 -16 57.999c0 24.667 5.5 44.334 16.5 59.001s24.667 26.5 41 35.5
s34.166 16.333 53.499 22s37.166 11.334 53.499 17.001s30 12.167 41 19.5s16.5 17.666 16.5 30.999c0 2 -0.166992 4.16699 -0.5 6.5s-0.5 3.83301 -0.5 4.5c-4 0.666992 -11.5 1.66699 -22.5 3s-22.333 3.5 -34 6.5s-22 7.16699 -31 12.5s-13.5 12 -13.5 20
c0 1.33301 0.166992 3.16602 0.5 5.49902s0.5 3.83301 0.5 4.5h27c13.333 0 27 1.16699 41 3.5s26.333 6.83301 37 13.5s16 17 16 31c0 4.66699 -2 8 -6 10s-8.5 3.5 -13.5 4.5s-10.167 1.5 -15.5 1.5h-11c-12 0 -27.333 -3.5 -46 -10.5s-37 -16.333 -55 -28
s-33.333 -24.5 -46 -38.5s-19 -28.667 -19 -44c0 -0.666992 0.166992 -1.83398 0.5 -3.50098l0.5 -2.5l30 -31l0.5 -2c0.333008 -1.33301 0.5 -2.33301 0.5 -3s-0.166992 -1.5 -0.5 -2.5s-0.5 -1.83301 -0.5 -2.5c-18 -13.333 -35.5 -27.5 -52.5 -42.5
s-32 -31.167 -45 -48.5s-23.5 -36.166 -31.5 -56.499s-12 -42.833 -12 -67.5z" />
    <glyph glyph-name="quotesingle" unicode="'" horiz-adv-x="128" 
d="M40 440c0 -1.33301 -1.33398 -4.50195 -4.00098 -9.50195s-4.66699 -8.5 -6 -10.5l-10 -10c-0.666992 -1.33301 -1.16699 -3.66602 -1.5 -6.99902s-0.5 -5.66602 -0.5 -6.99902c10.667 0 21.5 2.66699 32.5 8s21 12.166 30 20.499s16.5 17.833 22.5 28.5
s9 21.334 9 32.001c0 12 -3 24.333 -9 37s-16.667 19 -32 19c-6 0 -12.5 -1 -19.5 -3s-13.667 -4.66699 -20 -8s-11.666 -7.5 -15.999 -12.5s-6.5 -10.833 -6.5 -17.5s1.66699 -12 5 -16l10.5 -12c3.66699 -4 7.16699 -8.33301 10.5 -13s5 -11 5 -19z" />
    <glyph glyph-name="parenleft" unicode="(" horiz-adv-x="210" 
d="M10 166c-0.666992 -14 0.332031 -30.668 2.99902 -50.001s7.5 -37.5 14.5 -54.5s16.333 -31.667 28 -44s26.5 -18.5 44.5 -18.5c20.667 0 40.334 5.33301 59.001 16s32.334 26.334 41.001 47.001c-15.333 -5.33301 -28.333 -5.5 -39 -0.5s-19.667 12.833 -27 23.5
s-13.333 23.5 -18 38.5s-8.33398 30.167 -11.001 45.5s-4.33398 30.166 -5.00098 44.499s-1 25.833 -1 34.5c0 49.333 7.83301 95.666 23.5 138.999s41.5 83 77.5 119v20c-23.333 -4 -44.166 -13 -62.499 -27s-34.333 -31.333 -48 -52s-25.334 -43.167 -35.001 -67.5
s-17.667 -49.166 -24 -74.499s-11.166 -50.166 -14.499 -74.499s-5.33301 -45.833 -6 -64.5z" />
    <glyph glyph-name="parenright" unicode=")" horiz-adv-x="260" 
d="M161 357c0 -40 -3 -75.165 -9 -105.498s-15.167 -58.833 -27.5 -85.5s-28 -53 -47 -79s-41.5 -55 -67.5 -87h5h5c2 1.33301 5.5 3.16602 10.5 5.49902s8.16699 4.16602 9.5 5.49902c31.333 26 60 53.333 86 82s48.167 59 66.5 91s32.666 65.5 42.999 100.5
s15.5 72.833 15.5 113.5c0 14 -2 29 -6 45s-10.333 31 -19 45s-19.667 25.5 -33 34.5s-29.333 13.5 -48 13.5c-5.33301 0 -11.166 -0.5 -17.499 -1.5s-12.333 -3.16699 -18 -6.5s-10.5 -7.33301 -14.5 -12s-6 -9.66699 -6 -15c0 -12.667 3.66699 -24.667 11 -36
s15.5 -22.5 24.5 -33.5s17.333 -22.833 25 -35.5s11.5 -25.667 11.5 -39z" />
    <glyph glyph-name="asterisk" unicode="*" horiz-adv-x="370" 
d="M144 348c10.667 0 17.333 -5.00195 20 -15.002s7.33398 -20.667 14.001 -32s12.334 -21.833 17.001 -31.5s7.66699 -14.5 9 -14.5c13.333 0 22 4.83301 26 14.5s8.66699 19.167 14 28.5s7.33301 21.333 6 36s-2 30 -2 46c45.333 10.667 81.333 30.667 108 60l-1 16
c-13.333 0 -25.666 -1.83301 -36.999 -5.5s-24 -5.5 -38 -5.5c-3.33301 0 -10 0.166992 -20 0.5s-16.667 0.5 -20 0.5c-6.66699 4 -11.834 10 -15.501 18s-6.5 16.333 -8.5 25s-3.33301 17.167 -4 25.5s-3.33398 16.833 -8.00098 25.5c-6 -8.66699 -12.667 -16.667 -20 -24
s-14.333 -15 -21 -23l-20 -24c-6.66699 -8 -14.334 -15.667 -23.001 -23c-9.33301 2 -20.5 3.5 -33.5 4.5s-25.5 0.333008 -37.5 -2s-21.167 -3.66602 -27.5 -3.99902s-6.83301 -7.16602 -1.5 -20.499c16 -13.333 33.333 -24 52 -32l16 -4l-20 -36l-46 -76h28l42 22l34 29
c4 3.33301 10 10.333 18 21z" />
    <glyph glyph-name="plus" unicode="+" horiz-adv-x="390" 
d="M6 186c0.666992 -1.33301 2.16797 -3.16797 4.50098 -5.50098s4.16602 -3.83301 5.49902 -4.5l2 -0.5c1.33301 -0.333008 2.33301 -0.5 3 -0.5s1.66699 0.166992 3 0.5l2 0.5c3.33301 1.33301 10 4.5 20 9.5s16.667 8.5 20 10.5h230c5.33301 0 12.5 2.5 21.5 7.5
s17.833 11.333 26.5 19s16.167 15.834 22.5 24.501s9.5 16.667 9.5 24v5l-50 -20h-210c-10 0 -20.167 -2.33301 -30.5 -7s-20.5 -10.5 -30.5 -17.5s-19.333 -14.667 -28 -23s-15.667 -15.833 -21 -22.5z" />
    <glyph glyph-name="comma" unicode="," horiz-adv-x="130" 
d="M50 8c-2 -6.66699 -5.33203 -12.333 -9.99902 -17l-14.5 -14c-5 -4.66699 -9.33301 -9.33398 -13 -14.001s-5.5 -10.334 -5.5 -17.001c10.667 0 22.667 2.83301 36 8.5s25.666 13 36.999 22s21 19.333 29 31s12 23.5 12 35.5c0 5.33301 -0.833008 11.333 -2.5 18
s-4.16699 12.834 -7.5 18.501s-7.5 10.334 -12.5 14.001s-10.833 5.5 -17.5 5.5c-5.33301 0 -11.5 -1.33301 -18.5 -4s-13.833 -6.16699 -20.5 -10.5s-12.167 -9.33301 -16.5 -15s-6.5 -11.167 -6.5 -16.5c0 -0.666992 0.166992 -1.66699 0.5 -3l0.5 -2
c0.666992 -1.33301 2.5 -4 5.5 -8l9 -12l9 -12c3 -4 5.16699 -6.66699 6.5 -8z" />
    <glyph glyph-name="minus" unicode="-" horiz-adv-x="310" 
d="M7 208c28 0 55.335 -2.00293 82.002 -6.00293s54 -6 82 -6c10.667 0 22.167 2 34.5 6s24.333 9.33301 36 16s22.667 14.167 33 22.5s18.833 16.833 25.5 25.5h-15h-15c-1.33301 0 -3.83301 -0.666992 -7.5 -2s-7.83398 -2.5 -12.501 -3.5s-9 -2 -13 -3
s-6.33301 -1.5 -7 -1.5c-6 0 -17.167 -0.166992 -33.5 -0.5s-33.5 -0.5 -51.5 -0.5s-35 0.166992 -51 0.5s-27.333 0.5 -34 0.5c-4.66699 -1.33301 -10 -3.66602 -16 -6.99902s-11.833 -7.16602 -17.5 -11.499s-10.334 -9.16602 -14.001 -14.499s-5.5 -10.333 -5.5 -15z" />
    <glyph glyph-name="period" unicode="." horiz-adv-x="140" 
d="M9 50c0 -15.333 6.66797 -27.834 20.001 -37.501s27 -14.5 41 -14.5c14.667 0 26.334 3 35.001 9s17 17 25 33c-4 14.667 -12 26.834 -24 36.501s-25.667 14.5 -41 14.5c-5.33301 0 -11.333 -1 -18 -3s-12.834 -4.66699 -18.501 -8s-10.334 -7.5 -14.001 -12.5
s-5.5 -10.833 -5.5 -17.5z" />
    <glyph glyph-name="slash" unicode="/" horiz-adv-x="210" 
d="M202 477c-12 0 -22.498 -2.49805 -31.498 -7.49805s-16.667 -11.833 -23 -20.5s-11.833 -18 -16.5 -28s-8.33398 -20.333 -11.001 -31l-110 -389c0.666992 0 2.16699 -0.333008 4.5 -1s4.16602 -1 5.49902 -1c16.667 0 31.334 9.66699 44.001 29
s23.334 41.666 32.001 66.999s15.667 50.166 21 74.499s9.66602 41.833 12.999 52.5l30 116c2.66699 10 6.5 20.833 11.5 32.5s9.66699 23.5 14 35.5s8.16602 24 11.499 36s5 23.667 5 35z" />
    <glyph glyph-name="zero" unicode="0" horiz-adv-x="360" 
d="M9 183c0 -20.667 0.833984 -41.832 2.50098 -63.499s6 -41.5 13 -59.5s17.667 -32.667 32 -44s34.166 -17 59.499 -17c33.333 0 64.333 9.5 93 28.5s53.5 42.833 74.5 71.5s37.5 59.834 49.5 93.501s18 65.167 18 94.5c0 17.333 -1.33301 35.166 -4 53.499s-8 35 -16 50
s-18.833 27.167 -32.5 36.5s-31.5 14 -53.5 14c-30.667 0 -60.167 -8 -88.5 -24s-53.5 -36.5 -75.5 -61.5s-39.5 -52.833 -52.5 -83.5s-19.5 -60.334 -19.5 -89.001zM99.001 215.002c0 12.667 0.832031 28.499 2.49902 47.499s5.33398 37.333 11.001 55
s14.167 32.667 25.5 45s27 18.5 47 18.5c16 0 29.5 -5 40.5 -15s19.833 -22.333 26.5 -37s11.5 -30.167 14.5 -46.5s4.5 -30.5 4.5 -42.5c0 -13.333 -1.33301 -29.666 -4 -48.999s-7.5 -38 -14.5 -56s-16.333 -33.5 -28 -46.5s-26.5 -19.5 -44.5 -19.5
c-20 0 -35.333 5.16699 -46 15.5s-18.667 23 -24 38s-8.5 30.833 -9.5 47.5s-1.5 31.667 -1.5 45z" />
    <glyph glyph-name="one" unicode="1" horiz-adv-x="180" 
d="M59 38c0 -2.66699 -0.167969 -6.16602 -0.500977 -10.499s-0.166016 -8.5 0.500977 -12.5s2.16699 -7.5 4.5 -10.5s6.16602 -4.5 11.499 -4.5c13.333 0 27.166 4 41.499 12s25.5 17.333 33.5 28c-2 34 -2 67.667 0 101s4.66699 66.833 8 100.5s6.5 67.167 9.5 100.5
s4.5 67 4.5 101c-30 0 -60.167 -7.66699 -90.5 -23s-54.166 -35.333 -71.499 -60c1.33301 0 3.83301 -0.166992 7.5 -0.5s6.16699 -0.5 7.5 -0.5c2 0 4.83301 0.166992 8.5 0.5s5.83398 0.5 6.50098 0.5s2.5 0.666992 5.5 2s6.16699 2.5 9.5 3.5s6.5 2 9.5 3
s4.83301 1.5 5.5 1.5c4 0 6.83301 -1.83301 8.5 -5.5s2.5 -7.83398 2.5 -12.501s-0.166992 -9 -0.5 -13l-0.5 -6c0 -50 -3.5 -99.333 -10.5 -148s-10.5 -97.667 -10.5 -147z" />
    <glyph glyph-name="two" unicode="2" horiz-adv-x="362" 
d="M89 39c12.667 0 24.668 -2.00293 36.001 -6.00293s22.5 -8.5 33.5 -13.5s22.167 -9.66699 33.5 -14s23.333 -6.5 36 -6.5c24 0 45 3.66699 63 11s37.667 16.666 59 27.999c0 0.666992 0.166992 2.16699 0.5 4.5s0.5 4.16602 0.5 5.49902
c0 7.33301 -7.83301 12.833 -23.5 16.5s-33.834 7.33398 -54.501 11.001s-40.834 9 -60.501 16s-33.834 17.833 -42.501 32.5c5.33301 4 14.666 12.333 27.999 25l42.5 40.5l42 40.5c13 12.667 22.167 21.334 27.5 26.001c11.333 12 20.833 26.833 28.5 44.5
s11.5 34.5 11.5 50.5c0 14 -3.5 26.5 -10.5 37.5s-16 20 -27 27s-23.167 12.333 -36.5 16s-26.666 5.5 -39.999 5.5c-22.667 0 -44.667 -3.5 -66 -10.5s-40.166 -17.167 -56.499 -30.5s-29.5 -29 -39.5 -47s-15 -37.667 -15 -59c0 -3.33301 -0.333008 -8.33301 -1 -15
s-0.5 -13.667 0.5 -21s2.83301 -13.666 5.5 -18.999s7.66699 -8 15 -8c11.333 0 22.666 4.33301 33.999 13s17 19 17 31v4l-10 57v6c0 5.33301 2.16699 10.5 6.5 15.5s9.5 9.33301 15.5 13s12.5 6.83398 19.5 9.50098s13.167 4 18.5 4c10 0 20.5 -1.83301 31.5 -5.5
s20.833 -8.5 29.5 -14.5s15.834 -13.333 21.501 -22s8.5 -18.334 8.5 -29.001c0 -21.333 -5.33301 -40.666 -16 -57.999s-24.167 -33.666 -40.5 -48.999s-34.666 -30.5 -54.999 -45.5l-59.5 -45c-19.333 -15 -37.166 -30.833 -53.499 -47.5s-28.5 -34.667 -36.5 -54
c0.666992 0 2.16699 -0.166992 4.5 -0.5s4.16602 -0.5 5.49902 -0.5c6.66699 0 12.834 1.5 18.501 4.5s11.167 6.5 16.5 10.5s10.666 7.5 15.999 10.5s11.333 4.5 18 4.5z" />
    <glyph glyph-name="three" unicode="3" horiz-adv-x="370" 
d="M9 64c0 -9.33301 4.66699 -17.665 14 -24.998s20.333 -13.833 33 -19.5s25.5 -10.334 38.5 -14.001s23.167 -5.5 30.5 -5.5c22.667 0 47.834 5.5 75.501 16.5s53.334 25.333 77.001 43s43.5 37.5 59.5 59.5s24 44.667 24 68c0 18.667 -4.83301 34.5 -14.5 47.5
s-20.167 24.333 -31.5 34s-21.833 18 -31.5 25s-14.5 14.167 -14.5 21.5l0.5 1.5c0.333008 1 0.5 1.83301 0.5 2.5c4 4.66699 10 11 18 19s15.833 16.667 23.5 26s14.5 19 20.5 29s9 19.333 9 28c0 2.66699 -0.166992 7.16699 -0.5 13.5s-3.83301 9.5 -10.5 9.5h-150
c-4.66699 0 -9.5 -1.5 -14.5 -4.5s-9.5 -6.66699 -13.5 -11s-7.16699 -8.83301 -9.5 -13.5s-3.5 -9 -3.5 -13c0 -0.666992 0.166992 -1.66699 0.5 -3l0.5 -2c1.33301 -2.66699 3.16602 -5.83398 5.49902 -9.50098s3.83301 -5.5 4.5 -5.5h97
c0 -14.667 -5.16699 -26.667 -15.5 -36s-21.5 -18 -33.5 -26s-23.167 -16.333 -33.5 -25s-15.5 -20 -15.5 -34c0 -0.666992 0.166992 -2.16699 0.5 -4.5s0.5 -3.83301 0.5 -4.5l42.5 -18.5c14.333 -6.33301 27.333 -14 39 -23s21.167 -19.667 28.5 -32s11 -26.833 11 -43.5
c0 -12 -2.83301 -21.833 -8.5 -29.5s-12.834 -13.5 -21.501 -17.5s-18.167 -6.83301 -28.5 -8.5s-20.166 -2.5 -29.499 -2.5c-11.333 0 -21.833 1.66699 -31.5 5s-19.167 6.83301 -28.5 10.5s-18.833 7.16699 -28.5 10.5s-19.834 5 -30.501 5
c-12 0 -24.167 -4.16699 -36.5 -12.5s-18.5 -18.833 -18.5 -31.5z" />
    <glyph glyph-name="four" unicode="4" horiz-adv-x="554" 
d="M280 99c0 -3.33301 -0.166992 -9.33203 -0.5 -17.999s-0.5 -17.667 -0.5 -27c0 -10 0.166992 -19.333 0.5 -28s0.5 -14.667 0.5 -18c1.33301 -11.333 2.66602 -19 3.99902 -23s6.33301 -6 15 -6c4 0 10.5 1.5 19.5 4.5s18 6.66699 27 11s17 9.33301 24 15
s10.5 11.167 10.5 16.5v73l10 9c12.667 0 30.834 1.33301 54.501 4s43.5 6.33398 59.5 11.001s27.333 17.667 34 39s4 30.833 -8 28.5s-24.167 -4.5 -36.5 -6.5s-24.833 -3 -37.5 -3h-12h-14.5h-13.5h-6l-20 10c0 0.666992 -0.166992 4.16699 -0.5 10.5
s-0.5 11.166 -0.5 14.499c0 33.333 3.5 66.5 10.5 99.5s10.5 66.167 10.5 99.5v4c-1.33301 4 -4.16602 9.66699 -8.49902 17s-9.83301 11 -16.5 11s-17.5 -4.83301 -32.5 -14.5s-31 -20.834 -48 -33.501s-33.333 -25.667 -49 -39s-27.5 -24 -35.5 -32l-70 -73l-140 -128
c0 -0.666992 -0.166992 -1.5 -0.5 -2.5s-0.5 -1.83301 -0.5 -2.5s0.166992 -1.66699 0.5 -3l0.5 -2l10 -5c5.33301 -2.66699 8.66602 -4 9.99902 -4h240zM300 324.001l12 0.000976562c0 -5.33301 -0.166992 -15.333 -0.5 -30s-1.5 -29.834 -3.5 -45.501
s-5.16699 -29.667 -9.5 -42s-10.5 -18.5 -18.5 -18.5h-140z" />
    <glyph glyph-name="five" unicode="5" horiz-adv-x="510" 
d="M10 77c2.66699 -16 10.5059 -29 23.5059 -39s28 -17.833 45 -23.5s34.667 -9.5 53 -11.5s34.5 -3 48.5 -3c28 -0 56.833 5.33301 86.5 16s56.667 25 81 43s44.166 39.5 59.499 64.5s23 52.167 23 81.5c0 25.333 -8.66699 44.833 -26 58.5s-38 23.5 -62 29.5
s-48.333 9.33301 -73 10s-44.334 1.33398 -59.001 2.00098c0 1.33301 -0.166992 4.5 -0.5 9.5s-0.5 8.16699 -0.5 9.5c0 8.66699 1.33301 17.334 4 26.001s8.33398 15.667 17.001 21c7.33301 -0.666992 19.166 -0.833984 35.499 -0.500977s34.666 1.33301 54.999 3
s41.166 4.5 62.499 8.5s40.833 9.16699 58.5 15.5s32.167 14.333 43.5 24s17 21.5 17 35.5c0 1.33301 -0.333008 3.16602 -1 5.49902l-1 3.5c-32 -11.333 -64.5 -17.5 -97.5 -18.5s-65 -2.83301 -96 -5.5s-60.667 -8.66699 -89 -18s-54.166 -27 -77.499 -53
c-1.33301 -5.33301 -3.5 -15.833 -6.5 -31.5l-9 -49c-3 -17 -6 -33.167 -9 -48.5s-4.83301 -26 -5.5 -32c0 -0.666992 -0.166992 -3.33398 -0.5 -8.00098l-0.5 -7c12 0 22.667 2.33301 32 7s18.333 9.66699 27 15s17.667 10.333 27 15s20 7 32 7
c14.667 0 28.834 -2 42.501 -6s25.667 -10.167 36 -18.5s18.666 -18.5 24.999 -30.5s9.5 -25.667 9.5 -41c0 -13.333 -2.83301 -24.833 -8.5 -34.5s-13.167 -17.5 -22.5 -23.5s-19.833 -10.5 -31.5 -13.5s-23.834 -4.5 -36.501 -4.5c-34.667 0 -68.334 3.33301 -101.001 10
c-8 0.666992 -14.833 3.33398 -20.5 8.00098l-16.5 13.5c-5.33301 4.33301 -11 8.33301 -17 12s-13.667 5.5 -23 5.5c-6.66699 0 -12.167 -0.666992 -16.5 -2s-8.5 -3.5 -12.5 -6.5s-7.83301 -7 -11.5 -12s-7.83398 -11.167 -12.501 -18.5z" />
    <glyph glyph-name="six" unicode="6" horiz-adv-x="360" 
d="M10 123c0 -16.667 2.66602 -32.334 7.99902 -47.001s13 -27.667 23 -39s21.667 -20.5 35 -27.5s28 -10.5 44 -10.5c21.333 0 43 4 65 12s43.167 18.5 63.5 31.5s39.333 27.167 57 42.5s32.5 31.333 44.5 48c0 2 0.166992 6.83301 0.5 14.5s0.5 12.834 0.5 15.501
c0 28.667 -6 51.334 -18 68.001s-33 25 -63 25c-13.333 0 -26.166 -2 -38.499 -6s-24.5 -8.5 -36.5 -13.5s-24.167 -9.66699 -36.5 -14s-24.5 -6.5 -36.5 -6.5c0 22.667 3.33301 44.667 10 66s16 41.166 28 59.499s26.5 35 43.5 50s35.833 27.167 56.5 36.5v12
c-35.333 0 -68.333 -10.5 -99 -31.5s-57.167 -47.333 -79.5 -79s-39.833 -66 -52.5 -103s-19 -71.5 -19 -103.5zM118.999 130c0 12.667 3.66699 23.499 11 32.499s16.333 16.333 27 22s22.167 9.83398 34.5 12.501s23.5 4 33.5 4c2.66699 0 8.5 -0.166992 17.5 -0.5
s14.833 -0.5 17.5 -0.5c7.33301 -6.66699 11 -15.334 11 -26.001v-28c0 -10.667 -2.66699 -21.167 -8 -31.5s-12.333 -19.666 -21 -27.999s-18.5 -15 -29.5 -20s-22.167 -7.5 -33.5 -7.5c-6.66699 0 -13.5 2.33301 -20.5 7s-13.5 10.667 -19.5 18s-10.833 15 -14.5 23
s-5.5 15.667 -5.5 23z" />
    <glyph glyph-name="seven" unicode="7" horiz-adv-x="350" 
d="M80 20c1.33301 -2 4.50098 -5.49805 9.50098 -10.498s8.5 -8.16699 10.5 -9.5h4c8 0 17 1.66699 27 5s19.5 8 28.5 14s16.5 13 22.5 21s9 16.333 9 25c0 0.666992 -0.166992 1.66699 -0.5 3l-0.5 2c-0.666992 0.666992 -2 2.5 -4 5.5l-6.5 9.5l-6.5 9.5
c-2 3 -3 4.83301 -3 5.5v9c0 34.667 6 66.334 18 95.001s26.833 56 44.5 82s36.167 51.333 55.5 76s36.666 50.667 51.999 78h-280c-8.66699 0 -16.167 -4.5 -22.5 -13.5s-11.666 -19.333 -15.999 -31s-7.5 -23 -9.5 -34s-3 -18.833 -3 -23.5
c12.667 0 24.5 2.16699 35.5 6.5s22 9.16602 33 14.499s22.333 10.166 34 14.499s24.5 6.5 38.5 6.5c4 0 9.83301 -0.166992 17.5 -0.5s15.334 -0.833008 23.001 -1.5s14.5 -1.66699 20.5 -3s9 -3 9 -5v-10l-49 -66.5c-16.667 -23.667 -31.834 -48.334 -45.501 -74.001
s-24.834 -52 -33.501 -79s-13 -53.833 -13 -80.5c0 -3.33301 0.166992 -10 0.5 -20s0.5 -16.667 0.5 -20z" />
    <glyph glyph-name="eight" unicode="8" horiz-adv-x="400" 
d="M9 112c0 -27.333 8.16406 -50.8408 24.4971 -70.5078s38.5 -33.5 66.5 -41.5c2 0 5.83301 -0.166992 11.5 -0.5s11.834 -0.666016 18.501 -0.999023s12.834 -0.666016 18.501 -0.999023s9.5 -0.5 11.5 -0.5c24.667 0 50.5 3.83301 77.5 11.5s51.833 18.834 74.5 33.501
s41.334 32.5 56.001 53.5s22 45.167 22 72.5c0 6 -2.83301 13 -8.5 21s-12 15.5 -19 22.5s-13.667 13.167 -20 18.5s-10.5 8.66602 -12.5 9.99902c0 0.666992 -0.166992 1.33398 -0.5 2.00098s-0.5 1.33398 -0.5 2.00098c0 9.33301 3.16699 18 9.5 26s13.5 16 21.5 24
s15.167 16.5 21.5 25.5s9.5 19.167 9.5 30.5c0 14 -3 26.5 -9 37.5s-14 20.5 -24 28.5s-21.333 14.167 -34 18.5s-25.667 6.5 -39 6.5c-21.333 0 -44 -3.66699 -68 -11s-46.167 -17.666 -66.5 -30.999s-37.333 -29.166 -51 -47.499s-20.5 -39.166 -20.5 -62.499
c0 -10 1.83301 -19.167 5.5 -27.5s5.5 -17.166 5.5 -26.499v-5c-20 -15.333 -38.5 -32.333 -55.5 -51s-25.5 -41 -25.5 -67zM88.9971 148.992c0 4.66699 0.167969 10.8311 0.500977 18.498s0.5 11.834 0.5 12.501s1.66699 2.66699 5 6l11.5 11.5l13 13
c4.33301 4.33301 7.83301 7.5 10.5 9.5h4c11.333 0 26.5 -3 45.5 -9s37.5 -14.167 55.5 -24.5s33.5 -22.166 46.5 -35.499s19.5 -27.333 19.5 -42c0 -11.333 -4.5 -20.166 -13.5 -26.499s-19.5 -11.333 -31.5 -15s-24.333 -6 -37 -7s-22.334 -1.5 -29.001 -1.5
c-33.333 0 -58.5 6.66699 -75.5 20s-25.5 36.666 -25.5 69.999zM168.998 338.989c0 10.667 2 18.834 6 24.501s9.5 10 16.5 13s15.167 4.66699 24.5 5s19.666 0.5 30.999 0.5c10 0 19 -2.5 27 -7.5s14.667 -11.167 20 -18.5s9.5 -15.333 12.5 -24s4.5 -16.667 4.5 -24
c0 -11.333 -2.66699 -20.333 -8 -27s-14.666 -10 -27.999 -10c-11.333 0 -23.333 1.5 -36 4.5s-24.167 7.33301 -34.5 13s-18.833 12.667 -25.5 21s-10 18.166 -10 29.499z" />
    <glyph glyph-name="nine" unicode="9" horiz-adv-x="280" 
d="M50 10l10.0029 -10.002c0.666992 -0.666992 3.5 0 8.5 2s10.667 4.5 17 7.5s12.666 6.33301 18.999 10s11.5 7.16699 15.5 10.5c22.667 17.333 43.334 37.833 62.001 61.5s34.5 49.334 47.5 77.001s23 56.167 30 85.5s10.5 58 10.5 86c0 10 -2.5 20.833 -7.5 32.5
s-11.5 22.5 -19.5 32.5s-17 18.5 -27 25.5s-20 10.5 -30 10.5c-21.333 0 -42.5 -4.5 -63.5 -13.5s-39.833 -21.167 -56.5 -36.5s-30.334 -33.166 -41.001 -53.499s-16 -41.5 -16 -63.5c0 -24.667 6.33301 -41.667 19 -51s29.667 -14 51 -14
c15.333 0 30.166 1.66699 44.499 5s29.166 5 44.499 5c0 -42 -11.167 -81 -33.5 -117s-50.5 -66.667 -84.5 -92zM89.0029 329.998c0 9.33301 2.66797 18.5 8.00098 27.5s13 13.5 23 13.5c8.66699 0 16.667 -2.16699 24 -6.5s13.666 -10 18.999 -17
s9.66602 -14.667 12.999 -23s5 -16.5 5 -24.5c0 -10 -4.5 -17.667 -13.5 -23s-18.167 -8 -27.5 -8c-17.333 0 -30.166 6.33301 -38.499 19s-12.5 26.667 -12.5 42z" />
    <glyph glyph-name="colon" unicode=":" horiz-adv-x="150" 
d="M9 45c0 -4 1.16602 -8.66895 3.49902 -14.002s5.5 -10.333 9.5 -15s8.5 -8.66699 13.5 -12s9.83301 -5 14.5 -5s10.5 1.16699 17.5 3.5s13.667 5.33301 20 9s11.833 8 16.5 13s7 10.167 7 15.5c0 12 -4.66699 21.833 -14 29.5s-19.666 11.5 -30.999 11.5
c-4.66699 0 -10.167 -0.833008 -16.5 -2.5s-12.5 -4.16699 -18.5 -7.5s-11.167 -7.16602 -15.5 -11.499s-6.5 -9.16602 -6.5 -14.499zM38.999 330.998c0 -28 13.6631 -42 40.9961 -42c4.66699 0 10.334 0.666992 17.001 2s13.334 3.5 20.001 6.5s12.334 6.66699 17.001 11
s7 9.83301 7 16.5c0 11.333 -4.83301 21.833 -14.5 31.5s-20.167 14.5 -31.5 14.5c-5.33301 0 -11.166 -0.833008 -17.499 -2.5s-12.333 -4.16699 -18 -7.5s-10.5 -7.5 -14.5 -12.5s-6 -10.833 -6 -17.5z" />
    <glyph glyph-name="semicolon" unicode=";" horiz-adv-x="168" 
d="M50 12c-2 -6.66699 -5.33203 -12.333 -9.99902 -17l-14.5 -14c-5 -4.66699 -9.33301 -9.33398 -13 -14.001s-5.5 -10.334 -5.5 -17.001c10.667 0 22.667 2.83301 36 8.5s25.666 13 36.999 22s21 19.333 29 31s12 23.5 12 35.5c0 5.33301 -0.833008 11.333 -2.5 18
s-4.16699 12.834 -7.5 18.501s-7.5 10.334 -12.5 14.001s-10.833 5.5 -17.5 5.5c-5.33301 0 -11.5 -1.33301 -18.5 -4s-13.833 -6.16699 -20.5 -10.5s-12.167 -9.33301 -16.5 -15s-6.5 -11.167 -6.5 -16.5c0 -0.666992 0.166992 -1.66699 0.5 -3l0.5 -2
c0.666992 -1.33301 2.5 -4 5.5 -8l9 -12l9 -12c3 -4 5.16699 -6.66699 6.5 -8zM40.001 329.001v-7.99902c0 -1.33301 1.5 -3.16602 4.5 -5.49902s6.83301 -4.83301 11.5 -7.5l14.5 -8c5 -2.66699 9.16699 -4.66699 12.5 -6c0.666992 0 3.16699 -0.166992 7.5 -0.5
s7.5 -0.5 9.5 -0.5c5.33301 0 11 0.666992 17 2s11.833 3.5 17.5 6.5s10.5 6.83301 14.5 11.5s6 10 6 16s-2.33301 11.667 -7 17s-10 10.166 -16 14.499s-12.333 7.83301 -19 10.5s-12.667 4 -18 4c-1.33301 0 -6 -1.83301 -14 -5.5s-14.333 -8.83398 -19 -15.501z" />
    <glyph glyph-name="less" unicode="&#x3c;" horiz-adv-x="410" 
d="M20 320c-9.33301 -4 -15.332 -8.99707 -17.999 -14.9971s-4 -13 -4 -21c0 -6.66699 7.5 -17.667 22.5 -33s34.333 -32.5 58 -51.5s49.667 -38.5 78 -58.5s56 -38.333 83 -55s51.333 -30.334 73 -41.001s37.5 -16 47.5 -16c11.333 0 21 3.16699 29 9.5
s12 15.166 12 26.499c0 4.66699 -1 10.167 -3 16.5s-4.5 12.333 -7.5 18s-6.83301 10.5 -11.5 14.5s-9.33398 6 -14.001 6c-6.66699 0 -12.334 -1.66699 -17.001 -5s-10.667 -5 -18 -5c-18 0 -36.667 4.33301 -56 13s-38 19.5 -56 32.5s-34.667 27.167 -50 42.5
s-28 29.333 -38 42c0 0.666992 -0.166992 1.5 -0.5 2.5s-0.5 1.83301 -0.5 2.5c0 6 6 11.167 18 15.5s27 8.33301 45 12s37.333 7.16699 58 10.5s40 7.33301 58 12s33 10.167 45 16.5s18 13.833 18 22.5c0 8 -0.833008 18.333 -2.5 31l-4.5 35
c-1.33301 10.667 -6.66602 18.667 -15.999 24s-20.666 0 -33.999 -16l-24 -18l-7 -2.5l-16.5 -6c-6.33301 -2.33301 -12.833 -4.5 -19.5 -6.5l-17 -5c-16.667 -4.66699 -33.667 -9.83398 -51 -15.501s-34.833 -11 -52.5 -16s-35.334 -9.16699 -53.001 -12.5
s-35.5 -5.33301 -53.5 -6z" />
    <glyph glyph-name="equal" unicode="=" horiz-adv-x="394" 
d="M70 112c19.333 0 38.168 -3.50098 56.501 -10.501s37.5 -10.5 57.5 -10.5c13.333 0 30.333 2.16699 51 6.5s40.667 10.833 60 19.5s36 19.667 50 33s21 29 21 47c-14 0 -26.167 -3.33301 -36.5 -10s-20.166 -15 -29.499 -25h-210c-15.333 0 -30.333 -5.66699 -45 -17
s-26.334 -22.333 -35.001 -33c0.666992 -1.33301 2.16699 -3.16602 4.5 -5.49902s4.16602 -3.83301 5.49902 -4.5h5c8 0 15.5 1.66699 22.5 5s14.5 5 22.5 5zM94.002 271.999c19.333 0 38.168 -3.50098 56.501 -10.501s37.5 -10.5 57.5 -10.5
c13.333 0 30.333 2.16699 51 6.5s40.667 10.833 60 19.5s36 19.667 50 33s21 29 21 47c-14 0 -26.167 -3.33301 -36.5 -10s-20.166 -15 -29.499 -25h-210c-15.333 0 -30.333 -5.66699 -45 -17s-26.334 -22.333 -35.001 -33c0.666992 -1.33301 2.16699 -3.16602 4.5 -5.49902
s4.16602 -3.83301 5.49902 -4.5h5c8 0 15.5 1.66699 22.5 5s14.5 5 22.5 5z" />
    <glyph glyph-name="greater" unicode="&#x3e;" horiz-adv-x="410" 
d="M379 320c-18 0.666992 -35.832 2.66406 -53.499 5.99707s-35.334 7.5 -53.001 12.5s-35.167 10.333 -52.5 16s-34.333 10.834 -51 15.501l-17 5c-6.66699 2 -13.167 4.16699 -19.5 6.5l-16.5 6l-7 2.5l-24 18c-13.333 16 -24.666 21.333 -33.999 16
s-14.666 -13.333 -15.999 -24l-4.5 -35c-1.66699 -12.667 -2.5 -23 -2.5 -31c0 -8.66699 6 -16.167 18 -22.5s27 -11.833 45 -16.5s37.333 -8.66699 58 -12s40 -6.83301 58 -10.5s33 -7.66699 45 -12s18 -9.5 18 -15.5c0 -0.666992 -0.166992 -1.5 -0.5 -2.5
s-0.5 -1.83301 -0.5 -2.5c-10 -12.667 -22.667 -26.667 -38 -42s-32 -29.5 -50 -42.5s-36.667 -23.833 -56 -32.5s-38 -13 -56 -13c-7.33301 0 -13.333 1.66699 -18 5s-10.334 5 -17.001 5c-4.66699 0 -9.33398 -2 -14.001 -6s-8.5 -8.83301 -11.5 -14.5
s-5.5 -11.667 -7.5 -18s-3 -11.833 -3 -16.5c0 -11.333 4 -20.166 12 -26.499s17.667 -9.5 29 -9.5c10 0 25.833 5.33301 47.5 16s46 24.334 73 41.001s54.667 35 83 55s54.333 39.5 78 58.5s43 36.167 58 51.5s22.5 26.333 22.5 33c0 8 -1.33301 15 -4 21
s-8.66699 11 -18 15z" />
    <glyph glyph-name="question" unicode="?" horiz-adv-x="360" 
d="M58 40c0 -10 4.16699 -19.333 12.5 -28s17.833 -13 28.5 -13c6 0 13 1 21 3s15.833 5 23.5 9s14.167 8.83301 19.5 14.5s8 12.167 8 19.5c0 0.666992 -0.166992 1.5 -0.5 2.5s-0.5 1.83301 -0.5 2.5c-9.33301 11.333 -17.833 19.333 -25.5 24s-17.5 7 -29.5 7
s-24.5 -3.5 -37.5 -10.5s-19.5 -17.167 -19.5 -30.5zM39 189c0 -9.33301 0.998047 -18.333 2.99805 -27s9.33301 -13 22 -13c6.66699 0 14.334 0.666992 23.001 2s17 3.5 25 6.5s14.833 7.16699 20.5 12.5s8.5 11.666 8.5 18.999c0 8 -2 14.667 -6 20s-6 12 -6 20
c0 5.33301 5.5 11 16.5 17s24.667 12.5 41 19.5s34.166 15.167 53.499 24.5s37.166 19.666 53.499 30.999s30 24.166 41 38.499s16.5 30.5 16.5 48.5c0 40 -12 70.167 -36 90.5s-55.667 30.5 -95 30.5c-18 0 -40.167 -2.5 -66.5 -7.5s-49.333 -12.833 -69 -23.5
s-37.167 -24 -52.5 -40s-23 -35 -23 -57c0 -9.33301 2.33301 -18 7 -26s12.667 -12 24 -12c10.667 0 18.334 2.83301 23.001 8.5s7.83398 12.834 9.50098 21.501s2.83398 18 3.50098 28s3 19.5 7 28.5s10.167 16.333 18.5 22s21.166 8.5 38.499 8.5
c14.667 0 29.167 -2.66699 43.5 -8s27.333 -12.833 39 -22.5s21 -20.834 28 -33.501s10.5 -26.667 10.5 -42c0 -12 -4.33301 -22.667 -13 -32s-19.667 -18.166 -33 -26.499s-28.333 -16.5 -45 -24.5l-49.5 -24c-16.333 -8 -31.666 -16.833 -45.999 -26.5
s-25.833 -20.167 -34.5 -31.5c0 -1.33301 -0.166992 -4.66602 -0.5 -9.99902s-0.5 -8.66602 -0.5 -9.99902z" />
    <glyph glyph-name="at" unicode="@" horiz-adv-x="460" 
d="M10 122c10 -12.667 18.499 -25.5078 25.499 -38.5078s14.667 -24.833 23 -35.5s18.333 -19.334 30 -26.001s27.167 -10 46.5 -10c14.667 0 32.834 4.5 54.501 13.5s43.334 19.833 65.001 32.5s41.334 25.834 59.001 39.501s29.834 25.167 36.501 34.5
c-0.666992 0 -2.16699 0.166992 -4.5 0.5s-4.16602 0.5 -5.49902 0.5c-12 0 -23.5 -3.16699 -34.5 -9.5s-22.167 -13.333 -33.5 -21s-22.833 -14.667 -34.5 -21s-24.167 -9.5 -37.5 -9.5c-16 0 -32.333 3.66699 -49 11s-31.667 17 -45 29s-24.333 25.833 -33 41.5
s-13 31.834 -13 48.501c0 26.667 7.16699 54.334 21.5 83.001s32.833 54.334 55.5 77.001s48.334 40 77.001 52s57.334 14.667 86.001 8c11.333 -2.66699 22.5 -7.5 33.5 -14.5s20.667 -15.333 29 -25s15.166 -20.167 20.499 -31.5s8 -23 8 -35
c0 -5.33301 -1.83301 -12.166 -5.5 -20.499s-8.33398 -16.5 -14.001 -24.5s-11.667 -15 -18 -21s-12.5 -9 -18.5 -9c-0.666992 0 -1.66699 0.166992 -3 0.5l-2 0.5c-0.666992 0.666992 -2.33398 2.16699 -5.00098 4.5s-4.33398 4.16602 -5.00098 5.49902
c-6 8.66699 -10.333 18 -13 28s-4.5 20.333 -5.5 31s-1.5 21 -1.5 31v30c-1.33301 0 -3.83301 0.166992 -7.5 0.5s-6.16699 0.5 -7.5 0.5c-20 0 -39 -6.16699 -57 -18.5s-33.667 -27.666 -47 -45.999s-23.833 -38 -31.5 -59s-11.5 -40.167 -11.5 -57.5
c0 -3.33301 0.166992 -10 0.5 -20s0.833008 -16.667 1.5 -20c0.666992 -1.33301 2.16699 -3.16602 4.5 -5.49902s4.16602 -3.83301 5.49902 -4.5l2 -0.5c1.33301 -0.333008 2.33301 -0.5 3 -0.5s1.66699 0.166992 3 0.5l2 0.5c2 0.666992 6.83301 3.16699 14.5 7.5l25 13.5
c9 4.66699 17.5 8.83398 25.5 12.501s13 5.83398 15 6.50098s7.33301 1 16 1c9.33301 0 19 -0.166992 29 -0.5s19.333 -0.5 28 -0.5h17c14.667 1.33301 26.667 6 36 14s17 17.5 23 28.5s11.333 22.5 16 34.5s9.66699 23 15 33c0.666992 0.666992 2.5 3 5.5 7
s6.33301 8.16699 10 12.5s7 8.5 10 12.5s4.5 6.66699 4.5 8c0.666992 0.666992 1.16699 4.83398 1.5 12.501s0.5 13.5 0.5 17.5c0 20.667 -4.83301 37.5 -14.5 50.5s-22 23.167 -37 30.5s-31.333 12.5 -49 15.5s-34.834 4.5 -51.501 4.5c-34 0 -68.333 -8.66699 -103 -26
s-66 -40 -94 -68s-50.667 -59.333 -68 -94s-26 -69 -26 -103v-10c0 -4.66699 0.166992 -9.66699 0.5 -15s0.5 -10.333 0.5 -15v-10zM188.999 246.992c0 14.667 2.99707 27.499 8.99707 38.499s17 21.167 33 30.5c10 -6.66699 15 -14.667 15 -24v-26
c0 -4 -0.166992 -9.33301 -0.5 -16s-1.66602 -13.334 -3.99902 -20.001s-5.66602 -12.5 -9.99902 -17.5s-11.166 -7.5 -20.499 -7.5c-7.33301 0 -12.666 1.66699 -15.999 5s-5.33301 7.33301 -6 12s-0.833984 9.33398 -0.500977 14.001s0.5 8.33398 0.5 11.001z" />
    <glyph glyph-name="A" unicode="A" horiz-adv-x="740" 
d="M9 99c0 -18.667 4.00391 -34.6641 12.0039 -47.9971s18.667 -24.333 32 -33s28.666 -15.334 45.999 -20.001s35.333 -7 54 -7c22 0 43.5 2.83301 64.5 8.5s41.5 12.667 61.5 21s39.167 17.833 57.5 28.5s36.166 22.334 53.499 35.001h5c6 0 11.833 -1 17.5 -3
s11.167 -4.16699 16.5 -6.5l16.5 -7c5.66699 -2.33301 12.167 -3.5 19.5 -3.5c13.333 0 24.5 1.16699 33.5 3.5s19.5 7.83301 31.5 16.5c-1.33301 -8 -2 -16.667 -2 -26c0 -10 1.16699 -19 3.5 -27s6.33301 -15 12 -21s14.167 -9 25.5 -9c10 0 22.5 2.5 37.5 7.5
s29.5 11.167 43.5 18.5s25.833 15.833 35.5 25.5s14.5 20.167 14.5 31.5c0 1.33301 -1.33301 3.16602 -4 5.49902s-4.66699 3.5 -6 3.5c-8.66699 -5.33301 -16.834 -9.83301 -24.501 -13.5s-16.5 -5.5 -26.5 -5.5c-6 0 -10.5 1.83301 -13.5 5.5s-5 7.83398 -6 12.501
s-1.33301 9.66699 -1 15s0.5 9.66602 0.5 12.999c0 22 2 44.667 6 68s9 46.5 15 69.5s12.667 46 20 69s14 44.833 20 65.5c2 6 5.83301 14.833 11.5 26.5l18 37.5c6.33301 13.333 11.833 26.333 16.5 39s7 23 7 31h-23c-9.33301 0 -25.333 -0.166992 -48 -0.5
s-46.667 -1 -72 -2s-49.5 -1.83301 -72.5 -2.5s-38.833 -1.33398 -47.5 -2.00098c-34 -3.33301 -65.333 -11.833 -94 -25.5s-54.667 -31.167 -78 -52.5s-44.833 -44 -64.5 -68s-34.834 -50.667 -45.501 -80c-12.667 -5.33301 -26.5 -9.83301 -41.5 -13.5
s-28.5 -8.66699 -40.5 -15s-24.5 -13.833 -37.5 -22.5s-22.5 -19 -28.5 -31l-16 -34.5c-4 -9 -7.16699 -17.333 -9.5 -25s-3.83301 -15.334 -4.5 -23.001s-1 -17.5 -1 -29.5zM89.0039 149.003c0 21.333 7 37.832 21 49.499s35.333 17.5 64 17.5
c12.667 0 29.667 -3.83301 51 -11.5s42 -16.667 62 -27s37.333 -21 52 -32s22 -20.167 22 -27.5c0 -10 -6 -18.5 -18 -25.5s-26 -13.167 -42 -18.5s-32.167 -9.33301 -48.5 -12s-28.833 -4 -37.5 -4c-16 0 -31.667 2.33301 -47 7s-28.833 10.834 -40.5 18.501s-21 17 -28 28
s-10.5 23.5 -10.5 37.5zM480.004 170.002c-2.66699 4.66699 -0.833008 10.501 5.5 17.501s14.166 13.833 23.499 20.5s19 12.667 29 18s17.333 9 22 11c0 -1.33301 0.166992 -5.33301 0.5 -12s0.5 -11 0.5 -13c0 -3.33301 -0.166992 -8.83301 -0.5 -16.5
s-1.16602 -15.667 -2.49902 -24s-3.33301 -16 -6 -23s-6.66699 -11.167 -12 -12.5c-4.66699 -0.666992 -10.167 0.333008 -16.5 3s-12.5 5.66699 -18.5 9s-11.333 7.16602 -16 11.499s-7.66699 7.83301 -9 10.5zM259.005 316.003c0 20.667 7.16895 38.5 21.502 53.5
s32.5 27.5 54.5 37.5s46.333 17.333 73 22s52 7 76 7h53.5c16.333 0 33.833 -3 52.5 -9v-14c0 -6 -1.5 -15 -4.5 -27s-7.33301 -25.167 -13 -39.5s-12.5 -29.333 -20.5 -45s-16.833 -29.5 -26.5 -41.5s-20 -22.333 -31 -31s-20.5 -14.334 -28.5 -17.001
s-14.667 -2.66699 -20 0c-8 5.33301 -14.833 10.5 -20.5 15.5s-13.834 10.333 -24.501 16s-20.834 10.834 -30.501 15.501l-20.5 10l-25.5 7.5l-30 9c-9.66699 3 -18 6.83301 -25 11.5s-10.5 11 -10.5 19z" />
    <glyph glyph-name="B" unicode="B" 
d="M9 39c0 -10 4.16309 -17.6719 12.4961 -23.0049s18.333 -9.16602 30 -11.499s23.334 -3.83301 35.001 -4.5s20.834 -1 27.501 -1c30 0 62.833 5 98.5 15s68.834 24.5 99.501 43.5s56.334 42.333 77.001 70s31 58.5 31 92.5c0 17.333 -3.66699 32 -11 44
s-16.666 22.5 -27.999 31.5s-24.166 16.5 -38.499 22.5l-42.5 17c0 0.666992 -0.166992 1.5 -0.5 2.5s-0.5 1.83301 -0.5 2.5c0 7.33301 4.33301 14.833 13 22.5l28.5 25c10.333 9 19.833 18.833 28.5 29.5s13 23 13 37c0 12.667 -2.5 22.834 -7.5 30.501s-11.5 14 -19.5 19
s-17 8.66699 -27 11s-20.333 3.5 -31 3.5c-5.33301 0 -14.833 -0.5 -28.5 -1.5s-29.334 -2.66699 -47.001 -5s-36 -5.33301 -55 -9s-36.5 -8.16699 -52.5 -13.5s-29.167 -11.666 -39.5 -18.999s-15.5 -15.666 -15.5 -24.999c0 -2.66699 1.66699 -5.66699 5 -9
s6.83301 -7.16602 10.5 -11.499s7.16699 -9 10.5 -14s5 -10.833 5 -17.5c0 -22.667 -0.333008 -46.667 -1 -72s-1.66699 -50.666 -3 -75.999s-3.33301 -50.833 -6 -76.5s-6 -49.834 -10 -72.501c-4 -5.33301 -9.5 -9.83301 -16.5 -13.5s-13.833 -7.66699 -20.5 -12
s-12.334 -9 -17.001 -14s-7 -10.833 -7 -17.5zM149.996 259.995c3.33301 11.333 8.33203 17.667 14.999 19s14.334 2 23.001 2c14.667 0 30 -2 46 -6s30.333 -10.333 43 -19s23.167 -19.334 31.5 -32.001s12.5 -27.334 12.5 -44.001c0 -28 -6 -49.667 -18 -65
s-27.167 -26.666 -45.5 -33.999s-39 -11.666 -62 -12.999s-45.5 -2 -67.5 -2c0 14.667 0.833008 31.167 2.5 49.5s3.66699 36.5 6 54.5s4.83301 35 7.5 51s4.66699 29 6 39zM159.995 352.996c0 11.333 0.334961 23.334 1.00195 36.001s3.16699 24 7.5 34
s11.166 18.167 20.499 24.5s23 9.5 41 9.5c8 0 16.167 -0.833008 24.5 -2.5s16 -4.16699 23 -7.5s12.667 -7.5 17 -12.5s6.5 -11.5 6.5 -19.5c0 -1.33301 -0.166992 -2.83301 -0.5 -4.5s-0.5 -2.83398 -0.5 -3.50098l-24 -22c-8.66699 -8 -18 -15.167 -28 -21.5
s-20.833 -12 -32.5 -17s-23.834 -7.5 -36.501 -7.5c-4.66699 0 -9 1.16699 -13 3.5s-6 5.83301 -6 10.5z" />
    <glyph glyph-name="C" unicode="C" horiz-adv-x="460" 
d="M9 184c0 -16.667 2.00391 -35.332 6.00391 -55.999s10.667 -40.667 20 -60s21.666 -35.5 36.999 -48.5s34.666 -19.5 57.999 -19.5c28 0 53.833 1.16699 77.5 3.5s46.167 6.83301 67.5 13.5s41.333 16.5 60 29.5s37 30.167 55 51.5l-10 9l-37 -14
c-10.667 -4 -21.167 -7.16699 -31.5 -9.5s-21.166 -4 -32.499 -5s-24.333 -1.5 -39 -1.5h-12c-5.33301 0 -11.333 0.166992 -18 0.5s-13 0.5 -19 0.5h-11c-36.667 18 -62.667 42.333 -78 73s-23 64.667 -23 102c0 28 5.16699 54.667 15.5 80s23.5 46.833 39.5 64.5
s36 32.667 60 45s52.333 22.833 85 31.5c19.333 0 38.666 -1.83301 57.999 -5.5s39 -5.5 59 -5.5c4.66699 0 9.66699 1.5 15 4.5s10.5 6.66699 15.5 11s9.5 8.5 13.5 12.5s7.33301 7.66699 10 11c-4 6.66699 -10.5 11.5 -19.5 14.5s-18.667 5 -29 6s-20.333 1.16699 -30 0.5
s-16.834 -1 -21.501 -1c-48 0 -92.833 -8.83301 -134.5 -26.5s-77.834 -41.834 -108.501 -72.501s-54.667 -66.5 -72 -107.5s-26 -84.833 -26 -131.5z" />
    <glyph glyph-name="D" unicode="D" horiz-adv-x="560" 
d="M10 30c6 -8.66699 15.833 -15.1689 29.5 -19.502s28.334 -7.33301 44.001 -9s31.167 -2.5 46.5 -2.5h37c32.667 0 65.167 4.16699 97.5 12.5s63.166 20.166 92.499 35.499s56.166 34.333 80.499 57s45.166 48 62.499 76c2 4 5.83301 10.833 11.5 20.5
s11.334 20.5 17.001 32.5s10.667 24.167 15 36.5s6.5 22.5 6.5 30.5c0 35.333 -5.66699 66.833 -17 94.5s-27.333 50.834 -48 69.501s-45 32.834 -73 42.501s-58.667 14.5 -92 14.5c-16 0 -38.667 -1 -68 -3s-59 -5.83301 -89 -11.5s-57.5 -13.834 -82.5 -24.501
s-41.833 -24.667 -50.5 -42c-0.666992 -1.33301 -1.16699 -1.16602 -1.5 0.500977s-0.5 1.83398 -0.5 0.500977c16.667 0 28.667 -3.16699 36 -9.5s12.333 -14.5 15 -24.5s3.66699 -21.167 3 -33.5s-1 -24.5 -1 -36.5c0 -25.333 -0.833008 -51.5 -2.5 -78.5s-5 -54 -10 -81
s-12.167 -53.167 -21.5 -78.5s-21.666 -48.333 -36.999 -69zM120 83.998l0.00292969 6.00195l50 340c1.33301 10 5 17.167 11 21.5s13 7.16602 21 8.49902s16.333 1.83301 25 1.5s16.334 -0.5 23.001 -0.5c26 0 51.167 -4 75.5 -12s45.666 -19.833 63.999 -35.5
s33.166 -34.667 44.499 -57s17 -47.5 17 -75.5c0 -35.333 -6 -66.666 -18 -93.999s-28.5 -50.333 -49.5 -69s-45.833 -33 -74.5 -43s-60 -15 -94 -15c-4.66699 0 -12.334 0.166992 -23.001 0.5s-21.334 1.16602 -32.001 2.49902s-20 3.66602 -28 6.99902s-12 8 -12 14z" />
    <glyph glyph-name="E" unicode="E" horiz-adv-x="460" 
d="M9 195c0 -29.333 4.66016 -55.9951 13.9932 -79.9951s22.333 -44.333 39 -61s36.334 -29.834 59.001 -39.501s47.334 -14.5 74.001 -14.5c18.667 0 41.5 4.5 68.5 13.5s53 21.167 78 36.5s46.333 34 64 56s26.5 45.667 26.5 71c-17.333 0 -32 -4.83301 -44 -14.5
s-23.833 -20.167 -35.5 -31.5s-24.5 -21.833 -38.5 -31.5s-32 -14.5 -54 -14.5c-17.333 0 -35 4 -53 12s-34.167 18.5 -48.5 31.5s-26 28.333 -35 46s-13.5 37.167 -13.5 58.5v5c0.666992 1.33301 2.33398 3.33301 5.00098 6s4.33398 4 5.00098 4h190
c8 0 16.833 3.16699 26.5 9.5s19.167 13.166 28.5 20.499s18 15.5 26 24.5l19 21.5l-10 10c-2 -0.666992 -5.33301 -1.66699 -10 -3s-9.66699 -2.5 -15 -3.5s-10.333 -1.83301 -15 -2.5s-8 -1 -10 -1c-7.33301 0 -20 -0.166992 -38 -0.5s-37 -0.5 -57 -0.5
s-39 0.166992 -57 0.5s-30.667 0.5 -38 0.5l-19 -8c-3.33301 -1.33301 -6 -2 -8 -2s-4.16699 0.333008 -6.5 1s-7.16602 1 -14.499 1c0 8.66699 1.33301 19.667 4 33s6.83398 26.166 12.501 38.499s12.667 22.833 21 31.5s18.5 13 30.5 13h200c6 0 13.333 2.5 22 7.5
s16.834 10.833 24.501 17.5s14.334 14.5 20.001 23.5s8.5 16.833 8.5 23.5c-28.667 0 -56.5 2.33301 -83.5 7s-54.5 7 -82.5 7c-37.333 0 -72.833 -9.83301 -106.5 -29.5s-63.334 -44.834 -89.001 -75.501s-46.167 -65.334 -61.5 -104.001s-23 -76.667 -23 -114z" />
    <glyph glyph-name="F" unicode="F" horiz-adv-x="690" 
d="M130 60c0 -10.667 2.49609 -19.6631 7.49609 -26.9961s11.167 -13.166 18.5 -17.499s15.333 -8 24 -11s17 -4.5 25 -4.5c25.333 0 49 4.33301 71 13s42 20.667 60 36s34 33.666 48 54.999s26 43.666 36 66.999c2.66699 6.66699 4.83398 14.5 6.50098 23.5
s6.16699 15.167 13.5 18.5c4 0 11.333 1 22 3s21.834 4.33301 33.501 7s22.667 5 33 7s17.5 3.66699 21.5 5c4.66699 1.33301 10.5 4.33301 17.5 9s13.833 10.334 20.5 17.001s12.5 13.167 17.5 19.5s7.5 12.5 7.5 18.5h-153c-1.33301 0 -3.33301 1.33301 -6 4
s-4 4.66699 -4 6c0 0.666992 -0.166992 5 -0.5 13s-0.5 14 -0.5 18c0 16.667 1.5 32.834 4.5 48.501s11.833 28.167 26.5 37.5c4.66699 0 12.667 0.5 24 1.5s23.333 2 36 3s24.667 2.16699 36 3.5s19.333 2.33301 24 3c6 0.666992 13.667 4 23 10s18.333 12.833 27 20.5
s16 15.834 22 24.501s9 17 9 25c0 0.666992 -0.166992 1.66699 -0.5 3l-0.5 2c-1.33301 1.33301 -3.16602 3.5 -5.49902 6.5s-3.83301 4.5 -4.5 4.5l-50 -21h-370c-26.667 0 -54.167 -5.5 -82.5 -16.5s-54.166 -25.833 -77.499 -44.5s-42.5 -41 -57.5 -67
s-22.5 -54.333 -22.5 -85c0 -10.667 1 -20.834 3 -30.501s9 -14.5 21 -14.5c16.667 0 28.667 3.66699 36 11s12.333 16.333 15 27s4.5 23 5.5 37s3.5 27.667 7.5 41s10.5 26 19.5 38s23.167 21.667 42.5 29h17c8.66699 0 17.834 0.166992 27.501 0.5s18.834 0.5 27.501 0.5
h18c4 0 13 0.666992 27 2s28.667 1.66602 44 0.999023s29.166 -3.33398 41.499 -8.00098s18.5 -12.667 18.5 -24c0 -28 -2.33301 -50 -7 -66s-10.334 -28.333 -17.001 -37s-14 -14.667 -22 -18l-22 -9c-6.66699 -2.66699 -12.334 -6.33398 -17.001 -11.001s-7 -12 -7 -22
c0 -1.33301 0.166992 -3.33301 0.5 -6s0.5 -4.33398 0.5 -5.00098c4.66699 0 10.5 -0.333008 17.5 -1s13.667 -1.83398 20 -3.50098s11.666 -4.66699 15.999 -9s6.5 -10.166 6.5 -17.499c0 -36 -5.5 -63.333 -16.5 -82s-26 -31.834 -45 -39.501
s-41.167 -11.334 -66.5 -11.001s-52.666 1.5 -81.999 3.5c-1.33301 -0.666992 -3.16602 -2.16699 -5.49902 -4.5s-3.83301 -4.16602 -4.5 -5.49902v-5z" />
    <glyph glyph-name="G" unicode="G" horiz-adv-x="520" 
d="M8 205c0 -29.333 3.83398 -56.501 11.501 -81.501s19.167 -46.667 34.5 -65s34.833 -32.666 58.5 -42.999s51.167 -15.5 82.5 -15.5c26 -0 52.667 2.33301 80 7s54 12 80 22s50.667 22.5 74 37.5s43.666 32.833 60.999 53.5c2 28 6 57.333 12 88s9 60 9 88
c0 3.33301 -0.166992 8.16602 -0.5 14.499s-3.83301 9.5 -10.5 9.5h-240c-6 0 -12.167 -2.16699 -18.5 -6.5s-12 -9.5 -17 -15.5s-9.16699 -12.5 -12.5 -19.5s-5 -13.167 -5 -18.5h221c0 -9.33301 0.333008 -23 1 -41s-0.166016 -36.167 -2.49902 -54.5
s-7 -34.833 -14 -49.5s-17.833 -23 -32.5 -25l-24 -3c-10.667 -1.33301 -21.834 -2.5 -33.501 -3.5s-22.5 -1.83301 -32.5 -2.5s-16.667 -1 -20 -1c-30 0 -55.667 5.66699 -77 17s-39 26.333 -53 45s-24.333 40 -31 64s-10 48.667 -10 74c0 18.667 2 36.834 6 54.501
s10.5 34.167 19.5 49.5s20.5 28.666 34.5 39.999s31 20 51 26h11c6 0 12.333 0.166992 19 0.5s12.667 0.5 18 0.5h12c12 0 23.667 -1.16699 35 -3.5l33.5 -7l33 -7c11 -2.33301 22.167 -3.5 33.5 -3.5c6.66699 0 13.834 1.5 21.501 4.5s14.667 7 21 12
s11.666 10.833 15.999 17.5s6.5 13.667 6.5 21c0 10.667 -6 19 -18 25s-25.667 10.5 -41 13.5s-30 4.83301 -44 5.5s-23 1 -27 1c-42 0 -82.833 -9.16699 -122.5 -27.5s-75 -42.666 -106 -72.999s-56 -65 -75 -104s-28.5 -79.167 -28.5 -120.5z" />
    <glyph glyph-name="H" unicode="H" horiz-adv-x="660" 
d="M10 24c12.667 -12 24.834 -19.1699 36.501 -21.5029s25.167 -3.5 40.5 -3.5c50.667 0 97 14.5 139 43.5s73.333 69.833 94 122.5c2.66699 6 5 12.833 7 20.5s4.33301 14.834 7 21.501s4.66699 13.5 6 20.5s7.33301 13.167 18 18.5c16 2.66699 30.667 4.66699 44 6
s26.5 3.33301 39.5 6s26.167 6 39.5 10s25.666 6 36.999 6c0 -36.667 -1.5 -71.667 -4.5 -105s-4.5 -67 -4.5 -101c0 -4 0.166992 -11.5 0.5 -22.5s0.5 -18.167 0.5 -21.5c1.33301 -6 4.66602 -9.33301 9.99902 -10s10 -1 14 -1c10.667 0 22.834 2 36.501 6
s26.667 10.167 39 18.5s22.666 17.833 30.999 28.5s12.5 23 12.5 37c-8 0 -15.167 -2.66699 -21.5 -8s-13.5 -8 -21.5 -8c-12.667 0 -19.334 4.66699 -20.001 14s-1 19 -1 29c0 30.667 1.66699 61 5 91s7 60.667 11 92s7.66699 62 11 92s5 60.333 5 91
c0 2.66699 0.166992 6.16699 0.5 10.5s0.166016 8.5 -0.500977 12.5s-2.16699 8 -4.5 12s-6.16602 6 -11.499 6c-6 0 -12.5 -2.66699 -19.5 -8s-13.5 -10.666 -19.5 -15.999s-11.333 -11.333 -16 -18l-10 -14c0 -4.66699 -0.333008 -13.334 -1 -26.001s-1.5 -26 -2.5 -40
s-2.16699 -26.667 -3.5 -38s-2.33301 -20.333 -3 -27c-0.666992 -3.33301 -1.5 -7.16602 -2.5 -11.499s-3.5 -7.5 -7.5 -9.5c-38.667 2 -88.667 -1 -150 -9c0.666992 30.667 2.5 57.334 5.5 80.001s4.5 46.334 4.5 71.001v10c-10.667 2 -20 3.66699 -28 5
s-15.5 2.33301 -22.5 3s-14 1.66699 -21 3s-14.833 2 -23.5 2c-14 0 -28.833 -0.833008 -44.5 -2.5s-31.167 -3.83398 -46.5 -6.50098s-30.166 -6.83398 -44.499 -12.501s-27.5 -13.167 -39.5 -22.5c-4 -5.33301 -8.83301 -10.5 -14.5 -15.5s-11.167 -10.167 -16.5 -15.5
s-9.83301 -10.833 -13.5 -16.5s-5.5 -8.83398 -5.5 -9.50098v-22c10.667 0 20.5 2.16699 29.5 6.5s18.167 10 27.5 17s19.666 12.667 30.999 17s25 6.5 41 6.5c8 0 17.833 0.5 29.5 1.5s22.834 1 33.501 0s19.834 -4.66699 27.501 -11s11.5 -15.166 11.5 -26.499
c0 -24 -2.16699 -42.333 -6.5 -55s-21.833 -22.667 -52.5 -30s-58.167 -15 -82.5 -23s-47 -19 -68 -33s-38.5 -33 -52.5 -57s-21 -57.667 -21 -101c0 -2 0.166992 -5.83301 0.5 -11.5s0.5 -11.5 0.5 -17.5c0 -7.33301 0.166992 -13.666 0.5 -18.999s0.5 -9 0.5 -11z
M78 118.997c0 24 4.33105 42.833 12.998 56.5s20.334 23.667 35.001 30s30.334 11 47.001 14s35.667 5.83301 57 8.5c16 -2.66699 25.167 -7.16699 27.5 -13.5s3.5 -14.166 3.5 -23.499c0 -40 -9.83301 -72 -29.5 -96s-50.167 -36 -91.5 -36
c-19.333 0 -34.5 5.16699 -45.5 15.5s-16.5 25.166 -16.5 44.499z" />
    <glyph glyph-name="I" unicode="I" horiz-adv-x="260" 
d="M140 85c-14 -3.33301 -27.6699 -6.16699 -41.0029 -8.5s-25.5 -6.16602 -36.5 -11.499s-19.833 -13.166 -26.5 -23.499s-10 -25.5 -10 -45.5c22.667 0 45.834 2.66699 69.501 8s45.334 14.5 65.001 27.5s35.834 30.167 48.501 51.5s19.667 49.333 21 84
c0.666992 10 2.16699 28.667 4.5 56s4.5 55.666 6.5 84.999l5.5 83.5c1.66699 26.333 2.83398 45.166 3.50098 56.499c0 1.33301 0.166992 5.83301 0.5 13.5s0.5 13.5 0.5 17.5c0 0.666992 0.166992 3.33398 0.5 8.00098s0.166016 9.16699 -0.500977 13.5
s-1.66699 8.66602 -3 12.999s-4 6.5 -8 6.5h-140c-7.33301 0 -15.666 -4 -24.999 -12s-18.333 -16.667 -27 -26s-16.5 -18.666 -23.5 -27.999s-11.833 -15.333 -14.5 -18c0 -0.666992 -0.166992 -1.66699 -0.5 -3s-0.5 -2.33301 -0.5 -3s0.166992 -1.83398 0.5 -3.50098
l0.5 -2.5c1.33301 -1.33301 3.16602 -3.66602 5.49902 -6.99902s3.83301 -5 4.5 -5s2.5 0.666992 5.5 2s6.16699 2.66602 9.5 3.99902l15 6c5.33301 2 10 4.33301 14 7s15.333 4 34 4h44c10.667 0 18.667 -1.33301 24 -4c1.33301 -62.667 1 -122.5 -1 -179.5
s-10.333 -112.5 -25 -166.5z" />
    <glyph glyph-name="J" unicode="J" horiz-adv-x="480" 
d="M8 79c0 -20 5.16699 -35.335 15.5 -46.002s23.166 -18.5 38.499 -23.5s31.666 -8 48.999 -9s33.333 -1.5 48 -1.5c44 0 82.167 6.5 114.5 19.5s60.166 30.5 83.499 52.5s42.166 47.833 56.499 77.5s25.833 61 34.5 94s14.5 67.5 17.5 103.5s4.5 71.333 4.5 106
c0 12 -0.5 22.167 -1.5 30.5s-3.83301 19.833 -8.5 34.5h-15c-10.667 0 -26.834 -2.16699 -48.501 -6.5s-43.5 -10.666 -65.5 -18.999s-41.167 -18.5 -57.5 -30.5s-28.166 -28.667 -35.499 -50c13.333 2.66699 23.333 6.5 30 11.5s17.167 11.167 31.5 18.5
s31.166 11 50.499 11c8.66699 0 15.167 -1.33301 19.5 -4s7.33301 -6.66699 9 -12s2.5 -10.666 2.5 -15.999v-20c0 -4.66699 -0.166992 -11.5 -0.5 -20.5s-0.5 -14.167 -0.5 -15.5c-3.33301 -38.667 -5.66602 -75.834 -6.99902 -111.501s-7.16602 -67.167 -17.499 -94.5
s-27.666 -49.333 -51.999 -66s-60.5 -25 -108.5 -25c-16.667 0 -31 0.333008 -43 1s-23 3 -33 7s-19.667 9.83301 -29 17.5s-19.333 18.834 -30 33.501c-0.666992 0 -2.16699 0.166992 -4.5 0.5s-4.16602 0.5 -5.49902 0.5c-13.333 0 -23.666 -5 -30.999 -15
s-11 -21 -11 -33z" />
    <glyph glyph-name="K" unicode="K" horiz-adv-x="620" 
d="M310 165c8.66699 0 19.3311 -8.50293 31.998 -25.5029s27.667 -35.833 45 -56.5s37 -39.667 59 -57s46.667 -26 74 -26c3.33301 0 10 1.33301 20 4s20.167 5.83398 30.5 9.50098s19.5 7.83398 27.5 12.501s12 9.66699 12 15c0 12 -0.833008 20 -2.5 24s-4 6.16699 -7 6.5
s-7.16699 0.166016 -12.5 -0.500977s-11.333 -0.333984 -18 0.999023c-11.333 2 -25.666 9.33301 -42.999 22s-34 26.834 -50 42.501s-29.667 31.334 -41 47.001s-17 28.167 -17 37.5c0 8 9 19.833 27 35.5s37.833 34.334 59.5 56.001s41.5 45.834 59.5 72.501
s27 55.334 27 86.001c0 14 -2 26.167 -6 36.5s-14.333 15.5 -31 15.5c-13.333 0 -26 -4.16699 -38 -12.5s-18 -19.5 -18 -33.5c0 -2 0.166992 -5 0.5 -9s0.5 -6.33301 0.5 -7c0 -1.33301 0.666992 -3.83301 2 -7.5s2.5 -8 3.5 -13s2 -9.5 3 -13.5s1.5 -6.33301 1.5 -7
c0 -20.667 -6.16699 -42.167 -18.5 -64.5s-27.833 -43 -46.5 -62s-39 -34.667 -61 -47s-42.667 -18.5 -62 -18.5c0 34.667 1.5 69.167 4.5 103.5s4.5 68.833 4.5 103.5v12c0 5.33301 -0.166992 10.833 -0.5 16.5s-0.5 11.5 -0.5 17.5v11
c-3.33301 5.33301 -7.83301 9.5 -13.5 12.5s-11.167 5.5 -16.5 7.5c-4 0 -10.667 -0.5 -20 -1.5s-19.333 -2 -30 -3s-20.667 -2 -30 -3s-16 -1.83301 -20 -2.5c-8 -1.33301 -18.333 -4.5 -31 -9.5s-25.167 -11.5 -37.5 -19.5s-22.833 -16.667 -31.5 -26
s-13 -18.666 -13 -27.999c10.667 0 21.167 1.16699 31.5 3.5s20.833 4.83301 31.5 7.5l32 8c10.667 2.66699 21.667 4 33 4c2.66699 0 8.5 -0.166992 17.5 -0.5s14.833 -0.5 17.5 -0.5c7.33301 -1.33301 11 -6 11 -14v-16c0 -2.66699 -0.166992 -6.83398 -0.5 -12.501
s-0.5 -8.83398 -0.5 -9.50098c-0.666992 -6 -2.33398 -18.333 -5.00098 -37l-9 -60.5l-9.5 -63l-6.5 -43.5c-4.66699 -27.333 -13.167 -48.833 -25.5 -64.5s-27.5 -27.5 -45.5 -35.5s-38 -12.667 -60 -14s-45 -1 -69 1c-10 -4 -16 -8.66699 -18 -14s-3 -12.333 -3 -21
c0 -4.66699 0.166992 -9.83398 0.5 -15.501s3.83301 -9.16699 10.5 -10.5c2.66699 0 8.5 -0.166992 17.5 -0.5s14.833 -0.5 17.5 -0.5c23.333 0 45.333 3.83301 66 11.5s39.834 17.167 57.501 28.5s33.5 23.833 47.5 37.5l37.5 37.5l28 28.5
c7.66699 7.66699 13.834 11.5 18.501 11.5z" />
    <glyph glyph-name="L" unicode="L" horiz-adv-x="570" 
d="M360 521c-33.333 0 -61.335 -6.66699 -84.002 -20s-41.667 -30.833 -57 -52.5s-27.5 -46.334 -36.5 -74.001s-16.5 -56 -22.5 -85s-11.167 -57.5 -15.5 -85.5s-9.16602 -52.667 -14.499 -74c-4 -16.667 -12.667 -29.667 -26 -39s-27.166 -18.166 -41.499 -26.499
s-27 -17.166 -38 -26.499s-16.5 -22.333 -16.5 -39c19.333 0 38.333 2 57 6s38 6 58 6c42 0 83.667 -2 125 -6s83 -6 125 -6c14.667 0 28.5 0.166992 41.5 0.5s25.333 1.83301 37 4.5s23 6.83398 34 12.501s22.5 13.5 34.5 23.5
c0.666992 0.666992 3.33398 2.83398 8.00098 6.50098s9.66699 8 15 13s10.166 10.333 14.499 16s6.5 11.167 6.5 16.5c-18.667 0 -36 -2.16699 -52 -6.5s-33.667 -6.5 -53 -6.5c-46.667 0 -93 1.66699 -139 5s-92 5 -138 5c0 0.666992 -0.333008 2.5 -1 5.5
s-1 4.83301 -1 5.5l17 51.5c4.66699 14.333 9 28.666 13 42.999s7.5 29.666 10.5 45.999s6.16699 36.166 9.5 59.499c4.66699 31.333 8.16699 57.5 10.5 78.5s7.66602 37.333 15.999 49s21.833 19.167 40.5 22.5s46.334 3.33301 83.001 0l40 40
c4.66699 4.66699 4.5 9 -0.5 13s-11.667 7.33301 -20 10s-16.5 4.66699 -24.5 6s-13 2 -15 2z" />
    <glyph glyph-name="M" unicode="M" horiz-adv-x="880" 
d="M9 50c0 -11.333 3.66797 -20.3301 11.001 -26.9971s16.333 -11.834 27 -15.501s21.334 -6.16699 32.001 -7.5s19.667 -2 27 -2c31.333 0 62.333 7 93 21s59.667 31.833 87 53.5s52.5 45.5 75.5 71.5s42.5 51.333 58.5 76c10.667 16 21.167 33.5 31.5 52.5
s23.166 34.833 38.499 47.5v-280c0 -1.33301 1.33301 -3.33301 4 -6s4.66699 -4 6 -4c10.667 0 22.5 5.5 35.5 16.5s26.667 25 41 42s29 36 44 57l43.5 61.5c14 20 27.5 38.333 40.5 55s24.833 29.334 35.5 38.001c0 -2 0.166992 -6.16699 0.5 -12.5s0.5 -10.5 0.5 -12.5
c0 -35.333 -3.66699 -70.333 -11 -105s-11 -69.667 -11 -105v-11c0 -5.33301 0.166992 -10.833 0.5 -16.5s0.5 -11.167 0.5 -16.5v-11c0.666992 -3.33301 2.33398 -5.83301 5.00098 -7.5s5.5 -2.83398 8.5 -3.50098s6.16699 -0.833984 9.5 -0.500977s6 0.5 8 0.5
c8 0 18.333 1.83301 31 5.5s25 8.83398 37 15.501s22.167 14.834 30.5 24.501s12.5 20.167 12.5 31.5c-23.333 0 -39.666 3.83301 -48.999 11.5s-14 23.167 -14 46.5c0 18 0.833008 33.333 2.5 46s4.5 29.334 8.5 50.001c2 10.667 5.83301 29.167 11.5 55.5l18 84.5l18 84.5
c5.66699 26.333 9.83398 44.833 12.501 55.5c0 0.666992 0.166992 2.16699 0.5 4.5s0.5 4.16602 0.5 5.49902c0 5.33301 -1.16699 10.166 -3.5 14.499s-6.5 6.5 -12.5 6.5c-14.667 0 -28.334 -7.83301 -41.001 -23.5s-24.334 -33.834 -35.001 -54.501
s-20 -40.834 -28 -60.501s-15 -33.834 -21 -42.501c-2.66699 -4 -7.83398 -11.333 -15.501 -22l-24 -33.5l-24 -33c-7.66699 -10.333 -13.167 -17.5 -16.5 -21.5c-4.66699 -6 -10.834 -13.5 -18.501 -22.5l-23 -26.5l-19.5 -22c-5.33301 -6 -8.33301 -9 -9 -9h-10v330
l-20 20l-20 -1c-13.333 -0.666992 -29 -1.5 -47 -2.5s-36.5 -2.16699 -55.5 -3.5s-34.833 -2.33301 -47.5 -3c-29.333 -2.66699 -60.5 -9 -93.5 -19s-63.333 -24.167 -91 -42.5s-50.667 -40.666 -69 -66.999s-27.5 -57.166 -27.5 -92.499c0 -5.33301 0.166992 -11 0.5 -17
s1.5 -11.5 3.5 -16.5s5 -9 9 -12s9.66699 -4.5 17 -4.5c11.333 0 22.666 4.33301 33.999 13s17 19.667 17 33v5l-10 40v10c0 14 3.33301 26.5 10 37.5s15.334 20.5 26.001 28.5s22.5 14 35.5 18s25.833 6 38.5 6h200l10 -10l-5.5 -13l-13.5 -30.5l-16.5 -36l-14.5 -30.5
c-11.333 -22.667 -26.166 -47.834 -44.499 -75.501s-39.333 -53.667 -63 -78s-49.334 -44.833 -77.001 -61.5s-56.167 -25 -85.5 -25c-11.333 0 -22.833 3.16699 -34.5 9.5s-22.834 13.333 -33.501 21l-28.5 21c-8.33301 6.33301 -14.5 9.5 -18.5 9.5
c-3.33301 0 -7.66602 -3.5 -12.999 -10.5s-10.5 -15.167 -15.5 -24.5s-9.16699 -18.5 -12.5 -27.5s-5 -15.167 -5 -18.5z" />
    <glyph glyph-name="N" unicode="N" horiz-adv-x="830" 
d="M480 280c1.33301 -4.66699 3.66113 -12.001 6.99414 -22.001s6.83301 -21.333 10.5 -34s7.83398 -25.834 12.501 -39.501s8.83398 -26.667 12.501 -39s7.16699 -23.5 10.5 -33.5s5.66602 -17.333 6.99902 -22c0.666992 -2.66699 2.5 -8.5 5.5 -17.5
s6.83301 -18.667 11.5 -29s9.83398 -19.833 15.501 -28.5s11.5 -13.667 17.5 -15c11.333 -2 23.333 3.33301 36 16s25.334 30.334 38.001 53.001s25.5 49.167 38.5 79.5s25.333 62 37 95s22.5 66.167 32.5 99.5s18.667 64.333 26 93s13 53.667 17 75s6 36.666 6 45.999v21
c0 9.33301 -0.666992 18.666 -2 27.999s-4.16602 17.5 -8.49902 24.5s-10.833 10.5 -19.5 10.5c-17.333 0 -30.333 -5.5 -39 -16.5s-13 -23.833 -13 -38.5c0 -17.333 2 -33.666 6 -48.999s6 -31.666 6 -48.999c0 -29.333 -3.16699 -59.166 -9.5 -89.499
s-14.666 -60.333 -24.999 -90s-22.166 -58.667 -35.499 -87s-27 -55.5 -41 -81.5c-0.666992 0 -1.5 -0.166992 -2.5 -0.5s-1.83301 -0.5 -2.5 -0.5s-1.66699 0.166992 -3 0.5l-2 0.5c-1.33301 0.666992 -3.16602 2.16699 -5.49902 4.5s-3.83301 4.16602 -4.5 5.49902
l-90 300c-2.66699 7.33301 -6.16699 14.333 -10.5 21s-10.833 10 -19.5 10c-10 0 -18.667 -4.66699 -26 -14s-12 -18.333 -14 -27c-0.666992 -3.33301 -2.5 -11.833 -5.5 -25.5l-9.5 -44.5l-9.5 -44.5c-3 -13.667 -4.83301 -22.167 -5.5 -25.5c-8 -26 -22 -51.5 -42 -76.5
s-43.167 -47.5 -69.5 -67.5s-54.333 -36.167 -84 -48.5s-58.167 -18.5 -85.5 -18.5c-19.333 0 -37.833 3.66699 -55.5 11s-35.834 11 -54.501 11c-10 0 -17.5 -3.66699 -22.5 -11s-7.5 -15.666 -7.5 -24.999c0 -14 3.16699 -24.833 9.5 -32.5s14.5 -13.167 24.5 -16.5
s20.833 -5.16602 32.5 -5.49902s23.167 -0.5 34.5 -0.5c24.667 0 48 4.16699 70 12.5s43.167 19 63.5 32s40 27.167 59 42.5s38.167 29.666 57.5 42.999c8 6 18 16.167 30 30.5l35.5 44l31.5 39.5c9.33301 11.333 15.333 17 18 17c0.666992 0 1.5 -0.166992 2.5 -0.5
s1.83301 -0.5 2.5 -0.5z" />
    <glyph glyph-name="O" unicode="O" horiz-adv-x="410" 
d="M10 217c0 -26 2.16699 -51.8301 6.5 -77.4971s12 -48.834 23 -69.501s26.333 -37.5 46 -50.5s44.5 -19.5 74.5 -19.5c36 0 68.667 10.333 98 31s54.5 46.667 75.5 78s37.333 65.5 49 102.5s17.5 71.5 17.5 103.5c0 28.667 -3 55.167 -9 79.5s-15.5 45.666 -28.5 63.999
s-29.833 32.666 -50.5 42.999s-45.667 15.5 -75 15.5c-34 0 -65 -9.66699 -93 -29s-51.833 -43.833 -71.5 -73.5s-35 -62 -46 -97s-16.5 -68.5 -16.5 -100.5zM83 279.003c0 15.333 1.16895 32.668 3.50195 52.001s7 37.333 14 54s16.667 30.5 29 41.5
s28.166 16.5 47.499 16.5c25.333 0 47.333 -5 66 -15s34 -23.667 46 -41s20.833 -37.166 26.5 -59.499s8.5 -45.5 8.5 -69.5c0 -16 -1.5 -34.333 -4.5 -55s-8.33301 -39.834 -16 -57.501s-18 -32.5 -31 -44.5s-29.5 -18 -49.5 -18c-26.667 0 -48.834 5.83301 -66.501 17.5
s-32 26.667 -43 45s-18.833 39.166 -23.5 62.499s-7 47 -7 71z" />
    <glyph glyph-name="P" unicode="P" 
d="M30 13c0 -1.33301 1.33105 -3.83594 3.99805 -7.50293s4.66699 -5.5 6 -5.5c16.667 0 30.334 6.16699 41.001 18.5s19.167 26.5 25.5 42.5s11.333 32.833 15 50.5s6.5 36.5 8.5 56.5c29.333 5.33301 61.166 12.333 95.499 21s66 23.334 95 44.001s53 45.334 72 74.001
s28.5 62.667 28.5 102c0 22.667 -4.16699 41.167 -12.5 55.5s-19.166 25.166 -32.499 32.499s-28.666 12.5 -45.999 15.5s-35.333 4.5 -54 4.5c-22.667 0 -46.5 -0.833008 -71.5 -2.5s-49.333 -5 -73 -10s-46 -13.5 -67 -25.5s-39.167 -29 -54.5 -51
c2 -8 4.5 -12.667 7.5 -14s6.5 -1.33301 10.5 0s7.83301 2.5 11.5 3.5s7.16699 -0.166992 10.5 -3.5s6 -10.166 8 -20.499s3 -26.166 3 -47.499c0 -12 -1.16699 -22.5 -3.5 -31.5s-4.83301 -17.5 -7.5 -25.5s-5.16699 -16.333 -7.5 -25s-3.5 -17.667 -3.5 -27
c0 -12.667 2 -23.667 6 -33s6 -20 6 -32c0 -2 -0.166992 -5.33301 -0.5 -10s-0.5 -7.33398 -0.5 -8.00098l-3.5 -28l-5.5 -43c-2 -15.333 -4.16699 -29.666 -6.5 -42.999s-3.83301 -22.333 -4.5 -27zM139.998 257.997v26.999c0 24 0.833008 47.833 2.5 71.5
s4.16699 47.5 7.5 71.5c1.33301 8.66699 4.5 15.167 9.5 19.5s10.833 7.16602 17.5 8.49902s13.667 2 21 2h22c12 0 25 -1.5 39 -4.5s27.167 -8.16699 39.5 -15.5s22.5 -16.666 30.5 -27.999s12 -25 12 -41c0 -12 -2 -23.833 -6 -35.5s-9 -22.5 -15 -32.5
c-22 -13.333 -43.667 -25.833 -65 -37.5s-44.666 -17.5 -69.999 -17.5c-8 0 -15.833 0.333008 -23.5 1s-14.834 4.33398 -21.501 11.001z" />
    <glyph glyph-name="Q" unicode="Q" horiz-adv-x="538" 
d="M275 56l5 -0.00292969l14.5 -9.5c7.66699 -5 12.834 -9.16699 15.501 -12.5l64 -52c22 -18.667 44.667 -36 68 -52s47.833 -29.167 73.5 -39.5s52.167 -15.5 79.5 -15.5c6.66699 0 17.167 1 31.5 3s28.666 5 42.999 9s26.833 10 37.5 18s16 18.333 16 31
c-12.667 0 -23.667 -0.333008 -33 -1s-17.666 -0.666992 -24.999 0s-14.5 2.16699 -21.5 4.5l-26 8.5c-10.333 3.33301 -23.5 9.83301 -39.5 19.5l-56 35c-21.333 13.667 -40 27.334 -56 41.001s-26.5 23 -31.5 28l-13 13c-3.66699 3.66699 -7.66699 8 -12 13
s-8.33301 9.33301 -12 13s-6.16699 6.5 -7.5 8.5l-0.5 2c-0.333008 1.33301 -0.5 2.33301 -0.5 3c0 5.33301 4.83301 14 14.5 26s20.167 26 31.5 42s21.833 34.333 31.5 55s14.5 43 14.5 67c0 28 -4.66699 54.833 -14 80.5s-22.5 47.834 -39.5 66.501
s-37.5 33.167 -61.5 43.5s-51 15.5 -81 15.5c-35.333 0 -69.5 -9.5 -102.5 -28.5s-62.333 -43.167 -88 -72.5s-46.334 -62 -62.001 -98s-23.5 -71.333 -23.5 -106c0 -27.333 4.33301 -51.5 13 -72.5s19.5 -42 32.5 -63s27.5 -35.167 43.5 -42.5s40 -13.666 72 -18.999
c18.667 0 36 2.66699 52 8s33.667 15.333 53 30zM89 276.997c0 19.333 3.16699 39.3291 9.5 59.9961s15.333 39.334 27 56.001s25.834 30.667 42.501 42s35.667 17 57 17c22.667 0 44.167 -6.16699 64.5 -18.5s38 -28.166 53 -47.499s26.833 -40.333 35.5 -63s13 -45 13 -67
c0 -19.333 -3.5 -38.333 -10.5 -57s-16.5 -35.334 -28.5 -50.001s-26 -26.667 -42 -36s-33.333 -14 -52 -14c-24.667 0 -47.334 4.33301 -68.001 13s-38.5 20.834 -53.5 36.501s-26.667 34.334 -35 56.001s-12.5 45.834 -12.5 72.501z" />
    <glyph glyph-name="R" unicode="R" horiz-adv-x="580" 
d="M170 180l55.001 -62.0029c18.667 -21.333 38.5 -40.666 59.5 -57.999s43.5 -31.833 67.5 -43.5s50 -17.5 78 -17.5c6.66699 0 17.834 1.83301 33.501 5.5s31.5 8 47.5 13s30 11 42 18s18 14.5 18 22.5c0 1.33301 -0.166992 2.66602 -0.5 3.99902l-0.5 2
c-1.33301 4 -3.16602 8.66699 -5.49902 14s-3.83301 8 -4.5 8s-2.5 -0.5 -5.5 -1.5s-6.16699 -2.16699 -9.5 -3.5s-6.5 -2.66602 -9.5 -3.99902s-4.83301 -2 -5.5 -2s-4.83398 -0.166992 -12.501 -0.5s-13.5 -0.5 -17.5 -0.5c-22 0 -42.833 4.83301 -62.5 14.5
s-38.167 22 -55.5 37s-33.666 31.167 -48.999 48.5l-43 49c0 0.666992 -0.166992 1.5 -0.5 2.5s-0.5 1.83301 -0.5 2.5c0 2.66699 7.33301 10 22 22s31 26.333 49 43s34.333 35.834 49 57.501s22 44.834 22 69.501c0 21.333 -3.83301 38.666 -11.5 51.999
s-17.834 23.5 -30.501 30.5s-27 11.667 -43 14s-32.333 3.5 -49 3.5c-24.667 0 -50 -2.16699 -76 -6.5s-51.167 -11 -75.5 -20s-47.333 -21 -69 -36s-40.5 -33.167 -56.5 -54.5c2.66699 -5.33301 6.66699 -9.16602 12 -11.499s10.833 -4.33301 16.5 -6
s10.667 -3.66699 15 -6s6.5 -6.5 6.5 -12.5c0 -31.333 -3.33301 -62 -10 -92s-13.834 -59.667 -21.501 -89s-14.834 -58.666 -21.501 -87.999s-10 -59 -10 -89c18 0 33.5 1.66699 46.5 5s25.167 13 36.5 29c2 16.667 3.66699 33.167 5 49.5s4 31.166 8 44.499
s10.667 23.833 20 31.5s23.333 11.5 42 11.5h5zM271.001 464.997c12 0 22.499 -2.66699 31.499 -8s16.333 -12 22 -20s9.83398 -17.5 12.501 -28.5s4 -21.833 4 -32.5c0 -23.333 -6.33301 -44 -19 -62s-28.5 -33.5 -47.5 -46.5s-39.667 -23.333 -62 -31
s-43.166 -11.5 -62.499 -11.5c-1.33301 0 -4.66602 0.5 -9.99902 1.5s-8.66602 1.5 -9.99902 1.5l40 206c1.33301 7.33301 6.66602 13 15.999 17s19.666 7 30.999 9s22.166 3.33301 32.499 4s17.5 1 21.5 1z" />
    <glyph glyph-name="S" unicode="S" 
d="M10 65c2.66699 -12.667 9 -23.1699 19 -31.5029s21.5 -15 34.5 -20s26.167 -8.66699 39.5 -11s25 -3.5 35 -3.5c30.667 0 58.334 2.83301 83.001 8.5s47.5 14.5 68.5 26.5s41.167 27.667 60.5 47s39.333 42.666 60 69.999c0.666992 1.33301 1.66699 4 3 8
s2.5 8.33301 3.5 13s1.83301 9 2.5 13s1 7 1 9c-2.66699 20.667 -11 37.167 -25 49.5s-30.667 22.5 -50 30.5s-39.833 15 -61.5 21s-41.834 12.333 -60.501 19s-34 15.334 -46 26.001s-18 25 -18 43c0 20 6 35 18 45s27 17.167 45 21.5s37.333 7 58 8s40 2.5 58 4.5
s33 5.66699 45 11s18 14.333 18 27c0 0.666992 -0.166992 1.83398 -0.5 3.50098l-0.5 2.5c-0.666992 1.33301 -2.16699 3.16602 -4.5 5.49902s-4.16602 3.83301 -5.49902 4.5c-3.33301 0 -10 0.166992 -20 0.5s-16.667 0.5 -20 0.5c-21.333 0 -47.333 -4 -78 -12
s-60.334 -20 -89.001 -36s-53.167 -35.333 -73.5 -58s-30.5 -48.334 -30.5 -77.001c0 -19.333 6 -35.333 18 -48s27 -23.334 45 -32.001s37.5 -16.334 58.5 -23.001s40.5 -14.167 58.5 -22.5s33 -18.166 45 -29.499s18 -26 18 -44c0 -16 -5.33301 -28.667 -16 -38
s-23.334 -16.5 -38.001 -21.5s-29.834 -8.16699 -45.501 -9.5s-28.5 -2 -38.5 -2c-12 0 -23.333 2.33301 -34 7s-21.167 9.83398 -31.5 15.501s-20.666 10.834 -30.999 15.501s-21.166 7 -32.499 7c-4 0 -8.83301 -1.16699 -14.5 -3.5s-11 -5.66602 -16 -9.99902
s-9 -9.16602 -12 -14.499s-3.83301 -10.666 -2.5 -15.999z" />
    <glyph glyph-name="T" unicode="T" horiz-adv-x="680" 
d="M179 31c0 -14 3.83203 -22.8262 11.499 -26.4932s17.5 -5.5 29.5 -5.5c30 0 56 7.33301 78 22s40.833 33.5 56.5 56.5s28.5 49 38.5 78s18.167 58.667 24.5 89s11.166 59.833 14.499 88.5s6 53.667 8 75l10 10c4 0.666992 11.333 2.16699 22 4.5s21.834 4.5 33.501 6.5
s22.667 4.33301 33 7s17.5 4.33398 21.5 5.00098c8.66699 2 19.334 5.16699 32.001 9.5s24.834 10 36.501 17s21.5 15.667 29.5 26s12 21.833 12 34.5c0 1.33301 -1.33301 3.33301 -4 6s-4.66699 4 -6 4c-12 -5.33301 -25 -10.833 -39 -16.5s-27.667 -10.5 -41 -14.5
c-9.33301 0 -23.333 -0.666992 -42 -2s-39.834 -2.33301 -63.501 -3l-74.5 -2l-74.5 -2c-23.667 -0.666992 -45 -1.33398 -64 -2.00098s-32.833 -1 -41.5 -1c-24.667 -1.33301 -45.834 -4.33301 -63.501 -9s-33.834 -11.667 -48.501 -21s-28.834 -21.166 -42.501 -35.499
s-28.834 -32.5 -45.501 -54.5c-6 -12 -9.33301 -23 -10 -33s-1 -21 -1 -33c0 -8 0.333008 -15.833 1 -23.5s2.16699 -14.834 4.5 -21.501s5.83301 -12 10.5 -16s11.334 -6 20.001 -6c13.333 0 24.333 3.5 33 10.5s13 18.5 13 34.5c0 14 -2 26.167 -6 36.5
s-6 23.166 -6 38.499c0 17.333 2.5 31 7.5 41s12 17.667 21 23s19.667 9.16602 32 11.499s25.833 3.5 40.5 3.5c4.66699 0 13.834 -0.333008 27.501 -1s28.5 -1.83398 44.5 -3.50098s31.333 -3.16699 46 -4.5s25.334 -2.33301 32.001 -3
c2.66699 -0.666992 7.83398 -2.33398 15.501 -5.00098s12.5 -4.66699 14.5 -6c0 -2.66699 0.166992 -9 0.5 -19s0.5 -16.333 0.5 -19c0 -4.66699 -0.166992 -11.834 -0.5 -21.501s-0.5 -15.167 -0.5 -16.5c-0.666992 -6 -2.16699 -17.667 -4.5 -35
s-5.16602 -36.5 -8.49902 -57.5l-9.5 -61.5c-3 -20 -5.5 -34.667 -7.5 -44c-3.33301 -19.333 -9.66602 -34 -18.999 -44s-20.5 -17.333 -33.5 -22s-27.167 -7.33398 -42.5 -8.00098s-30.333 -2 -45 -4c-3.33301 -0.666992 -5.83301 -2.33398 -7.5 -5.00098
s-2.83398 -6 -3.50098 -10s-0.833984 -7.5 -0.500977 -10.5s0.5 -6.16699 0.5 -9.5z" />
    <glyph glyph-name="U" unicode="U" 
d="M50 98l17.501 -38.9971c5.66699 -12 12.167 -22.333 19.5 -31s16.333 -15.667 27 -21s23.667 -8 39 -8c21.333 0 42.833 6.33301 64.5 19s42.5 29.5 62.5 50.5s38.5 44.667 55.5 71s31.833 53.166 44.5 80.499s22.667 54.5 30 81.5s11 50.833 11 71.5
c0 10.667 -0.166992 24.334 -0.5 41.001s-2.5 32.667 -6.5 48s-10.167 28.333 -18.5 39s-20.5 16 -36.5 16c-12.667 0 -24.167 -5.5 -34.5 -16.5s-15.5 -23.167 -15.5 -36.5c0 -9.33301 1.66699 -18 5 -26s7 -16.167 11 -24.5s7.66699 -17.833 11 -28.5s5 -22.667 5 -36
c0 -20 -3 -44.833 -9 -74.5s-14.667 -58.667 -26 -87s-25.5 -52.5 -42.5 -72.5s-36.5 -30 -58.5 -30c-19.333 0 -33.333 6.33301 -42 19s-16.334 28.667 -23.001 48v17c0 9.33301 -0.166992 19.333 -0.5 30s-0.5 20.667 -0.5 30v19c0 20 1.16699 40 3.5 60
s4.83301 39.5 7.5 58.5s5.16699 38.333 7.5 58s3.5 39.5 3.5 59.5c0 13.333 -1.5 24 -4.5 32s-11.5 12 -25.5 12c-8.66699 0 -20 -3.16699 -34 -9.5s-27.667 -14.333 -41 -24s-24.833 -20.334 -34.5 -32.001s-14.5 -22.5 -14.5 -32.5h61c0 -44 -3.16699 -87.5 -9.5 -130.5
s-9.5 -87.167 -9.5 -132.5v-13c0 -6.66699 0.166992 -13.834 0.5 -21.501s0.5 -14.834 0.5 -21.501v-13z" />
    <glyph glyph-name="V" unicode="V" horiz-adv-x="540" 
d="M210 23c4 -10 8.83691 -16.4961 14.5039 -19.4961s12.5 -4.5 20.5 -4.5c13.333 0 29.666 10.167 48.999 30.5s39.666 45.666 60.999 75.999s42.5 63.833 63.5 100.5s39.833 72.334 56.5 107.001s30.167 65.667 40.5 93s15.5 46.333 15.5 57
c0 8.66699 -0.333008 17.167 -1 25.5s-2.33398 15.666 -5.00098 21.999s-6.83398 11.333 -12.501 15s-13.5 5.5 -23.5 5.5c-6 0 -13 -2.16699 -21 -6.5s-15.5 -9.83301 -22.5 -16.5s-13 -14.5 -18 -23.5s-7.5 -16.833 -7.5 -23.5c0 -11.333 1.83301 -22.333 5.5 -33
s5.5 -22.334 5.5 -35.001c0 -14.667 -4.83301 -34.667 -14.5 -60s-21.5 -51 -35.5 -77s-28.5 -49.5 -43.5 -70.5s-27.5 -35.5 -37.5 -43.5c-14.667 26 -27 53 -37 81s-19.5 56.5 -28.5 85.5l-28 86.5c-9.66699 28.667 -21.834 56 -36.501 82
c-1.33301 0 -4.66602 0.166992 -9.99902 0.5s-8.66602 0.5 -9.99902 0.5c-8 0 -15 -0.333008 -21 -1s-12.333 -4.33398 -19 -11.001l-28 -28.5l-33 -35l-27.5 -30.5c-7.66699 -8.66699 -11.5 -13.334 -11.5 -14.001v-13c11.333 0 21.833 4.5 31.5 13.5
s19.167 15.833 28.5 20.5l2 1c1.33301 0.666992 2.33301 1 3 1c1.33301 0 2.5 -0.333008 3.5 -1l1.5 -1c0.666992 -0.666992 2.16699 -3.5 4.5 -8.5s4.16602 -9.16699 5.49902 -12.5c2.66699 -8.66699 7.16699 -21.667 13.5 -39l21.5 -59l25 -69l25 -70l21 -60
c6 -17.333 10.667 -30 14 -38z" />
    <glyph glyph-name="W" unicode="W" horiz-adv-x="730" 
d="M90 34c2.66699 -8 6.15918 -15.5 10.4922 -22.5s10.833 -10.5 19.5 -10.5c1.33301 0 3.16602 0.166992 5.49902 0.5s3.83301 0.5 4.5 0.5c24.667 21.333 45.334 42 62.001 62s32 40.333 46 61s27.833 43.167 41.5 67.5s30.5 51.5 50.5 81.5l20 20
c4.66699 -6.66699 9.33398 -18.667 14.001 -36s9.33398 -37 14.001 -59l14.5 -68c5 -23.333 10.667 -44.833 17 -64.5s13 -36 20 -49s15.167 -19.5 24.5 -19.5c10.667 0 24.667 9.66699 42 29s35.833 43.833 55.5 73.5s39.5 63 59.5 100s38.167 73.333 54.5 109
s29.5 69.167 39.5 100.5s15 56.333 15 75c0 16.667 -4.66699 30.834 -14 42.501s-21.666 17.5 -36.999 17.5c-6 0 -12.5 -1.83301 -19.5 -5.5s-13.5 -8.5 -19.5 -14.5s-11 -12.5 -15 -19.5s-6 -13.833 -6 -20.5c0 -0.666992 0.166992 -1.66699 0.5 -3l0.5 -2
c1.33301 -2.66699 4.5 -6.66699 9.5 -12s8.5 -8.66602 10.5 -9.99902c0 -4 0.166992 -11.333 0.5 -22s0.5 -17.667 0.5 -21c0 -12 -2.16699 -27.167 -6.5 -45.5s-9.83301 -38 -16.5 -59s-14.5 -42.333 -23.5 -64s-18.167 -40.834 -27.5 -57.501s-18.5 -30.667 -27.5 -42
s-17.167 -17 -24.5 -17c-0.666992 0 -1.5 0.166992 -2.5 0.5s-1.83301 0.5 -2.5 0.5c-9.33301 26.667 -17.666 53.834 -24.999 81.501s-14.166 55.167 -20.499 82.5s-13 54.666 -20 81.999s-15.167 54.333 -24.5 81c-0.666992 0 -1.5 0.166992 -2.5 0.5
s-1.83301 0.5 -2.5 0.5c-4 0 -9.33301 -2.33301 -16 -7s-13.334 -10 -20.001 -16s-12.667 -12.333 -18 -19l-11 -14c-2 -2.66699 -5.83301 -10.5 -11.5 -23.5l-18.5 -41.5l-18.5 -41c-5.66699 -12.667 -9.5 -20.334 -11.5 -23.001
c-1.33301 -3.33301 -5.66602 -10.666 -12.999 -21.999l-25.5 -40l-28.5 -45l-23 -36l-10 -10l-2 -0.5c-1.33301 -0.333008 -2.33301 -0.5 -3 -0.5s-1.5 0.166992 -2.5 0.5s-1.83301 0.5 -2.5 0.5c-7.33301 27.333 -11.666 55.5 -12.999 84.5l-4 86.5
c-1.33301 28.667 -4 57.167 -8 85.5s-12.333 55.166 -25 80.499c-1.33301 0 -3.83301 0.166992 -7.5 0.5s-6.16699 0.5 -7.5 0.5c-9.33301 0 -19.666 -3.16699 -30.999 -9.5s-21.833 -14.333 -31.5 -24s-17.834 -20.667 -24.501 -33s-10 -23.833 -10 -34.5
c1.33301 0 3.5 0.333008 6.5 1s4.83301 1 5.5 1l20 11h5h5c1.33301 -3.33301 3.16602 -10.5 5.49902 -21.5l4.5 -21.5c0.666992 -8 1.83398 -19.667 3.50098 -35l5.5 -51.5l6.5 -60.5c2.33301 -21.333 4.33301 -41.5 6 -60.5s3.33398 -36.333 5.00098 -52
s2.83398 -27.167 3.50098 -34.5z" />
    <glyph glyph-name="X" unicode="X" horiz-adv-x="650" 
d="M9 26c0 -5.33301 3.99805 -10.834 11.998 -16.501s14.333 -8.5 19 -8.5c8.66699 0 19.167 1.83301 31.5 5.5s24.833 8 37.5 13s24.5 10.5 35.5 16.5s19.5 11.333 25.5 16c5.33301 4 14.666 11.833 27.999 23.5l42.5 37l42 37l27.5 24.5h10l22.5 -50.5
c9 -19.667 19.667 -38.834 32 -57.501s26.166 -34.5 41.499 -47.5s32 -19.5 50 -19.5c8 0 17.5 2 28.5 6s21.167 9.16699 30.5 15.5s17.333 13.833 24 22.5s10 18 10 28c-19.333 0 -38.5 8 -57.5 24s-36.167 35.5 -51.5 58.5s-27.666 47.167 -36.999 72.5s-14 47.333 -14 66
c0 1.33301 0.166992 3.83301 0.5 7.5s0.5 6.5 0.5 8.5c5.33301 10 12.166 21.667 20.499 35s17.333 26.833 27 40.5s19.834 26.5 30.501 38.5s21.334 21.667 32.001 29c5.33301 4 15.166 7.16699 29.499 9.5s29 5.16602 44 8.49902s28.333 8 40 14s17.5 14 17.5 24
c0 5.33301 -1.5 9.16602 -4.5 11.499s-6.66699 3.83301 -11 4.5s-8.83301 0.833984 -13.5 0.500977s-8.33398 -0.5 -11.001 -0.5c-24 0 -46.667 -5.5 -68 -16.5s-41.666 -24.833 -60.999 -41.5s-37.5 -34.667 -54.5 -54l-47.5 -52c-6.66699 5.33301 -15.5 16 -26.5 32
l-35 49.5c-12.333 17 -24.666 31.833 -36.999 44.5s-22.833 18.334 -31.5 17.001c-14.667 -2.66699 -30.834 -9.33398 -48.501 -20.001s-34.167 -23.5 -49.5 -38.5s-28.166 -31.167 -38.499 -48.5s-15.5 -34 -15.5 -50c14 0 25.833 3.5 35.5 10.5s18 14.5 25 22.5
s12.833 15.5 17.5 22.5s9 10.5 13 10.5c8 0 17.833 -6.66699 29.5 -20s22.834 -29.166 33.501 -47.499s19.667 -37.166 27 -56.499s11 -34.666 11 -45.999v-5c-0.666992 -1.33301 -2.16699 -4.83301 -4.5 -10.5s-4.16602 -9.16699 -5.49902 -10.5
c-14.667 -24 -30 -45.5 -46 -64.5s-33.5 -34.833 -52.5 -47.5s-40 -22.5 -63 -29.5s-49.167 -10.833 -78.5 -11.5c-2 -2 -5.5 -7 -10.5 -15s-8.16699 -13.333 -9.5 -16l-0.5 -2c-0.333008 -1.33301 -0.5 -2.33301 -0.5 -3z" />
    <glyph glyph-name="Y" unicode="Y" horiz-adv-x="470" 
d="M10 -86c0 -16 5.49805 -28.9951 16.498 -38.9951s24 -17.5 39 -22.5s30.333 -8.66699 46 -11s28.5 -3.5 38.5 -3.5c19.333 0 36.666 0.833008 51.999 2.5s31.333 8.5 48 20.5l55.5 55.5c16.333 17 30.833 34.333 43.5 52s23.167 37.167 31.5 58.5s14.833 46 19.5 74
c1.33301 10 3.66602 24.833 6.99902 44.5s6.83301 42.167 10.5 67.5s7.83398 52.166 12.501 80.499s8.83398 55.166 12.501 80.499s7.16699 48.166 10.5 68.499s5.66602 35.166 6.99902 44.499v5c0 18 -8 27 -24 27c-15.333 0 -27.833 -4.66699 -37.5 -14
s-17.5 -21.5 -23.5 -36.5s-10.667 -31.5 -14 -49.5s-6 -36 -8 -54l-5.5 -50c-1.66699 -15.333 -4.16699 -27.333 -7.5 -36c-6 -15.333 -15 -31.333 -27 -48s-25 -32.5 -39 -47.5s-27.833 -28.833 -41.5 -41.5l-32.5 -30c-1.33301 0 -3.83301 -0.166992 -7.5 -0.5
s-6.16699 -0.5 -7.5 -0.5c-15.333 0 -25.166 4.66699 -29.499 14s-6.5 21 -6.5 35c0 30.667 2.83301 61 8.5 91s11.667 60 18 90s12.333 59.833 18 89.5s8.5 59.834 8.5 90.501c-10 0 -21.667 -3.83301 -35 -11.5s-26.166 -17.167 -38.499 -28.5s-23 -23.5 -32 -36.5
s-14.5 -24.833 -16.5 -35.5h26c0 -1.33301 0.5 -5.66602 1.5 -12.999s1.83301 -16.5 2.5 -27.5s0.666992 -20.167 0 -27.5c-5.33301 -41.333 -11.833 -81.833 -19.5 -121.5s-11.5 -80.834 -11.5 -123.501v-9c0 -4.66699 0.166992 -9.5 0.5 -14.5s0.5 -9.5 0.5 -13.5v-10
c3.33301 -12 9.33301 -18.667 18 -20s17.334 -2 26.001 -2c12.667 0 24.334 1.16699 35.001 3.5s21 8.5 31 18.5l120 125h5v-85c0 -30 -3.16699 -58.167 -9.5 -84.5s-17.833 -48.166 -34.5 -65.499s-42 -26 -76 -26c-16 0 -31.333 3.16699 -46 9.5
s-27.834 13.666 -39.501 21.999s-21.5 15.833 -29.5 22.5s-13 10 -15 10c-0.666992 0 -1.66699 -0.166992 -3 -0.5l-2 -0.5c-1.33301 -1.33301 -4 -3.83301 -8 -7.5s-8 -7.83398 -12 -12.501s-8 -8.83398 -12 -12.501s-6.66699 -6.66699 -8 -9l-6 -11
c-2.66699 -5 -4 -8.16699 -4 -9.5z" />
    <glyph glyph-name="Z" unicode="Z" horiz-adv-x="470" 
d="M290 398l-74.501 -90.498l-61.5 -78l-58.5 -79.5l-65.5 -93c-7.33301 -10.667 -13.166 -19.834 -17.499 -27.501s-6.5 -18.167 -6.5 -31.5c8.66699 0 17.167 2.5 25.5 7.5s16 11 23 18s13.5 14.667 19.5 23s11.333 15.166 16 20.499h10c18 0 35.5 -3.5 52.5 -10.5
s34 -14.667 51 -23s34.167 -15.833 51.5 -22.5s35.666 -10 54.999 -10c31.333 0 59.333 7.83301 84 23.5s46.667 37.167 66 64.5c0 0.666992 0.166992 1.66699 0.5 3s0.5 2.33301 0.5 3s-0.166992 1.66699 -0.5 3l-0.5 2c-0.666992 1.33301 -2.16699 3.33301 -4.5 6
s-4.16602 4.66699 -5.49902 6c-15.333 -12 -29.666 -19.167 -42.999 -21.5s-28.666 -3.5 -45.999 -3.5c-4 0 -10 0.166992 -18 0.5s-12.333 0.833008 -13 1.5l-166 91l256 306c1.33301 1.33301 3.33301 5 6 11s4 9.66699 4 11c0 5.33301 -2.33301 8.33301 -7 9
s-8.66699 1 -12 1c-17.333 0 -33.833 -1.83301 -49.5 -5.5s-32.5 -5.5 -50.5 -5.5c-26.667 0 -52.834 2.16699 -78.501 6.5s-51.834 6.5 -78.501 6.5c-12 0 -23.833 -2 -35.5 -6s-22 -9.83301 -31 -17.5s-16.167 -17.167 -21.5 -28.5s-8 -24.333 -8 -39
c1.33301 0 5 0.166992 11 0.5s9.66699 0.833008 11 1.5c0.666992 0 2.5 0.666992 5.5 2s6.16699 2.5 9.5 3.5s6.5 2 9.5 3s4.83301 1.5 5.5 1.5c2 0 6.33301 -0.5 13 -1.5s14 -2 22 -3s15.333 -2.16699 22 -3.5s11 -2 13 -2c4.66699 -0.666992 12.667 -1.66699 24 -3
s23.333 -2.5 36 -3.5s24.667 -2 36 -3s19.333 -1.5 24 -1.5z" />
    <glyph glyph-name="backslash" unicode="\" horiz-adv-x="210" 
d="M10 477c0 -11.333 1.66895 -23.002 5.00195 -35.002s7.16602 -24 11.499 -36s9 -23.833 14 -35.5s8.83301 -22.5 11.5 -32.5l30 -116c3.33301 -10.667 7.66602 -28.167 12.999 -52.5s12.333 -49.166 21 -74.499s19.334 -47.666 32.001 -66.999s27.334 -29 44.001 -29
c1.33301 0 3.16602 0.333008 5.49902 1s3.83301 1 4.5 1l-110 389c-2.66699 10.667 -6.33398 21 -11.001 31s-10.167 19.333 -16.5 28s-14 15.5 -23 20.5s-19.5 7.5 -31.5 7.5z" />
    <glyph glyph-name="asciicircum" unicode="^" horiz-adv-x="382" 
d="M263 503c-4 6.66699 -8.50586 10.668 -13.5059 12.001s-10.833 2 -17.5 2c-6 0 -15.833 -4.66699 -29.5 -14s-28.834 -21.666 -45.501 -36.999s-34 -32.5 -52 -51.5s-34.333 -37.167 -49 -54.5s-26.5 -33.166 -35.5 -47.499s-13.5 -24.5 -13.5 -30.5
c0 -7.33301 2.66699 -13.833 8 -19.5s13 -8.5 23 -8.5c4 0 8.83301 0.833008 14.5 2.5s10.834 3.33398 15.501 5.00098s8.83398 4.16699 12.501 7.5s5.5 6.66602 5.5 9.99902c0 4 -1.5 7.5 -4.5 10.5s-4.5 6.83301 -4.5 11.5c0 12 3.83301 24.333 11.5 37
s17.334 24.834 29.001 36.501s24.334 22.5 38.001 32.5s25.834 18.333 36.501 25c0.666992 0 1.5 0.166992 2.5 0.5s1.83301 0.5 2.5 0.5c5.33301 0 9.83301 -4 13.5 -12s7.16699 -17.833 10.5 -29.5s6.5 -24.334 9.5 -38.001s6.5 -26.334 10.5 -38.001
s8.83301 -21.5 14.5 -29.5s12.5 -12 20.5 -12c6.66699 0 15.5 1.83301 26.5 5.5s21.5 8.16699 31.5 13.5s18.833 11 26.5 17s11.5 12 11.5 18h-46l-2.5 4.5c-1.66699 3 -3.5 6.5 -5.5 10.5l-6 12.5c-2 4.33301 -3.66699 8.16602 -5 11.499
c-3.33301 10.667 -7.66602 21.667 -12.999 33s-10.166 22.833 -14.499 34.5s-8 23.167 -11 34.5s-4.83301 22.666 -5.5 33.999z" />
    <glyph glyph-name="underscore" unicode="_" horiz-adv-x="400" 
d="M0 -56h398v40h-398v-40v0z" />
    <glyph glyph-name="grave" unicode="`" horiz-adv-x="150" 
d="M81 438c0 1.33301 1 4.50293 3 9.50293s4.33301 10.167 7 15.5s5 10.5 7 15.5s3 8.16699 3 9.5c0 0.666992 0.166992 2.16699 0.5 4.5s0.5 4.16602 0.5 5.49902s-0.166992 3.16602 -0.5 5.49902s-0.5 3.83301 -0.5 4.5c-2 1.33301 -3.83301 4.66602 -5.5 9.99902
s-5.16699 10 -10.5 14s-11.333 6.66699 -18 8s-12.667 2 -18 2c-18.667 -2.66699 -29.834 -9.16699 -33.501 -19.5s-5.5 -21.833 -5.5 -34.5c0 -14 3.33301 -28.167 10 -42.5s15.334 -27.333 26.001 -39s23 -21.167 37 -28.5s28.333 -11 43 -11
c1.33301 0 3.83301 0.166992 7.5 0.5s6.16699 0.5 7.5 0.5l-10 10l-15 15l-15 15l-10 10c-1.33301 2 -3.33301 5.5 -6 10.5s-4 8.16699 -4 9.5z" />
    <glyph glyph-name="a" unicode="a" horiz-adv-x="390" 
d="M200 110l4.00195 -51.9951c1.33301 -17.333 6.66602 -33.333 15.999 -48c1.33301 -1.33301 3.16602 -3.33301 5.49902 -6s3.83301 -4 4.5 -4c2 0 5.66699 0.5 11 1.5s11.166 2.5 17.499 4.5s12.5 4.16699 18.5 6.5s10.333 4.83301 13 7.5l25.5 24l29.5 29.5l24.5 25
c7 7 10.5 10.833 10.5 11.5v23c-1.33301 0 -3 -0.333008 -5 -1s-3.66699 -1.33398 -5 -2.00098l-60 -40l-2 -0.5c-1.33301 -0.333008 -2.33301 -0.5 -3 -0.5s-1.66699 0.166992 -3 0.5l-2 0.5c-1.33301 0.666992 -3.16602 2.16699 -5.49902 4.5
s-3.83301 4.16602 -4.5 5.49902c0 2.66699 -0.166992 8.5 -0.5 17.5s-0.5 14.833 -0.5 17.5c0 18 1.16699 36 3.5 54s4.83301 35.833 7.5 53.5s5.16699 35.5 7.5 53.5s3.5 36 3.5 54v10c0 4.66699 -0.166992 9.66699 -0.5 15s-0.5 10.333 -0.5 15v10
c-0.666992 1.33301 -2.16699 3.16602 -4.5 5.49902s-4.16602 3.83301 -5.49902 4.5h-4c-40 0 -77.5 -8.83301 -112.5 -26.5s-65.5 -40.834 -91.5 -69.501s-46.5 -61.334 -61.5 -98.001s-22.5 -74 -22.5 -112c0 -4 -0.166992 -11.167 -0.5 -21.5s0.333984 -21 2.00098 -32
s4.66699 -20.667 9 -29s11.166 -12.5 20.499 -12.5c16.667 0 31.667 4.5 45 13.5s26.166 19.167 38.499 30.5l37 34c12.333 11.333 25.833 19 40.5 23zM69.002 161.005c0 25.333 3.99902 48.5 11.999 69.5s19.333 39 34 54s32.167 26.667 52.5 35s42.833 12.5 67.5 12.5
c0 -48 -11.833 -92.833 -35.5 -134.5s-53.5 -77.5 -89.5 -107.5c-0.666992 0 -2.16699 -0.166992 -4.5 -0.5s-4.16602 -0.5 -5.49902 -0.5c-6.66699 0 -12 2.83301 -16 8.5s-7.16699 12.5 -9.5 20.5s-3.83301 16 -4.5 24s-1 14.333 -1 19z" />
    <glyph glyph-name="b" unicode="b" horiz-adv-x="370" 
d="M9 39c0 -12 4.66797 -20.8369 14.001 -26.5039s20.5 -9.5 33.5 -11.5s26.333 -2.83301 40 -2.5s24.5 0.5 32.5 0.5c26 0 52.667 9.5 80 28.5s52.166 42.333 74.499 70s40.666 57.167 54.999 88.5s21.5 59.333 21.5 84c0 8.66699 -0.833008 18.834 -2.5 30.501
s-4.83398 22.834 -9.50098 33.501s-10.667 19.5 -18 26.5s-16.666 10.5 -27.999 10.5c-16.667 0 -32.667 -3.16699 -48 -9.5s-30.333 -14.166 -45 -23.499s-28.5 -19.166 -41.5 -29.499l-37.5 -28.5l-10 20c2.66699 20 4.83398 38 6.50098 54s2.83398 31.333 3.50098 46
s1 29.334 1 44.001v51v14c0 7.33301 -0.166992 15 -0.5 23s-0.5 15.667 -0.5 23v15c0.666992 9.33301 -1 15.166 -5 17.499s-8.66699 3.5 -14 3.5c-10 0 -20.333 -3.5 -31 -10.5s-20.5 -15 -29.5 -24s-17.167 -18 -24.5 -27l-16 -19.5
c8 -6.66699 15.167 -10.334 21.5 -11.001s11.666 -1.33398 15.999 -2.00098s7.66602 -3.16699 9.99902 -7.5s3.5 -13.166 3.5 -26.499c0 -69.333 -5.16699 -138.666 -15.5 -207.999s-22.166 -137.666 -35.499 -204.999c0 -0.666992 -0.166992 -2.33398 -0.5 -5.00098
s-0.5 -4.66699 -0.5 -6zM99.001 77.9961c0 18 3.49707 39.6689 10.4971 65.002s17 49.666 30 72.999s28.5 43.333 46.5 60s38 25 60 25c8.66699 0 14.834 -2.83301 18.501 -8.5s6 -12.334 7 -20.001s1.16699 -15.667 0.5 -24s-1 -15.166 -1 -20.499
c0 -19.333 -1.83301 -38.833 -5.5 -58.5s-10.167 -37.834 -19.5 -54.501s-21.666 -30.167 -36.999 -40.5s-34.666 -15.5 -57.999 -15.5h-15c-6 0 -11.667 0.5 -17 1.5s-10 2.83301 -14 5.5s-6 6.66699 -6 12z" />
    <glyph glyph-name="c" unicode="c" horiz-adv-x="300" 
d="M9 134c0 -40.667 11.8291 -73.334 35.4961 -98.001s53.834 -37 90.501 -37c12.667 0 28.167 2.83301 46.5 8.5s36 13.5 53 23.5s31.333 22 43 36s17.5 29.667 17.5 47c-10 0 -19.167 -1.83301 -27.5 -5.5s-16.666 -8 -24.999 -13s-16.666 -9.5 -24.999 -13.5
s-17.5 -6 -27.5 -6c-14.667 0 -28.167 3.16699 -40.5 9.5s-23 15 -32 26s-16 23.833 -21 38.5s-7.5 29.334 -7.5 44.001c0 8.66699 0.666992 19.834 2 33.501s3.83301 27.5 7.5 41.5s9.83398 25.333 18.501 34s17 16 25 22l54 11
c38.667 5.33301 63.334 16.666 74.001 33.999l20 22l-10 10c-1.33301 0 -6 0.166992 -14 0.5s-14 0.5 -18 0.5c-32.667 0 -63.5 -7.33301 -92.5 -22s-54.333 -34.167 -76 -58.5s-38.834 -52.833 -51.501 -85.5s-19 -67 -19 -103z" />
    <glyph glyph-name="d" unicode="d" horiz-adv-x="420" 
d="M235 110l-0.00488281 -99.998c0 -1.33301 1.83301 -3.16602 5.5 -5.49902s6.83398 -3.83301 9.50098 -4.5c0.666992 0 5 -0.166992 13 -0.5s14 -0.5 18 -0.5c8.66699 0 20.334 2.16699 35.001 6.5s29 10.166 43 17.499s26.167 15.833 36.5 25.5s15.5 20.167 15.5 31.5
c0 1.33301 -0.166992 3.16602 -0.5 5.49902s-0.5 3.83301 -0.5 4.5c-2 -1.33301 -5.33301 -3 -10 -5s-9.66699 -4 -15 -6l-15 -5.5l-10 -3.5c-2.66699 -0.666992 -7 -0.166992 -13 1.5s-10 2.5 -12 2.5c0 40 1.83301 79.833 5.5 119.5s7.83398 79.167 12.501 118.5
s8.83398 78.833 12.501 118.5s5.5 79.5 5.5 119.5c0 3.33301 -0.166992 10 -0.5 20s-0.5 16.667 -0.5 20c-2 5.33301 -4.83301 8.5 -8.5 9.5s-7.5 1.5 -11.5 1.5c-14.667 0 -26.5 -3.5 -35.5 -10.5s-16 -16 -21 -27s-8.5 -23.5 -10.5 -37.5s-3.5 -28.167 -4.5 -42.5l-3 -41
c-1 -13 -2.83301 -23.833 -5.5 -32.5c-1.33301 -18.667 -8.66602 -26.834 -21.999 -24.501s-30 0.333008 -50 -6s-40.667 -17 -62 -32s-41.5 -32.833 -60.5 -53.5s-34.833 -45.5 -47.5 -74.5s-19 -63.833 -19 -104.5v-11c0 -5.33301 0.166992 -10.833 0.5 -16.5
s0.5 -11.167 0.5 -16.5v-11c4 -14 12 -25.833 24 -35.5s25.667 -14.5 41 -14.5c13.333 0 27.666 4 42.999 12s30.333 17.333 45 28s28.334 21.667 41.001 33zM99.9951 100.002l-0.00292969 13.0059c0 6 -0.166992 12.5 -0.5 19.5s-0.5 13.5 -0.5 19.5v13
c0 18 1 36.833 3 56.5s6.33301 37.667 13 54s16.667 29.666 30 39.999s31.666 15.5 54.999 15.5h26c9.33301 0 17.333 -3.66699 24 -11c0.666992 -2 1.16699 -6.83301 1.5 -14.5s0.5 -12.834 0.5 -15.501c0 -13.333 -4.16699 -30.833 -12.5 -52.5
s-18.666 -43.334 -30.999 -65.001s-25.666 -41.334 -39.999 -59.001s-27.166 -28.834 -38.499 -33.501c-0.666992 0 -3.5 1.33301 -8.5 4l-11.5 6c-1.33301 0.666992 -3.16602 2.16699 -5.49902 4.5s-3.83301 4.16602 -4.5 5.49902z" />
    <glyph glyph-name="e" unicode="e" horiz-adv-x="380" 
d="M9 153c0 -18 1.00195 -36.1631 3.00195 -54.4961s6.5 -34.833 13.5 -49.5s17.167 -26.667 30.5 -36s31 -14 53 -14c24 0 49 4 75 12s50.667 18.833 74 32.5s44.833 29.834 64.5 48.501s35.5 39 47.5 61h-20l-45 -36.5c-12.667 -10.333 -25 -18.833 -37 -25.5
s-24.833 -11.667 -38.5 -15s-30.167 -5 -49.5 -5c-3.33301 0 -10 0.166992 -20 0.5s-16.667 0.5 -20 0.5c-14.667 11.333 -25.5 23.333 -32.5 36s-12.833 27.667 -17.5 45c14.667 15.333 33 30.166 55 44.499s39 31.666 51 51.999s20 40.666 24 60.999s4.66699 41.5 2 63.5
c-0.666992 11.333 -2.83398 20.166 -6.50098 26.499s-11.834 9.5 -24.501 9.5c-32 0 -59.333 -8.33301 -82 -25s-41.5 -37.834 -56.5 -63.501s-26 -53.667 -33 -84s-10.5 -58.5 -10.5 -84.5zM152.002 345.004c12 -18 10.667 -41 -4 -69s-34 -50 -58 -66
c0 2 -0.166992 6.83301 -0.5 14.5s-0.5 12.834 -0.5 15.501c0 9.33301 1 20.166 3 32.499s5.33301 23.833 10 34.5s11 19.667 19 27s18.333 11 31 11z" />
    <glyph glyph-name="f" unicode="f" horiz-adv-x="432" 
d="M-240 -196c0 -32 6.32715 -54.1641 18.9941 -66.4971s33.334 -18.5 62.001 -18.5c20 0 37.333 1.83301 52 5.5s28.5 8.66699 41.5 15s25.667 13.833 38 22.5l41.5 28c36.667 24.667 65.334 54.834 86.001 90.501s36.334 74 47.001 115s17.5 83.5 20.5 127.5
s5.16699 86.333 6.5 127c0.666992 3.33301 5.83398 6.5 15.501 9.5s21.167 6.33301 34.5 10l43 12c15.333 4.33301 29.666 9.66602 42.999 15.999s24.333 13.833 33 22.5s13 19 13 31c-10.667 0 -21 -1.16699 -31 -3.5s-20 -5 -30 -8s-20.333 -5.66699 -31 -8
s-21.667 -3.5 -33 -3.5h-9c-3.33301 0 -7 0.166992 -11 0.5s-7.66699 0.666016 -11 0.999023s-5.33301 0.5 -6 0.5l-10 10c0 1.33301 -0.166992 6 -0.5 14s-0.5 14 -0.5 18c0 6.66699 1.16699 19 3.5 37s6 36.333 11 55s11.333 35.167 19 49.5s16.834 21.5 27.501 21.5h150
c2 0 5 1.66699 9 5s8.33301 7.16602 13 11.499s7.33398 12.5 8.00098 24.5l-10 14c-0.666992 0 -2.83398 0.166992 -6.50098 0.5s-7.83398 0.666016 -12.501 0.999023l-14.5 1c-5 0.333008 -8.83301 0.5 -11.5 0.5c-39.333 0 -72.666 -5.5 -99.999 -16.5
s-51.166 -26.333 -71.499 -46s-37.833 -43.167 -52.5 -70.5s-28.334 -57.333 -41.001 -90c-1.33301 -2 -3 -5.5 -5 -10.5s-3.66699 -8.16699 -5 -9.5c-5.33301 -7.33301 -11.666 -12.833 -18.999 -16.5s-15 -7.16699 -23 -10.5s-15.333 -7.33301 -22 -12
s-12 -11.667 -16 -21c-1.33301 -2.66699 -0.666016 -6.5 2.00098 -11.5s5.33398 -7.83301 8.00098 -8.5c2 0 5.33301 0.166992 10 0.5s9.66699 0.5 15 0.5s10.333 -0.166992 15 -0.5s8 -0.5 10 -0.5c1.33301 0 3.33301 -1.33301 6 -4s4 -4.66699 4 -6v-10
c0 -4.66699 0.166992 -9.66699 0.5 -15s0.5 -10.333 0.5 -15v-10c0 -20.667 -0.333008 -45.5 -1 -74.5s-3 -59.5 -7 -91.5s-9.66699 -63.833 -17 -95.5s-18 -60 -32 -85s-31.333 -45.333 -52 -61s-46 -23.5 -76 -23.5c-12.667 0 -24.667 1.33301 -36 4s-22.5 5.5 -33.5 8.5
s-22.333 5.83301 -34 8.5s-23.834 4 -36.501 4z" />
    <glyph glyph-name="g" unicode="g" horiz-adv-x="420" 
d="M-155 -184c0 -12 5.50293 -23.167 16.5029 -33.5s24 -19.166 39 -26.499s30.5 -13.166 46.5 -17.499s29 -6.5 39 -6.5c27.333 0 58.5 3.66699 93.5 11s67.833 18.833 98.5 34.5s56.5 35.834 77.5 60.501s31.5 54.667 31.5 90c0 17.333 -4.16699 31.333 -12.5 42
s-19 19.5 -32 26.5s-26.833 12.833 -41.5 17.5s-28.5 9.5 -41.5 14.5s-23.667 10.833 -32 17.5s-12.5 15.334 -12.5 26.001c0 1.33301 0.166992 3.16602 0.5 5.49902s0.5 3.83301 0.5 4.5c5.33301 5.33301 14.666 15.166 27.999 29.499l42.5 45.5l42 45l27.5 30
c0.666992 0.666992 2.5 3.5 5.5 8.5l9.5 16.5l9 16c2.66699 4.66699 4.66699 7.66699 6 9c6 4.66699 15.667 10 29 16s27 12.5 41 19.5s26.333 15 37 24s16 19.5 16 31.5c-12.667 0 -24.5 -2 -35.5 -6s-23.167 -6 -36.5 -6c-22 0 -43.5 2 -64.5 6s-42.5 6 -64.5 6
c-21.333 0 -42.833 -5 -64.5 -15s-41.334 -23.167 -59.001 -39.5s-32.167 -34.833 -43.5 -55.5s-17 -41.667 -17 -63c0 -18.667 5.66699 -35.167 17 -49.5s26.333 -23.833 45 -28.5c-3.33301 -3.33301 -8.33301 -8.83301 -15 -16.5s-13.334 -16.167 -20.001 -25.5
s-12.5 -18.833 -17.5 -28.5s-7.5 -17.834 -7.5 -24.501c0 -14.667 4.16699 -26.667 12.5 -36s18.833 -17.5 31.5 -24.5s26.5 -13.167 41.5 -18.5s28.833 -11.5 41.5 -18.5s23.167 -15.333 31.5 -25s12.5 -22.167 12.5 -37.5c0 -14 -7.16699 -25.333 -21.5 -34
s-30.833 -15.334 -49.5 -20.001s-37.167 -7.66699 -55.5 -9s-31.5 -2 -39.5 -2h-5c-10 2 -22.333 6.83301 -37 14.5s-29.167 15.667 -43.5 24l-39.5 22.5c-12 6.66699 -20.333 10 -25 10c-6 0 -11.333 -2.16699 -16 -6.5s-8.5 -9.5 -11.5 -15.5s-5.16699 -12.167 -6.5 -18.5
s-2 -11.833 -2 -16.5zM99.0029 235c0 19.333 5.83301 37.165 17.5 53.498s27.834 24.5 48.501 24.5c4.66699 0 10 -0.833008 16 -2.5s11 -5.16699 15 -10.5s5.66699 -12.666 5 -21.999s-1 -15.666 -1 -18.999c0 -8.66699 -2 -17 -6 -25s-9.33301 -15 -16 -21
s-13.834 -10.833 -21.501 -14.5s-15.167 -5.5 -22.5 -5.5c-12.667 0 -21.667 4 -27 12s-8 18 -8 30z" />
    <glyph glyph-name="h" unicode="h" horiz-adv-x="450" 
d="M280 70c1.33301 -23.333 5.99902 -41.0029 13.999 -53.0029s23.667 -18 47 -18c8.66699 0 19 2.16699 31 6.5s23.5 10 34.5 17s20.333 15.167 28 24.5s11.5 19 11.5 29c-2 0 -6.16699 0.166992 -12.5 0.5s-13.166 0.666016 -20.499 0.999023
s-14.166 0.833008 -20.499 1.5s-10.5 1 -12.5 1c-1.33301 0 -3.33301 1.33301 -6 4s-4 4.66699 -4 6v9c0 4 -0.166992 8.5 -0.5 13.5s-0.5 9.5 -0.5 13.5v9c0 32 2 63.333 6 94s6 62 6 94v20c0 10 -1 20 -3 30s-5.5 18.667 -10.5 26s-12.167 11 -21.5 11
c-18 0 -37 -5.5 -57 -16.5s-39.333 -24 -58 -39s-36 -30.5 -52 -46.5l-39 -38c0 3.33301 -0.166992 10 -0.5 20s-0.5 16.667 -0.5 20c0 33.333 2 65.833 6 97.5s6 64.167 6 97.5v14c0 7.33301 -0.166992 15 -0.5 23s-0.5 15.667 -0.5 23v13.5c0 1.66699 -1 4.66699 -3 9
s-4.66699 9.16602 -8 14.499s-6.33301 8 -9 8c-11.333 0 -22.833 -2.83301 -34.5 -8.5s-22.834 -12.5 -33.501 -20.5s-20.5 -16.667 -29.5 -26s-16.5 -17.666 -22.5 -24.999h60c0.666992 0 2.16699 -5.16699 4.5 -15.5l5.5 -24.5v-14c0 -40 -2.16699 -79.667 -6.5 -119
s-9 -78.666 -14 -117.999s-9.66699 -78.5 -14 -117.5s-6.5 -78.167 -6.5 -117.5c20.667 0 37.834 8 51.501 24s25.667 36.167 36 60.5s20 50.666 29 78.999s19 54.666 30 78.999s24 44.5 39 60.5s33.833 24 56.5 24c6.66699 0 11.167 -1.16699 13.5 -3.5
s4.16602 -8.16602 5.49902 -17.499c0 -1.33301 0.5 -5.66602 1.5 -12.999s2 -15.666 3 -24.999l3 -28.5l2.5 -23.5v-5v-5c-1.33301 -5.33301 -3.33301 -14.666 -6 -27.999l-8.5 -42l-9 -42c-3 -13.333 -5.16699 -22.666 -6.5 -27.999z" />
    <glyph glyph-name="i" unicode="i" horiz-adv-x="260" 
d="M70 10c10.667 -6 20.832 -9.33203 30.499 -9.99902s20.167 -1 31.5 -1h19c5.33301 0 10.5 0.666992 15.5 2s10 3.5 15 6.5s11.167 7.16699 18.5 12.5c4 2.66699 8.83301 6.66699 14.5 12l16.5 16c5.33301 5.33301 9.83301 10.166 13.5 14.499s5.5 6.83301 5.5 7.5v14
c-7.33301 0 -14.166 -1.33301 -20.499 -4s-12.333 -5.5 -18 -8.5s-11.5 -5.83301 -17.5 -8.5s-12.333 -4 -19 -4c-0.666992 0 -1.66699 0.166992 -3 0.5l-2 0.5c-2 1.33301 -6.5 3.33301 -13.5 6s-12.5 6 -16.5 10s-7.33301 11.333 -10 22c2.66699 16 4 28 4 36
c2.66699 10.667 5.33398 20 8.00098 28c4.66699 35.333 9.16699 72.666 13.5 111.999s6.5 79 6.5 119c-30 0 -58.167 -8 -84.5 -24s-48.833 -35.667 -67.5 -59c1.33301 0 3.83301 -0.166992 7.5 -0.5s6.16699 -0.5 7.5 -0.5c11.333 0 20.5 1.33301 27.5 4
s16.167 8.33398 27.5 17.001v-9c0 -4 0.166992 -8.5 0.5 -13.5s0.5 -9.5 0.5 -13.5v-9c0 -36 -3.16699 -72.5 -9.5 -109.5s-11.5 -70.167 -15.5 -99.5c-1.33301 -10.667 -2 -18.667 -2 -24v-30c5.33301 -5.33301 10.666 -9.33301 15.999 -12zM78.998 485.001
c0 -5.33301 1.66699 -9.66895 5 -13.002s7.16602 -6 11.499 -8s9.16602 -3.33301 14.499 -4s10 -1 14 -1c6 0 12.833 1.16699 20.5 3.5s15 5.5 22 9.5s12.833 8.83301 17.5 14.5s7 11.834 7 18.501c0 0.666992 -0.166992 1.5 -0.5 2.5s-0.5 1.83301 -0.5 2.5
c-9.33301 6.66699 -17.666 11.834 -24.999 15.501s-15.666 5.5 -24.999 5.5c-4 0 -9.5 -1.5 -16.5 -4.5s-13.667 -6.83301 -20 -11.5s-12 -9.66699 -17 -15s-7.5 -10.333 -7.5 -15z" />
    <glyph glyph-name="j" unicode="j" horiz-adv-x="184" 
d="M-262 -117c0 -33.333 8.99902 -57.666 26.999 -72.999s42.333 -23 73 -23c25.333 0 50.166 5.5 74.499 16.5s47.5 22.5 69.5 34.5c42 22.667 75 53 99 91s42 79.5 54 124.5s19.667 91.5 23 139.5s5 93 5 135v11c0 6 -0.166992 12.333 -0.5 19s-0.5 12.667 -0.5 18v12
c-1.33301 2 -4.5 5.5 -9.5 10.5s-8.5 8.16699 -10.5 9.5h-5c-8.66699 0 -19.5 -3.33301 -32.5 -10s-25.667 -15 -38 -25s-22.833 -20.5 -31.5 -31.5s-13 -20.5 -13 -28.5c0 -6 2 -10.167 6 -12.5s8.33301 -3.5 13 -3.5c8 0 14.833 0.833008 20.5 2.5s12.5 4.5 20.5 8.5
c0 -3.33301 0.166992 -10 0.5 -20s0.5 -16.667 0.5 -20c0 -23.333 -0.5 -49.833 -1.5 -79.5s-3.5 -59.667 -7.5 -90s-10.333 -60 -19 -89s-20.667 -54.833 -36 -77.5s-34.666 -40.834 -57.999 -54.501s-51.666 -20.5 -84.999 -20.5c-12 0 -23.667 1.33301 -35 4
s-22.5 5.66699 -33.5 9s-22.167 6.33301 -33.5 9s-23.333 4 -36 4zM68.999 489c0 -5.33301 1.83398 -9.66699 5.50098 -13s8 -6 13 -8s10.167 -3.33301 15.5 -4s10 -1 14 -1c13.333 0 25.666 5 36.999 15s17 21.667 17 35c0 12 -3.83301 18.667 -11.5 20
s-16.834 2 -27.501 2c-6.66699 0 -13.667 -0.666992 -21 -2s-14.166 -3.83301 -20.499 -7.5s-11.5 -8.5 -15.5 -14.5s-6 -13.333 -6 -22z" />
    <glyph glyph-name="k" unicode="k" horiz-adv-x="500" 
d="M50 465c0 -39.333 -1.66992 -78.498 -5.00293 -117.498s-7 -77.833 -11 -116.5s-7.66699 -77.334 -11 -116.001s-5 -77.667 -5 -117c21.333 0 37.5 8.16699 48.5 24.5s19.833 36.833 26.5 61.5s12.5 51.5 17.5 80.5s12 55.833 21 80.5s21.333 45.167 37 61.5
s37.834 24.5 66.501 24.5c15.333 0 26.833 -3.5 34.5 -10.5s11.5 -18.833 11.5 -35.5c0 -19.333 -6.33301 -34.5 -19 -45.5s-26.667 -20.667 -42 -29s-29.333 -17.166 -42 -26.499s-19 -22 -19 -38c0 -18 6.5 -35.833 19.5 -53.5s28.667 -33.5 47 -47.5s38 -25.167 59 -33.5
s39.5 -12.5 55.5 -12.5c18.667 0 36.334 4.16699 53.001 12.5s32.334 17.833 47.001 28.5c4 2.66699 8.83301 6.16699 14.5 10.5l16.5 13c5.33301 4.33301 9.83301 8.16602 13.5 11.499l5.5 5v20l-13.5 -6.5c-6.33301 -3 -13.333 -6 -21 -9s-14.834 -6 -21.501 -9
s-11.334 -4.83301 -14.001 -5.5c-0.666992 0 -2.16699 -0.166992 -4.5 -0.5s-4.16602 -0.5 -5.49902 -0.5c-6 0 -17.167 3.5 -33.5 10.5s-33.333 15.667 -51 26s-33.167 21.666 -46.5 33.999s-20 24.166 -20 35.499c0 12 5.33301 23.333 16 34s22.334 21.667 35.001 33
s24.334 23.5 35.001 36.5s16 28.167 16 45.5c0 27.333 -8.16699 47 -24.5 59s-37.166 18 -62.499 18c-10 0 -21.5 -3 -34.5 -9s-26 -13 -39 -21s-24.833 -15.833 -35.5 -23.5l-25 -17.5h-10v240c0 4 -2.33301 9.33301 -7 16s-9 11.334 -13 14.001
c-19.333 -7.33301 -38.833 -17.5 -58.5 -30.5s-33.5 -29.5 -41.5 -49.5c2 0.666992 5 1.16699 9 1.5s8.16699 0.333008 12.5 0s8.16602 -1.33301 11.499 -3s5.66602 -4.5 6.99902 -8.5v-45z" />
    <glyph glyph-name="l" unicode="l" horiz-adv-x="260" 
d="M40 20c3.33301 -11.333 8.33594 -17.6641 15.0029 -18.9971s14.334 -2 23.001 -2c15.333 0 30.333 2.66699 45 8s28.667 12.166 42 20.499s26.333 17.166 39 26.499l36 26h10v42c-0.666992 0 -2.33398 -0.166992 -5.00098 -0.5s-4.33398 -0.833008 -5.00098 -1.5
c-4 -2 -10.167 -5.83301 -18.5 -11.5s-17.166 -11.334 -26.499 -17.001s-18.5 -10.834 -27.5 -15.501s-16.5 -7 -22.5 -7c-0.666992 0 -1.66699 0.166992 -3 0.5l-2 0.5c-2 1.33301 -5.5 4.5 -10.5 9.5s-8.16699 8.5 -9.5 10.5c0 2.66699 -0.166992 7.83398 -0.5 15.501
s-0.5 15.834 -0.5 24.501s-0.166992 16.667 -0.5 24s-0.5 12.666 -0.5 15.999c0 32 2 63.5 6 94.5s8.33301 62 13 93s9 62 13 93s6 62.5 6 94.5c-29.333 0 -56.833 -8.33301 -82.5 -25s-46.834 -36.667 -63.501 -60c0 -1.33301 1.33301 -3.33301 4 -6s4.66699 -4 6 -4
c0.666992 0 2.5 0.5 5.5 1.5s6.16699 2 9.5 3s6.5 2.16699 9.5 3.5s4.83301 2 5.5 2c1.33301 0.666992 4.16602 0.5 8.49902 -0.5s7.16602 -1.5 8.49902 -1.5c0 -30.667 -1.5 -61.167 -4.5 -91.5s-6.16699 -60.5 -9.5 -90.5s-6.5 -60 -9.5 -90s-4.5 -60.333 -4.5 -91v-15
c0 -7.33301 0.166992 -15 0.5 -23s0.5 -15.667 0.5 -23v-14z" />
    <glyph glyph-name="m" unicode="m" horiz-adv-x="700" 
d="M550 12c4.66699 -9.33301 8.83789 -15.1729 12.5049 -17.5059s9.16699 -3.5 16.5 -3.5c10.667 0 21.667 3.66699 33 11s20.666 14 27.999 20c4 3.33301 8.83301 7.66602 14.5 12.999l16.5 16c5.33301 5.33301 9.83301 10 13.5 14s5.5 6.33301 5.5 7v22
c-1.33301 0 -3 -0.166992 -5 -0.5s-3.66699 -0.833008 -5 -1.5l-40 -20c-1.33301 -0.666992 -2.16602 -0.5 -2.49902 0.5s-1.16602 1.5 -2.49902 1.5c0 4.66699 -0.333008 12.5 -1 23.5s-1.33398 22.833 -2.00098 35.5s-1.33398 24.5 -2.00098 35.5s-0.666992 18.833 0 23.5
c0 2.66699 1 9.33398 3 20.001s4.33301 22.334 7 35.001s5 24.334 7 35.001s3 17.334 3 20.001c0 0.666992 0.166992 4.16699 0.5 10.5s0.5 11.166 0.5 14.499c0 6.66699 -1.33301 14.834 -4 24.501s-6.5 18.667 -11.5 27s-11.333 14.833 -19 19.5s-16.5 6 -26.5 4
c-17.333 -4 -34.333 -10.333 -51 -19s-33.167 -18.834 -49.5 -30.501s-32 -23.667 -47 -36l-42.5 -34.5l-3.5 45c-1 12.667 -3.33301 24 -7 34s-9.33398 19 -17.001 27s-18.5 16 -32.5 24c-34 -12 -66.167 -29 -96.5 -51s-58.166 -45 -83.499 -69h-10v100
c0 1.33301 -1.33301 3.33301 -4 6s-4.66699 4 -6 4c-12 0 -24.167 -3.16699 -36.5 -9.5s-24.333 -14 -36 -23s-22.5 -18.667 -32.5 -29s-18.333 -19.833 -25 -28.5c0.666992 -1.33301 2.16699 -3.16602 4.5 -5.49902s4.16602 -3.83301 5.49902 -4.5h5
c8 0 15.5 1.66699 22.5 5s14.5 5 22.5 5h10c-3.33301 -26 -7.83301 -51.667 -13.5 -77l-17 -76c-5.66699 -25.333 -10.667 -50.833 -15 -76.5s-6.5 -51.834 -6.5 -78.501c18.667 0 33.5 4.83301 44.5 14.5s19.5 21.5 25.5 35.5s10.333 29 13 45s5.66699 30.333 9 43
c10 39.333 28.333 74.666 55 105.999s55 59.333 85 84c1.33301 0 3.83301 0.166992 7.5 0.5s6.16699 0.5 7.5 0.5c9.33301 0 16.5 -2.33301 21.5 -7s8.5 -10.667 10.5 -18s3.16699 -15.166 3.5 -23.499s0.5 -16.166 0.5 -23.499c0 -19.333 -1.66699 -38.666 -5 -57.999
s-7 -38.5 -11 -57.5s-7.66699 -38 -11 -57s-5 -38.167 -5 -57.5c0 -5.33301 0.5 -11.5 1.5 -18.5s5.83301 -10.5 14.5 -10.5c10.667 0 20.834 4.83301 30.501 14.5s18.667 22.167 27 37.5s16.166 32.333 23.499 51l20.5 54.5l18 49c5.66699 15 10.834 26.167 15.501 33.5
c4.66699 6.66699 10.667 14.667 18 24s15.666 18.333 24.999 27s19.166 15.834 29.499 21.501s21.166 8.5 32.499 8.5c13.333 0 22.666 -4.66699 27.999 -14s8 -19.666 8 -30.999c0 -34 -3.66699 -67.5 -11 -100.5s-11 -66.5 -11 -100.5v-13c0 -6 0.166992 -12.5 0.5 -19.5
s0.5 -13.5 0.5 -19.5v-13z" />
    <glyph glyph-name="n" unicode="n" horiz-adv-x="500" 
d="M80 280c0 -23.333 -1.1709 -46.666 -3.50391 -69.999s-5 -46.833 -8 -70.5s-5.66699 -47.167 -8 -70.5s-3.5 -47 -3.5 -71c24 0 42 7.16699 54 21.5s21.5 31.333 28.5 51s13 40.334 18 62.001s12.5 39.5 22.5 53.5l25.5 40c9.66699 15.333 20.5 30 32.5 44
s25.167 25.833 39.5 35.5s30.166 14.5 47.499 14.5h5c1.33301 -0.666992 3.16602 -2.16699 5.49902 -4.5s3.83301 -4.16602 4.5 -5.49902c0 -3.33301 0.166992 -10.166 0.5 -20.499s0.5 -17.166 0.5 -20.499c0 -30 -2 -59.167 -6 -87.5s-6 -57.833 -6 -88.5v-12
c0 -5.33301 0.166992 -11.5 0.5 -18.5s0.5 -13.5 0.5 -19.5v-11c4 -12.667 8.5 -21.167 13.5 -25.5s13.5 -6.5 25.5 -6.5c10.667 0 23.334 2.5 38.001 7.5s28.667 11.833 42 20.5s24.5 18.834 33.5 30.501s13.5 23.834 13.5 36.501c-11.333 0 -22.333 -2.83301 -33 -8.5
s-21.667 -10.167 -33 -13.5h-5h-5c-1.33301 0.666992 -3.16602 2.16699 -5.49902 4.5s-3.83301 4.16602 -4.5 5.49902v10c0 5.33301 -0.166992 10.666 -0.5 15.999s-0.5 10.333 -0.5 15v11c0 31.333 2 62.166 6 92.499s6 61.166 6 92.499v11
c0 4.66699 -0.166992 9.66699 -0.5 15s-0.5 10.666 -0.5 15.999v10c-4 10.667 -8.66699 16.834 -14 18.501s-11.666 2.5 -18.999 2.5c-26 0 -49.167 -5.16699 -69.5 -15.5s-39.333 -23.5 -57 -39.5s-34.5 -33 -50.5 -51s-32.667 -34.333 -50 -49v134
c0 1.33301 -1.33301 4.66602 -4 9.99902s-4.66699 8.66602 -6 9.99902h-4c-12.667 0 -25.667 -3 -39 -9s-26 -13.667 -38 -23s-23.167 -19.5 -33.5 -30.5s-18.833 -20.833 -25.5 -29.5c4.66699 0.666992 10.834 1.66699 18.501 3s15.334 1.83301 23.001 1.5
s14.334 -2.33301 20.001 -6s8.5 -9.83398 8.5 -18.501z" />
    <glyph glyph-name="o" unicode="o" horiz-adv-x="350" 
d="M14 72c2.66699 -13.333 6.66797 -24.667 12.001 -34s12.833 -17 22.5 -23s20 -10.167 31 -12.5s20.5 -3.5 28.5 -3.5c32 0 62 9 90 27s52.667 40.833 74 68.5s38.166 57.667 50.499 90s18.5 62.833 18.5 91.5c0 11.333 0.333008 24 1 38s-1.5 25.833 -6.5 35.5
s-10.833 18.5 -17.5 26.5s-13.334 14 -20.001 18s-12.334 7.16699 -17.001 9.5s-10.667 4.16602 -18 5.49902s-11.666 2 -12.999 2c-26.667 0 -51.167 -5.66699 -73.5 -17s-42.333 -26.5 -60 -45.5s-33.167 -40.667 -46.5 -65s-24.5 -49.666 -33.5 -75.999
s-15.667 -52.5 -20 -78.5s-5.16602 -45 -2.49902 -57zM99.001 139.999c0 4.66699 0.667969 13.166 2.00098 25.499s3.5 26.333 6.5 42s6.83301 32 11.5 49s10.334 32.667 17.001 47s14.5 26 23.5 35s19.167 13.5 30.5 13.5c1.33301 0 3.16602 -0.333008 5.49902 -1
s3.83301 -1 4.5 -1c12.667 -8.66699 23 -17.167 31 -25.5s14.167 -17.166 18.5 -26.499s7.33301 -19.5 9 -30.5s2.5 -23.5 2.5 -37.5c0 -11.333 -2.83301 -26.5 -8.5 -45.5s-13.334 -37.833 -23.001 -56.5s-20.5 -34.834 -32.5 -48.501s-24 -20.5 -36 -20.5
c-10.667 0 -20 2.5 -28 7.5s-14.5 11.333 -19.5 19s-8.66699 16.334 -11 26.001s-3.5 19.167 -3.5 28.5z" />
    <glyph glyph-name="p" unicode="p" horiz-adv-x="380" 
d="M20 -202c1.33301 -6 4.66699 -9.33887 10 -10.0059s10.333 -1 15 -1c17.333 0 30.166 4.33301 38.499 13s14 19.834 17 33.501s4.83301 28.834 5.5 45.501s2 32.834 4 48.501s5.83301 29.834 11.5 42.501s15.167 22 28.5 28l70 30c24 12 45.333 26.833 64 44.5
s34.5 37.334 47.5 59.001s22.833 45 29.5 70s10 50.5 10 76.5c0 10.667 -0.5 23.334 -1.5 38.001s-3.5 28.834 -7.5 42.501s-10.5 25.334 -19.5 35.001s-21.5 14.5 -37.5 14.5c-8 0 -18.333 -4.33301 -31 -13s-25.334 -18.667 -38.001 -30s-24.167 -22.5 -34.5 -33.5
s-17.5 -18.833 -21.5 -23.5h-10c0 3.33301 -1.16699 10.5 -3.5 21.5s-5.66602 22.333 -9.99902 34s-10 22.167 -17 31.5s-15.167 14 -24.5 14c-6 0 -15.5 -5.16699 -28.5 -15.5s-25.667 -22 -38 -35s-22.666 -25.5 -30.999 -37.5s-10.833 -19.667 -7.5 -23l10 -10l8 4
c4 2 8 4.16699 12 6.5s8 4.33301 12 6s6.66699 2.83398 8 3.50098l2 0.5c1.33301 0.333008 2.33301 0.5 3 0.5c4.66699 0 8.16699 -2.16699 10.5 -6.5s4 -9.33301 5 -15s1.33301 -11.167 1 -16.5s-0.5 -9 -0.5 -11v-38c0 -13.333 -0.5 -26.833 -1.5 -40.5
s-3 -26.834 -6 -39.501s-7.5 -24 -13.5 -34c-0.666992 -1.33301 -2.5 -3.33301 -5.5 -6s-6.16699 -5.66699 -9.5 -9l-9.5 -9.5l-5.5 -5.5c-0.666992 -0.666992 -1.16699 -3.33398 -1.5 -8.00098s-0.5 -8.33398 -0.5 -11.001c0 -8 1.16699 -14.333 3.5 -19
s5 -9.16699 8 -13.5s5.66699 -9 8 -14s3.5 -11.833 3.5 -20.5c0 -33.333 -3.16699 -66 -9.5 -98s-13.5 -64 -21.5 -96zM140.001 85.9941l0.00195312 9.99902c0 24 3 46.333 9 67s14.167 40.167 24.5 58.5s22.166 36.166 35.499 53.499l41 54h4.5h5.5
c10 0 17.167 -3.83301 21.5 -11.5s7.16602 -16.5 8.49902 -26.5s1.83301 -20.167 1.5 -30.5s-0.5 -18.5 -0.5 -24.5c0 -14.667 -1.5 -31.167 -4.5 -49.5s-8.33301 -35.666 -16 -51.999s-18 -30.166 -31 -41.499s-29.5 -17 -49.5 -17c-2 0 -5.33301 0.333008 -10 1
s-9.66699 1.5 -15 2.5s-10.333 2.16699 -15 3.5s-8 2.33301 -10 3z" />
    <glyph glyph-name="q" unicode="q" horiz-adv-x="320" 
d="M179 88c0 -44 -1.83398 -87.6689 -5.50098 -131.002s-5.5 -87 -5.5 -131c30.667 0 57.167 8.16699 79.5 24.5s43.166 35.5 62.499 57.5c0 1.33301 -1.33301 3.33301 -4 6s-4.66699 4 -6 4s-4.66602 -1.5 -9.99902 -4.5s-8.66602 -4.83301 -9.99902 -5.5
s-3.33301 -0.5 -6 0.5s-4.66699 1.5 -6 1.5c0 6.66699 -0.5 18 -1.5 34l-3 50.5l-3 50.5c-1 16 -1.16699 27 -0.5 33c0 4 1.66699 16 5 36l11.5 68l13 76.5c4.33301 25.667 7.83301 45.5 10.5 59.5l10 30c0 0.666992 0.166992 3.16699 0.5 7.5s0.5 7.5 0.5 9.5
c0 8.66699 -2.5 15.334 -7.5 20.001s-11 8 -18 10s-14.5 3.16699 -22.5 3.5s-15 0.5 -21 0.5c-34.667 0 -66.334 -8.5 -95.001 -25.5s-53.167 -38.667 -73.5 -65s-36.166 -55.833 -47.499 -88.5s-17 -65 -17 -97c0 -9.33301 -0.333008 -20.166 -1 -32.499s0 -24 2 -35
s6 -20.167 12 -27.5s15.667 -11 29 -11c11.333 0 22.5 2.33301 33.5 7s21.667 10.5 32 17.5s20 14.667 29 23l24.5 23.5h9zM184.999 339.998c2.66699 0 8.50293 -0.168945 17.5029 -0.501953s14.833 -0.833008 17.5 -1.5c5.33301 -2 8.33301 -4.66699 9 -8s1 -7 1 -11
c0 -8.66699 -1.66699 -20.334 -5 -35.001s-8 -30.667 -14 -48s-13 -34.666 -21 -51.999s-16.667 -33.166 -26 -47.499s-19 -26 -29 -35s-20 -13.5 -30 -13.5h-5c-1.33301 0.666992 -3.33301 2.33398 -6 5.00098s-4 4.33398 -4 5.00098v160c0 11.333 3.16699 22 9.5 32
s14.166 18.667 23.499 26s19.666 13.166 30.999 17.499s21.666 6.5 30.999 6.5z" />
    <glyph glyph-name="r" unicode="r" horiz-adv-x="450" 
d="M76 15l-0.00292969 -5.00098c0.666992 -1.33301 2 -3.16602 4 -5.49902s3.66699 -3.83301 5 -4.5h5c18.667 0 33 8.66699 43 26s18.667 39 26 65s14.333 54 21 84s15.334 58 26.001 84s24 47.667 40 65s37.333 26 64 26c12 0 23.333 -1.83301 34 -5.5s22 -5.5 34 -5.5
c6 0 12.833 0.833008 20.5 2.5s15 4.5 22 8.5s12.333 9.33301 16 16s4.83398 14.667 3.50098 24c-0.666992 2.66699 -3.5 6.5 -8.5 11.5s-8.83301 7.83301 -11.5 8.5c-2.66699 0 -8.33398 0.166992 -17.001 0.5s-14 0.5 -16 0.5c-19.333 0 -37.666 -2.5 -54.999 -7.5
s-33.833 -11.833 -49.5 -20.5s-31.167 -18.334 -46.5 -29.001s-30.666 -22 -45.999 -34c-0.666992 -1.33301 -2 -2 -4 -2c-4 0 -7.33301 4.33301 -10 13l-9 28.5c-3.33301 10.333 -8.33301 19.833 -15 28.5s-16.667 13 -30 13c-1.33301 0 -2.83301 -0.166992 -4.5 -0.5
l-2.5 -0.5c-1.33301 -0.666992 -4.5 -2.66699 -9.5 -6l-17 -11c-6.33301 -4 -12.333 -8.16699 -18 -12.5l-13.5 -10.5c-4 -2.66699 -8.66699 -6.16699 -14 -10.5l-16 -13c-5.33301 -4.33301 -9.5 -8.16602 -12.5 -11.499l-4.5 -5v-33l3.5 1
c2.33301 0.666992 3.83301 1.33398 4.5 2.00098c2.66699 1.33301 7.16699 4.83301 13.5 10.5l20.5 17.5c7.33301 6 14.5 11.333 21.5 16s12.5 7 16.5 7s7.5 -1.66699 10.5 -5s5.66699 -7.33301 8 -12s4 -9.33398 5 -14.001s1.5 -8 1.5 -10c0 -23.333 -2.16699 -47 -6.5 -71
s-9 -48 -14 -72s-9.33301 -48 -13 -72s-5.5 -47.333 -5.5 -70z" />
    <glyph glyph-name="s" unicode="s" 
d="M9 43c0 -9.33301 3.49707 -16.835 10.4971 -22.502s15.333 -10.167 25 -13.5s19.5 -5.5 29.5 -6.5s18.333 -1.5 25 -1.5c16 0 34.5 1.16699 55.5 3.5s42.667 6 65 11s44.333 11.833 66 20.5s41 18.667 58 30s30.833 24.5 41.5 39.5s16 32.5 16 52.5
c0 16 -6 28.833 -18 38.5s-27 18 -45 25s-37.333 13 -58 18s-40 10 -58 15s-33 10.667 -45 17s-18 15.166 -18 26.499c0 10 5.66699 18.333 17 25s24.5 12.334 39.5 17.001s30 8.16699 45 10.5s26.5 3.5 34.5 3.5h15c1.33301 0 4.5 -0.666992 9.5 -2l15.5 -4
c5.33301 -1.33301 10.5 -2.33301 15.5 -3s8.16699 -1 9.5 -1c4.66699 0.666992 10.5 2.5 17.5 5.5s13.833 6.5 20.5 10.5s12.334 8.66699 17.001 14s7 11 7 17c0 4.66699 -3.83301 8.83398 -11.5 12.501s-16.5 6.66699 -26.5 9s-19.333 4 -28 5s-14 1.5 -16 1.5
c-24 0 -48.833 -5 -74.5 -15s-50.667 -22.167 -75 -36.5s-47 -30.166 -68 -47.499s-38.5 -34 -52.5 -50c0 -1.33301 -0.166992 -4.33301 -0.5 -9s-0.5 -7.66699 -0.5 -9c0 -14 5.16699 -24.667 15.5 -32s22.5 -13.666 36.5 -18.999s28.333 -9.5 43 -12.5
s26.667 -6.5 36 -10.5c2.66699 -1.33301 8.33398 -3.83301 17.001 -7.5l29 -12.5c10.667 -4.66699 21 -9.5 31 -14.5l23 -11.5c5.33301 -3.33301 8.5 -6 9.5 -8s1.5 -5.66699 1.5 -11c0 -6 -2.16699 -11.333 -6.5 -16s-9.66602 -8.33398 -15.999 -11.001
s-13 -4.66699 -20 -6s-13.167 -2.33301 -18.5 -3l-29 -5.5c-12 -2.33301 -23.833 -4.33301 -35.5 -6s-22 -3.33398 -31 -5.00098s-13.833 -2.5 -14.5 -2.5c-1.33301 0 -5 0.5 -11 1.5s-12.333 2 -19 3s-13 2 -19 3s-9.66699 1.5 -11 1.5s-5.5 0.166992 -12.5 0.5
s-12.167 0.5 -15.5 0.5c-4 0 -8.5 -0.166992 -13.5 -0.5s-9.66699 -1.16602 -14 -2.49902s-8 -3.5 -11 -6.5s-4.5 -7.5 -4.5 -13.5z" />
    <glyph glyph-name="t" unicode="t" horiz-adv-x="330" 
d="M40 80c-1.33301 -22 2.33008 -40.9961 10.9971 -56.9961s23.667 -24 45 -24c27.333 0 52.666 8.16699 75.999 24.5s42.666 35.166 57.999 56.499c-0.666992 0 -2.16699 0.166992 -4.5 0.5s-4.16602 0.5 -5.49902 0.5s-3.16602 -0.166992 -5.49902 -0.5
s-3.83301 -0.5 -4.5 -0.5l-60 -20h-5c-7.33301 0 -12.833 3 -16.5 9s-6.16699 13 -7.5 21s-2 15.667 -2 23v17c0 14.667 0.333008 28 1 40s1.66699 24 3 36s3.5 24.5 6.5 37.5l10.5 46.5c1.33301 6 6.83301 10.667 16.5 14s21.334 6 35.001 8s28.167 4 43.5 6
s29.333 4.83301 42 8.5s23.334 8.66699 32.001 15s13 14.833 13 25.5c-4 0 -11.333 0.166992 -22 0.5s-22 0.666016 -34 0.999023s-23.333 0.666016 -34 0.999023s-18 0.5 -22 0.5s-8.83301 0.5 -14.5 1.5l-16.5 3c-5.33301 1 -9.83301 2 -13.5 3s-5.5 1.83301 -5.5 2.5v142
c-5.33301 0 -14 -2.16699 -26 -6.5s-24 -9.83301 -36 -16.5s-22.5 -14.334 -31.5 -23.001s-13.5 -17.334 -13.5 -26.001h34c0 -18 -0.833008 -34.833 -2.5 -50.5s-4.5 -24.834 -8.5 -27.501s-7.5 -4 -10.5 -4s-7.33301 -1.66699 -13 -5s-12.167 -8.16602 -19.5 -14.499
s-15 -15.833 -23 -28.5c-1.33301 -2.66699 -2.5 -5.83398 -3.5 -9.50098l-1.5 -5.5h55c0 -1.33301 0.666992 -6.16602 2 -14.499s2.83301 -18.666 4.5 -30.999s1.33398 -30.5 -0.999023 -54.5s-5.33301 -41.667 -9 -53s-7.16699 -22.833 -10.5 -34.5
s-5.33301 -24.167 -6 -37.5z" />
    <glyph glyph-name="u" unicode="u" horiz-adv-x="420" 
d="M270 160v-149.993c0 -3.33301 1.33301 -5.83301 4 -7.5s5.83398 -2.83398 9.50098 -3.50098s7 -0.833984 10 -0.500977s5.16699 0.5 6.5 0.5c10.667 0 22.667 2.66699 36 8s25.833 12.333 37.5 21s21.5 18.667 29.5 30s12 22.666 12 33.999
c-1.33301 0 -3.83301 -0.166992 -7.5 -0.5s-6.16699 -0.833008 -7.5 -1.5l-40 -20l-2 -0.5c-1.33301 -0.333008 -2.33301 -0.5 -3 -0.5c-7.33301 0 -11.833 2.83301 -13.5 8.5s-2.5 11.167 -2.5 16.5c0 28.667 3.33301 57.167 10 85.5s14 56.166 22 83.499
s15.333 54.333 22 81s10 52.667 10 78c-24 0 -43.333 -8.16699 -58 -24.5s-27.167 -35.833 -37.5 -58.5s-19.666 -46 -27.999 -70s-18.166 -43.667 -29.499 -59c-2 -2.66699 -6.5 -8.33398 -13.5 -17.001l-23 -29l-25 -31.5l-18.5 -22.5c-3.33301 -4 -6 -7.5 -8 -10.5
s-4 -5.16699 -6 -6.5s-4.16699 -2.33301 -6.5 -3s-5.5 -1 -9.5 -1s-7.83301 0.5 -11.5 1.5s-6.5 4.16699 -8.5 9.5v9c0 4 -0.166992 8.5 -0.5 13.5s-0.5 9.5 -0.5 13.5v9c0 20.667 2.16699 41 6.5 61s9.16602 39.833 14.499 59.5s10.166 39.5 14.499 59.5s6.5 40 6.5 60
c0 4.66699 -0.333008 9.66699 -1 15s-4 8.66602 -10 9.99902c-28 -11.333 -53.5 -25.166 -76.5 -41.499s-44.167 -35.833 -63.5 -58.5l10 -10c3.33301 2 10 5.5 20 10.5s16.667 8.16699 20 9.5c1.33301 0.666992 2.66602 0.5 3.99902 -0.5s2.66602 -1.5 3.99902 -1.5
c0 -20.667 -1.5 -41.334 -4.5 -62.001s-6.33301 -41.5 -10 -62.5s-7 -41.833 -10 -62.5s-4.5 -41.334 -4.5 -62.001c0 -5.33301 0.833008 -11.333 2.5 -18s4.16699 -13 7.5 -19s7.5 -11.167 12.5 -15.5s11.167 -6.5 18.5 -6.5c18.667 0 36.834 5.5 54.501 16.5
s34.167 24.333 49.5 40s29.5 32 42.5 49l33.5 44.5h10z" />
    <glyph glyph-name="v" unicode="v" horiz-adv-x="440" 
d="M120 10c0.666992 -1.33301 2.1709 -3.16895 4.50391 -5.50195s4.16602 -3.83301 5.49902 -4.5h5c18.667 0 36.167 5.16699 52.5 15.5s27.166 25.166 32.499 44.499c22 26.667 45.333 53.167 70 79.5s47.334 54 68.001 83s37.834 59.667 51.501 92s20.5 67.5 20.5 105.5
c0 6.66699 -3.33301 13.334 -10 20.001s-13.334 10 -20.001 10c-16 0 -27.833 -4 -35.5 -12s-13.167 -17.833 -16.5 -29.5s-5.33301 -23.834 -6 -36.501s-1.33398 -23.334 -2.00098 -32.001c-2 -20 -7 -41.167 -15 -63.5s-17.833 -43.833 -29.5 -64.5
s-24.834 -39.834 -39.501 -57.501s-30 -32.5 -46 -44.5l-10 10l-40 220c-1.33301 5.33301 -4 8.5 -8 9.5s-8 1.5 -12 1.5c-5.33301 0 -10.333 -0.666992 -15 -2s-9.66699 -4.33301 -15 -9c-4 -3.33301 -10.833 -9.66602 -20.5 -18.999l-30.5 -30l-30 -30.5
c-9.33301 -9.66699 -15.666 -16.5 -18.999 -20.5c0.666992 0 2.16699 -0.166992 4.5 -0.5s4.16602 -0.5 5.49902 -0.5c9.33301 0 17.666 1.83301 24.999 5.5s15.666 8.83398 24.999 15.501c1.33301 -0.666992 3.16602 -2.16699 5.49902 -4.5s3.83301 -4.16602 4.5 -5.49902
c6.66699 -18 12.167 -37.333 16.5 -58s7.83301 -41.667 10.5 -63s4.83398 -42.166 6.50098 -62.499s3.83398 -39.166 6.50098 -56.499z" />
    <glyph glyph-name="w" unicode="w" horiz-adv-x="570" 
d="M250 239c7.33301 0 14.0049 -5.83008 20.0049 -17.4971s12 -26.5 18 -44.5s12 -37.167 18 -57.5s12.333 -39.5 19 -57.5s14 -33 22 -45s17.333 -18 28 -18c13.333 0 27.333 7 42 21s28.834 32 42.501 54s26.667 46.5 39 73.5s23.166 53 32.499 78
s16.666 47.667 21.999 68s8 35.166 8 44.499c0 17.333 -2.5 31.833 -7.5 43.5s-16.5 17.5 -34.5 17.5c-4 0 -10 -1.16699 -18 -3.5s-15.667 -5.5 -23 -9.5s-13.833 -8.66699 -19.5 -14s-8.5 -11 -8.5 -17c0 -5.33301 1.5 -10.333 4.5 -15s6.5 -9.5 10.5 -14.5
s7.5 -10.167 10.5 -15.5s4.5 -11.333 4.5 -18c0 -10.667 -1.33301 -24.834 -4 -42.501s-6.66699 -35 -12 -52s-11.666 -33 -18.999 -48s-15.666 -25.167 -24.999 -30.5c-7.33301 4.66699 -14.333 14.167 -21 28.5s-13.167 30.666 -19.5 48.999l-19 57.5
c-6.33301 20 -13 38.333 -20 55s-14.167 30.334 -21.5 41.001s-15.333 16 -24 16c-13.333 0 -27.333 -8 -42 -24s-29.334 -34.833 -44.001 -56.5l-42 -64.5c-13.333 -21.333 -25.666 -37.333 -36.999 -48l-10 10c0 6.66699 -0.833008 17.5 -2.5 32.5
s-3.66699 31.167 -6 48.5l-6.5 49c-2 15.333 -3.66699 26 -5 32l-5 15.5c-2 6.33301 -4.83301 12.5 -8.5 18.5s-7.66699 10.833 -12 14.5s-9.5 5.5 -15.5 5.5c-13.333 0 -25 -6.16699 -35 -18.5s-15 -25.833 -15 -40.5c0 -1.33301 0.166992 -4.33301 0.5 -9
s0.5 -7.33398 0.5 -8.00098c0 -1.33301 1 -5.16602 3 -11.499l6.5 -20.5l6.5 -20.5c2 -6.33301 3.33301 -10.166 4 -11.499c4.66699 -19.333 7.5 -33.333 8.5 -42s1.5 -16.334 1.5 -23.001s-0.333008 -14.167 -1 -22.5s-0.333984 -22.166 0.999023 -41.499
c0 -4.66699 0.5 -12 1.5 -22s2 -20.667 3 -32s2 -22 3 -32s1.83301 -17.333 2.5 -22c0.666992 -1.33301 2.16699 -3.33301 4.5 -6s4.16602 -4.33398 5.49902 -5.00098h5c4 0 8.66699 1.33301 14 4s10.666 5.83398 15.999 9.50098s10.166 7.16699 14.499 10.5
s7.83301 6.33301 10.5 9c3.33301 5.33301 9.16602 15.166 17.499 29.499l27 45.5l27.5 45.5l18 29.5c6.66699 11.333 12.167 21.666 16.5 30.999s12.166 14 23.499 14z" />
    <glyph glyph-name="x" unicode="x" horiz-adv-x="550" 
d="M265 111c6.66699 0 13.335 -5.82617 20.002 -17.4932s14.334 -24.334 23.001 -38.001s18.334 -26.334 29.001 -38.001s23.334 -17.5 38.001 -17.5c12 0 24.333 3.16699 37 9.5s24.167 14.5 34.5 24.5s18.666 21.333 24.999 34s9.5 25 9.5 37
c0 1.33301 -0.166992 3.83301 -0.5 7.5s-0.5 6.16699 -0.5 7.5l-28 -20c-10.667 -7.33301 -21.667 -11 -33 -11c-8.66699 0 -16.667 5 -24 15s-13.666 21.667 -18.999 35s-9.5 26.666 -12.5 39.999s-4.5 23.666 -4.5 30.999c0 1.33301 0.166992 4.66602 0.5 9.99902
s0.5 8.66602 0.5 9.99902c2.66699 2.66699 7.16699 7.83398 13.5 15.501l21 24.5l21.5 24c6.66699 7.33301 11.334 12.666 14.001 15.999l10 10c10.667 7.33301 22.167 12.5 34.5 15.5s23.666 6.83301 33.999 11.5s18.833 11 25.5 19s10 20.667 10 38h-16
c-6.66699 0 -13.5 -0.333008 -20.5 -1s-13.833 -2 -20.5 -4s-12.334 -5 -17.001 -9l-130 -120l-2 -0.5c-1.33301 -0.333008 -2.33301 -0.5 -3 -0.5c-6 0 -11.167 6.33301 -15.5 19s-9.83301 26.667 -16.5 42s-15.5 29.333 -26.5 42s-25.833 19 -44.5 19
c-14 0 -27.833 -3.33301 -41.5 -10s-25.834 -15.5 -36.501 -26.5s-19.334 -23.333 -26.001 -37s-10 -27.834 -10 -42.501c7.33301 0 13.5 1 18.5 3s9.5 4.66699 13.5 8s8.16699 7.16602 12.5 11.499s10.166 8.5 17.499 12.5l2 0.5c1.33301 0.333008 2.33301 0.5 3 0.5
c9.33301 0 18 -5.83301 26 -17.5s14.833 -25.167 20.5 -40.5s10.167 -31 13.5 -47s5 -28 5 -36v-10c-10 -11.333 -22 -24 -36 -38s-28.667 -24.667 -44 -32c-8 -4 -20.833 -6.83301 -38.5 -8.5s-35.5 -4.16699 -53.5 -7.5s-34 -8.66602 -48 -15.999s-21 -18.333 -21 -33
c0 -5.33301 2.5 -9.16602 7.5 -11.499s10.833 -3.83301 17.5 -4.5s13 -0.833984 19 -0.500977s9.66699 0.5 11 0.5c21.333 0 40.666 2.66699 57.999 8s33.5 12.5 48.5 21.5s29.667 19.667 44 32l45.5 39.5c0.666992 0 1.5 0.166992 2.5 0.5s1.83301 0.5 2.5 0.5z" />
    <glyph glyph-name="y" unicode="y" horiz-adv-x="376" 
d="M-139 -190c0 -8 3.16992 -16.3271 9.50293 -24.9941s14.166 -16.667 23.499 -24s19.166 -13.333 29.499 -18s19.5 -7 27.5 -7c40.667 0 80.5 7 119.5 21s74.5 33.333 106.5 58s59 54.167 81 88.5s36.667 71.833 44 112.5c0.666992 6 2.5 20.167 5.5 42.5l9.5 72.5l9 72.5
c2.66699 22.333 4.66699 36.5 6 42.5c1.33301 10 3.66602 21 6.99902 33l10.5 36c3.66699 12 6.83398 24.167 9.50098 36.5s4 24.166 4 35.499v16c0 7.33301 -3.66699 11.666 -11 12.999c-20 -6.66699 -35.333 -12.5 -46 -17.5s-18.667 -15.833 -24 -32.5
c-0.666992 -2.66699 -2.5 -8.83398 -5.5 -18.501l-9.5 -31.5l-9.5 -32c-3 -10 -4.83301 -16 -5.5 -18c-6.66699 -15.333 -15.334 -31.166 -26.001 -47.499s-22.5 -32.5 -35.5 -48.5s-26.333 -31.333 -40 -46s-26.5 -27.334 -38.5 -38.001
c-0.666992 0 -1.5 -0.166992 -2.5 -0.5s-1.83301 -0.5 -2.5 -0.5s-1.66699 0.166992 -3 0.5l-2 0.5c-1.33301 1.33301 -3.33301 4.66602 -6 9.99902s-4 8.66602 -4 9.99902v11c0 5.33301 -0.166992 10.833 -0.5 16.5s-0.5 11.167 -0.5 16.5v11
c0 32.667 3.66699 64.667 11 96s11 63.333 11 96c0 7.33301 -2 14.833 -6 22.5s-10.667 11.5 -20 11.5c-5.33301 0 -11.166 -1.16699 -17.499 -3.5s-12.5 -5.5 -18.5 -9.5s-11.667 -8.5 -17 -13.5s-9.33301 -9.83301 -12 -14.5c2 -43.333 0.666992 -85.833 -4 -127.5
s-7 -84.167 -7 -127.5v-11c0 -5.33301 0.166992 -10.833 0.5 -16.5s0.5 -11.167 0.5 -16.5v-11c4 -10 8.83301 -16 14.5 -18s12.5 -3 20.5 -3c16 0 32.667 4.16699 50 12.5s33.833 18.666 49.5 30.999s30 25.5 43 39.5s23.833 26.667 32.5 38
c0 -3.33301 0.166992 -10 0.5 -20s0.5 -16.667 0.5 -20c0 -38.667 -3 -75.5 -9 -110.5s-16.667 -65.833 -32 -92.5s-36.833 -48 -64.5 -64s-62.834 -24 -105.501 -24c-13.333 0 -24.833 2.16699 -34.5 6.5s-19 9.33301 -28 15s-18 10.667 -27 15s-19.167 6.5 -30.5 6.5
c-13.333 0 -21.833 -3.33301 -25.5 -10s-5.5 -16 -5.5 -28z" />
    <glyph glyph-name="z" unicode="z" horiz-adv-x="440" 
d="M100 65c16 0 31.1689 -3.33594 45.502 -10.0029s28.666 -14 42.999 -22s28.833 -15.5 43.5 -22.5s30.667 -10.5 48 -10.5c2 0 6.5 0.5 13.5 1.5s14.667 2 23 3s16.666 2.16699 24.999 3.5l18.5 3c2.66699 0.666992 7.83398 2.33398 15.501 5.00098
s15.334 5.66699 23.001 9s14.667 6.66602 21 9.99902s9.83301 6 10.5 8s1 5 1 9s-0.5 8.33301 -1.5 13s-2.33301 9 -4 13s-3.5 6.66699 -5.5 8c-9.33301 -6 -17.5 -9.5 -24.5 -10.5s-15.5 -1.5 -25.5 -1.5c-15.333 0 -30.5 2.33301 -45.5 7s-29.833 9.66699 -44.5 15
l-100 43v21c0 1.33301 5 7.66602 15 18.999l35.5 39.5l42.5 45c14.667 15 27 26.833 37 35.5c2.66699 2 9.33398 6.66699 20.001 14l34.5 23.5l35 23c11 7 17.833 11.5 20.5 13.5c1.33301 0.666992 3.16602 2.33398 5.49902 5.00098s3.83301 4.66699 4.5 6l-10 11h-190
c-6 0 -12.667 -1.66699 -20 -5s-14.833 -7.16602 -22.5 -11.499s-14.834 -9 -21.501 -14s-12 -9.16699 -16 -12.5s-8.83301 -7.83301 -14.5 -13.5l-16.5 -17c-5.33301 -5.66699 -9.83301 -10.667 -13.5 -15s-5.5 -6.83301 -5.5 -7.5v-13c12 0 22 2.33301 30 7
s15.667 10 23 16s14.833 11.333 22.5 16s16.5 7 26.5 7c14.667 0 27.5 -0.833008 38.5 -2.5s24.167 -4.83398 39.5 -9.50098c-4.66699 -4.66699 -11.5 -12 -20.5 -22l-31.5 -34.5l-37.5 -40l-37.5 -40l-32 -34l-21 -21.5c-4 -4 -11 -9.66699 -21 -17
s-20.167 -15.5 -30.5 -24.5s-19.5 -18.167 -27.5 -27.5s-12 -17.666 -12 -24.999c0 -4 0.5 -8.83301 1.5 -14.5s4.16699 -8.5 9.5 -8.5c8 0 15 2.83301 21 8.5s11.833 11.834 17.5 18.501s11.667 12.834 18 18.501s14.166 8.5 23.499 8.5z" />
    <glyph glyph-name="bar" unicode="|" horiz-adv-x="150" 
d="M18 -17c3.33301 -11.333 8.66504 -18.002 15.998 -20.002s15.333 -3 24 -3c16 0 33 4.16699 51 12.5s25.667 24.5 23 48.5l-8 9c-6 5.33301 -11.5 9.66602 -16.5 12.999s-8.16699 5.66602 -9.5 6.99902v11c0 4.66699 -0.166992 10 -0.5 16s-0.5 11.667 -0.5 17v11
c0 36 1.66699 72 5 108s7 71.833 11 107.5s7.66699 71.334 11 107.001s5 71.834 5 108.501v21c0 8.66699 -0.833008 17.167 -2.5 25.5s-4.66699 15.166 -9 20.499s-10.833 8 -19.5 8c-1.33301 0 -3.16602 -0.166992 -5.49902 -0.5s-3.83301 -0.5 -4.5 -0.5
c-2.66699 -1.33301 -7 -3.33301 -13 -6l-18.5 -8.5c-6.33301 -3 -12.166 -6.16699 -17.499 -9.5s-9 -6 -11 -8c-12 -23.333 -14.5 -36.666 -7.5 -39.999s15.167 -5 24.5 -5c0 -41.333 -1.5 -82.166 -4.5 -122.499s-6.16699 -80.5 -9.5 -120.5s-6.5 -80 -9.5 -120
s-4.5 -80 -4.5 -120v-14c0 -5.33301 0.166992 -11.666 0.5 -18.999s0.5 -14.333 0.5 -21v-13z" />
    <glyph glyph-name="tilde" unicode="&#x2dc;" horiz-adv-x="250" 
d="M114 71c-8 0 -18.167 -1.83301 -30.5 -5.5s-24.333 -8.66699 -36 -15s-21.5 -13.833 -29.5 -22.5s-12 -18 -12 -28h154c5.33301 0 12.333 2 21 6s17.167 9 25.5 15s15.666 12.5 21.999 19.5s10.166 13.5 11.499 19.5c-17.333 -2 -31.166 -2.5 -41.499 -1.5
s-19.5 2.5 -27.5 4.5s-16.167 3.83301 -24.5 5.5s-19.166 2.5 -32.499 2.5z" />
    <glyph glyph-name="quoteleft" unicode="&#x2018;" horiz-adv-x="160" 
d="M9 413c0 -12.667 5.16406 -24.168 15.4971 -34.501s21.833 -15.5 34.5 -15.5c18 0 33.333 4.83301 46 14.5s24.334 21.834 35.001 36.501c-4 6 -8.5 10.667 -13.5 14s-9.5 6.5 -13.5 9.5s-7.33301 7 -10 12s-4 12.167 -4 21.5c0 8 2.66699 14.333 8 19
s11.333 8.66699 18 12s12.667 7 18 11s8 9.33301 8 16c0 0.666992 -0.166992 1.66699 -0.5 3l-0.5 2c-0.666992 1.33301 -2.16699 3.16602 -4.5 5.49902s-4.16602 3.83301 -5.49902 4.5c-12 -3.33301 -25.667 -9.5 -41 -18.5s-29.666 -19.667 -42.999 -32
s-24.5 -25.666 -33.5 -39.999s-13.5 -27.833 -13.5 -40.5z" />
    <glyph glyph-name="quoteright" unicode="&#x2019;" horiz-adv-x="150" 
d="M70 438c0 -1.33301 -1.33301 -4.50293 -4 -9.50293s-4.66699 -8.5 -6 -10.5l-10 -10l-15 -15l-15 -15l-10 -10c1.33301 0 3.83301 -0.166992 7.5 -0.5s6.16699 -0.5 7.5 -0.5c14.667 0 29 3.66699 43 11s26.333 16.833 37 28.5s19.334 24.667 26.001 39s10 28.5 10 42.5
c0 12.667 -1.83301 24.167 -5.5 34.5s-14.834 16.833 -33.501 19.5c-5.33301 0 -11.333 -0.666992 -18 -2s-12.667 -4 -18 -8s-8.83301 -8.66699 -10.5 -14s-3.5 -8.66602 -5.5 -9.99902c0 -0.666992 -0.166992 -2.16699 -0.5 -4.5s-0.5 -4.16602 -0.5 -5.49902
s0.166992 -3.16602 0.5 -5.49902s0.5 -3.83301 0.5 -4.5c0 -1.33301 1 -4.5 3 -9.5s4.33301 -10.167 7 -15.5s5 -10.5 7 -15.5s3 -8.16699 3 -9.5z" />
    <glyph glyph-name="quotedblleft" unicode="&#x201c;" horiz-adv-x="330" 
d="M179 413c0 -12.667 5.16406 -24.168 15.4971 -34.501s21.833 -15.5 34.5 -15.5c18 0 33.333 4.83301 46 14.5s24.334 21.834 35.001 36.501c-4 6 -8.5 10.667 -13.5 14s-9.5 6.5 -13.5 9.5s-7.33301 7 -10 12s-4 12.167 -4 21.5c0 8 2.66699 14.333 8 19
s11.333 8.66699 18 12s12.667 7 18 11s8 9.33301 8 16c0 0.666992 -0.166992 1.66699 -0.5 3l-0.5 2c-0.666992 1.33301 -2.16699 3.16602 -4.5 5.49902s-4.16602 3.83301 -5.49902 4.5c-12 -3.33301 -25.667 -9.5 -41 -18.5s-29.666 -19.667 -42.999 -32
s-24.5 -25.666 -33.5 -39.999s-13.5 -27.833 -13.5 -40.5zM8.99707 428.999c0 -8 1.83301 -15.0049 5.5 -21.0049s8.5 -11.333 14.5 -16s12.5 -8.16699 19.5 -10.5s13.833 -3.5 20.5 -3.5c6 0 12.667 0.833008 20 2.5s14.166 4.16699 20.499 7.5s11.5 7.5 15.5 12.5
s6 11.167 6 18.5c0 6.66699 -1.66699 12.334 -5 17.001s-7 9.33398 -11 14.001s-7.66699 9.33398 -11 14.001s-5 10 -5 16c0 6.66699 1.83301 12.334 5.5 17.001l11.5 14l11.5 14c3.66699 4.66699 5.5 10.334 5.5 17.001c-12 0 -25.333 -3.5 -40 -10.5
s-28.167 -16 -40.5 -27s-22.666 -23.167 -30.999 -36.5s-12.5 -26.333 -12.5 -39z" />
    <glyph glyph-name="quotedblright" unicode="&#x201d;" horiz-adv-x="300" 
d="M210 448c-6 -15.333 -10.833 -26.998 -14.5 -34.998l-10 -22c-3 -6.66699 -4.83301 -11 -5.5 -13c-0.666992 -0.666992 -1.16699 -2.66699 -1.5 -6s-0.5 -5.33301 -0.5 -6c15.333 0 29.833 4.5 43.5 13.5s25.667 20.5 36 34.5s18.5 29 24.5 45s9 31 9 45
c0 12.667 -4.66699 21.667 -14 27s-20 8 -32 8c-5.33301 0 -12.833 -1 -22.5 -3s-19.167 -5 -28.5 -9s-17.5 -8.83301 -24.5 -14.5s-10.5 -12.167 -10.5 -19.5c0 -0.666992 0.166992 -1.5 0.5 -2.5s0.5 -1.83301 0.5 -2.5c6.66699 -5.33301 12 -10.333 16 -15
s8.66699 -8.33398 14 -11.001s12 -7.33398 20 -14.001zM40 440.002c0 -1.33301 -1.33398 -4.50195 -4.00098 -9.50195s-4.66699 -8.5 -6 -10.5l-10 -10c-0.666992 -1.33301 -1.16699 -3.66602 -1.5 -6.99902s-0.5 -5.66602 -0.5 -6.99902c10.667 0 21.5 2.66699 32.5 8
s21 12.166 30 20.499s16.5 17.833 22.5 28.5s9 21.334 9 32.001c0 12 -3 24.333 -9 37s-16.667 19 -32 19c-6 0 -12.5 -1 -19.5 -3s-13.667 -4.66699 -20 -8s-11.666 -7.5 -15.999 -12.5s-6.5 -10.833 -6.5 -17.5s1.66699 -12 5 -16l10.5 -12
c3.66699 -4 7.16699 -8.33301 10.5 -13s5 -11 5 -19z" />
    <glyph glyph-name="sf308" unicode="&#xe000;" horiz-adv-x="470" 
 />
    <glyph glyph-name="sf312" unicode="&#xe001;" horiz-adv-x="180" 
 />
    <glyph glyph-name="sf317" unicode="&#xe002;" horiz-adv-x="400" 
 />
    <glyph glyph-name="sf325" unicode="&#xe003;" horiz-adv-x="800" 
 />
    <glyph glyph-name=".null" unicode="&#xe004;" horiz-adv-x="0" 
 />
    <glyph glyph-name="nonmarkingreturn" unicode="&#xe005;" horiz-adv-x="500" 
 />
    <glyph glyph-name="sf331" unicode="&#xe006;" horiz-adv-x="380" 
 />
    <glyph glyph-name="sf345" unicode="&#xe007;" horiz-adv-x="830" 
 />
    <glyph glyph-name="sf347" unicode="&#xe008;" horiz-adv-x="720" 
 />
    <glyph glyph-name="sf349" unicode="&#xe009;" horiz-adv-x="310" 
d="M7 12c28 0 55.335 -2.00293 82.002 -6.00293s54 -6 82 -6c10.667 0 22.167 2 34.5 6s24.333 9.33301 36 16s22.667 14.167 33 22.5s18.833 16.833 25.5 25.5h-15h-15c-1.33301 0 -3.83301 -0.666992 -7.5 -2s-7.83398 -2.5 -12.501 -3.5s-9 -2 -13 -3
s-6.33301 -1.5 -7 -1.5c-6 0 -17.167 -0.166992 -33.5 -0.5s-33.5 -0.5 -51.5 -0.5s-35 0.166992 -51 0.5s-27.333 0.5 -34 0.5c-4.66699 -1.33301 -10 -3.66602 -16 -6.99902s-11.833 -7.16602 -17.5 -11.499s-10.334 -9.16602 -14.001 -14.499s-5.5 -10.333 -5.5 -15z" />
    <glyph glyph-name="sf351" unicode="&#xe00a;" horiz-adv-x="280" 
d="M50 10l10.0029 -10.002c0.666992 -0.666992 3.5 0 8.5 2s10.667 4.5 17 7.5s12.666 6.33301 18.999 10s11.5 7.16699 15.5 10.5c22.667 17.333 43.334 37.833 62.001 61.5s34.5 49.334 47.5 77.001s23 56.167 30 85.5s10.5 58 10.5 86c0 10 -2.5 20.833 -7.5 32.5
s-11.5 22.5 -19.5 32.5s-17 18.5 -27 25.5s-20 10.5 -30 10.5c-21.333 0 -42.5 -4.5 -63.5 -13.5s-39.833 -21.167 -56.5 -36.5s-30.334 -33.166 -41.001 -53.499s-16 -41.5 -16 -63.5c0 -24.667 6.33301 -41.667 19 -51s29.667 -14 51 -14
c15.333 0 30.166 1.66699 44.499 5s29.166 5 44.499 5c0 -42 -11.167 -81 -33.5 -117s-50.5 -66.667 -84.5 -92zM89.0029 329.998c0 9.33301 2.66797 18.5 8.00098 27.5s13 13.5 23 13.5c8.66699 0 16.667 -2.16699 24 -6.5s13.666 -10 18.999 -17
s9.66602 -14.667 12.999 -23s5 -16.5 5 -24.5c0 -10 -4.5 -17.667 -13.5 -23s-18.167 -8 -27.5 -8c-17.333 0 -30.166 6.33301 -38.499 19s-12.5 26.667 -12.5 42z" />
    <glyph glyph-name="sf359" unicode="&#xe00b;" horiz-adv-x="130" 
d="M10 60c0 -6.66699 1.66504 -13.501 4.99805 -20.501s7.5 -13.5 12.5 -19.5s10.833 -10.833 17.5 -14.5s13.334 -5.5 20.001 -5.5c17.333 0 31 4.83301 41 14.5s15 21.834 15 36.501c0 4.66699 -1.16699 11 -3.5 19s-5.66602 15.833 -9.99902 23.5
s-9.33301 14.167 -15 19.5s-11.5 8 -17.5 8s-12.833 -2 -20.5 -6s-14.667 -9.16699 -21 -15.5s-11.833 -13 -16.5 -20s-7 -13.5 -7 -19.5z" />
  </font>
</defs>
</svg>
